G04 #@! TF.FileFunction,Legend,Top*
%FSLAX46Y46*%
G04 Gerber Fmt 4.6, Leading zero omitted, Abs format (unit mm)*
G04 Created by KiCad (PCBNEW (2014-11-29 BZR 5307)-product) date 2/1/2015 9:55:14 PM*
%MOMM*%
G01*
G04 APERTURE LIST*
%ADD10C,0.150000*%
%ADD11C,0.350000*%
%ADD12C,0.300000*%
%ADD13C,0.200000*%
G04 APERTURE END LIST*
D10*
D11*
X126000000Y-96900000D02*
X126000000Y-97500000D01*
X99000000Y-96900000D02*
X99000000Y-97500000D01*
D12*
X116000000Y-88500000D02*
X114000000Y-88500000D01*
X109000000Y-88500000D02*
X111000000Y-88500000D01*
X111500000Y-92500000D02*
X113000000Y-92500000D01*
X112500000Y-91500000D02*
X111500000Y-92500000D01*
X111000000Y-94000000D02*
G75*
G03X114000000Y-94000000I1500000J1500000D01*
G01*
D11*
X108000000Y-93500000D02*
X108000000Y-94000000D01*
X117000000Y-93500000D02*
X117000000Y-94000000D01*
X108000000Y-94000000D02*
G75*
G03X117000000Y-94000000I4500000J4500000D01*
G01*
X108000000Y-88500000D02*
X108000000Y-93500000D01*
X109000000Y-87500000D02*
X108000000Y-88500000D01*
X112500000Y-87500000D02*
X109000000Y-87500000D01*
X117000000Y-88500000D02*
X117000000Y-93500000D01*
X116000000Y-87500000D02*
X117000000Y-88500000D01*
X112500000Y-87500000D02*
X116000000Y-87500000D01*
X126000000Y-96900000D02*
G75*
G03X112500000Y-83400000I-13500000J0D01*
G01*
X112500000Y-83400000D02*
G75*
G03X99000000Y-96900000I0J-13500000D01*
G01*
X126000000Y-101500000D02*
X126000000Y-97500000D01*
X99000000Y-101500000D02*
X99000000Y-97500000D01*
X120000000Y-95500000D02*
X115500000Y-95500000D01*
X129000000Y-104500000D02*
X120000000Y-95500000D01*
X124000000Y-109500000D02*
X129000000Y-104500000D01*
X125000000Y-104500000D02*
X122000000Y-107500000D01*
X121000000Y-100500000D02*
X125000000Y-104500000D01*
X121000000Y-106500000D02*
X121000000Y-100500000D01*
X130000000Y-115500000D02*
X121000000Y-106500000D01*
X130000000Y-120000000D02*
X130000000Y-115500000D01*
X105000000Y-95500000D02*
X109500000Y-95500000D01*
X96000000Y-104500000D02*
X105000000Y-95500000D01*
X101000000Y-109500000D02*
X96000000Y-104500000D01*
X100000000Y-104500000D02*
X103000000Y-107500000D01*
X104000000Y-100500000D02*
X100000000Y-104500000D01*
X104000000Y-106500000D02*
X104000000Y-100500000D01*
X95000000Y-115500000D02*
X104000000Y-106500000D01*
X104000000Y-120000000D02*
X95000000Y-120000000D01*
X95000000Y-120000000D02*
X95000000Y-115500000D01*
X104000000Y-131000000D02*
X104000000Y-120000000D01*
X103000000Y-131000000D02*
X104000000Y-131000000D01*
X103000000Y-131000000D02*
G75*
G03X101000000Y-133000000I0J-2000000D01*
G01*
X101000000Y-133000000D02*
G75*
G03X103000000Y-135000000I2000000J0D01*
G01*
X107500000Y-135000000D02*
X103000000Y-135000000D01*
X107500000Y-120000000D02*
X107500000Y-135000000D01*
X117500000Y-120000000D02*
X107500000Y-120000000D01*
X117500000Y-135000000D02*
X117500000Y-120000000D01*
X122000000Y-135000000D02*
X117500000Y-135000000D01*
X122000000Y-135000000D02*
G75*
G03X124000000Y-133000000I0J2000000D01*
G01*
X124000000Y-133000000D02*
G75*
G03X122000000Y-131000000I-2000000J0D01*
G01*
X121000000Y-131000000D02*
X122000000Y-131000000D01*
X121000000Y-120000000D02*
X121000000Y-131000000D01*
X130000000Y-120000000D02*
X121000000Y-120000000D01*
X109200000Y-101500000D02*
X107850000Y-101500000D01*
D10*
X107850000Y-101500000D02*
X107800000Y-101500000D01*
D11*
X107800000Y-101500000D02*
X107800000Y-102800000D01*
D10*
X108050000Y-101750000D02*
X115950000Y-101750000D01*
X115950000Y-101750000D02*
X115950000Y-107250000D01*
X115950000Y-107250000D02*
X108050000Y-107250000D01*
X108050000Y-107250000D02*
X108050000Y-101750000D01*
X110000000Y-108100000D02*
X109000000Y-108100000D01*
X109000000Y-109800000D02*
X110000000Y-109800000D01*
X114000000Y-113350000D02*
X115000000Y-113350000D01*
X115000000Y-111650000D02*
X114000000Y-111650000D01*
X114000000Y-97975000D02*
X112000000Y-97975000D01*
X112000000Y-100025000D02*
X114000000Y-100025000D01*
X110500000Y-111050000D02*
X108500000Y-111050000D01*
X108500000Y-113100000D02*
X110500000Y-113100000D01*
X119150000Y-103500000D02*
X119150000Y-104500000D01*
X120850000Y-104500000D02*
X120850000Y-103500000D01*
X107000000Y-99850000D02*
X108000000Y-99850000D01*
X108000000Y-98150000D02*
X107000000Y-98150000D01*
X104050000Y-132150000D02*
X104050000Y-133850000D01*
X104050000Y-133850000D02*
X104950000Y-133000000D01*
X104950000Y-133000000D02*
X104050000Y-132200000D01*
X104950000Y-132150000D02*
X104950000Y-133850000D01*
X106650000Y-132150000D02*
X106650000Y-133850000D01*
X106450000Y-132150000D02*
X102550000Y-132150000D01*
X102550000Y-132150000D02*
X102550000Y-133850000D01*
X102550000Y-133850000D02*
X106450000Y-133850000D01*
X106450000Y-133850000D02*
X106450000Y-132150000D01*
X99850000Y-104050000D02*
X98150000Y-104050000D01*
X98150000Y-104050000D02*
X99000000Y-104950000D01*
X99000000Y-104950000D02*
X99800000Y-104050000D01*
X99850000Y-104950000D02*
X98150000Y-104950000D01*
X99850000Y-106650000D02*
X98150000Y-106650000D01*
X99850000Y-106450000D02*
X99850000Y-102550000D01*
X99850000Y-102550000D02*
X98150000Y-102550000D01*
X98150000Y-102550000D02*
X98150000Y-106450000D01*
X98150000Y-106450000D02*
X99850000Y-106450000D01*
X109550000Y-89150000D02*
X109550000Y-90850000D01*
X109550000Y-90850000D02*
X110450000Y-90000000D01*
X110450000Y-90000000D02*
X109550000Y-89200000D01*
X110450000Y-89150000D02*
X110450000Y-90850000D01*
X112150000Y-89150000D02*
X112150000Y-90850000D01*
X111950000Y-89150000D02*
X108050000Y-89150000D01*
X108050000Y-89150000D02*
X108050000Y-90850000D01*
X108050000Y-90850000D02*
X111950000Y-90850000D01*
X111950000Y-90850000D02*
X111950000Y-89150000D01*
X120950000Y-133850000D02*
X120950000Y-132150000D01*
X120950000Y-132150000D02*
X120050000Y-133000000D01*
X120050000Y-133000000D02*
X120950000Y-133800000D01*
X120050000Y-133850000D02*
X120050000Y-132150000D01*
X118350000Y-133850000D02*
X118350000Y-132150000D01*
X118550000Y-133850000D02*
X122450000Y-133850000D01*
X122450000Y-133850000D02*
X122450000Y-132150000D01*
X122450000Y-132150000D02*
X118550000Y-132150000D01*
X118550000Y-132150000D02*
X118550000Y-133850000D01*
X126850000Y-104050000D02*
X125150000Y-104050000D01*
X125150000Y-104050000D02*
X126000000Y-104950000D01*
X126000000Y-104950000D02*
X126800000Y-104050000D01*
X126850000Y-104950000D02*
X125150000Y-104950000D01*
X126850000Y-106650000D02*
X125150000Y-106650000D01*
X126850000Y-106450000D02*
X126850000Y-102550000D01*
X126850000Y-102550000D02*
X125150000Y-102550000D01*
X125150000Y-102550000D02*
X125150000Y-106450000D01*
X125150000Y-106450000D02*
X126850000Y-106450000D01*
X115450000Y-90850000D02*
X115450000Y-89150000D01*
X115450000Y-89150000D02*
X114550000Y-90000000D01*
X114550000Y-90000000D02*
X115450000Y-90800000D01*
X114550000Y-90850000D02*
X114550000Y-89150000D01*
X112850000Y-90850000D02*
X112850000Y-89150000D01*
X113050000Y-90850000D02*
X116950000Y-90850000D01*
X116950000Y-90850000D02*
X116950000Y-89150000D01*
X116950000Y-89150000D02*
X113050000Y-89150000D01*
X113050000Y-89150000D02*
X113050000Y-90850000D01*
X118125000Y-116600000D02*
X118125000Y-115400000D01*
X119875000Y-115400000D02*
X119875000Y-116600000D01*
X121625000Y-116600000D02*
X121625000Y-115400000D01*
X123375000Y-115400000D02*
X123375000Y-116600000D01*
X119875000Y-110900000D02*
X119875000Y-112100000D01*
X118125000Y-112100000D02*
X118125000Y-110900000D01*
X101135000Y-116600000D02*
X101135000Y-115400000D01*
X102885000Y-115400000D02*
X102885000Y-116600000D01*
X100400000Y-95625000D02*
X101600000Y-95625000D01*
X101600000Y-97375000D02*
X100400000Y-97375000D01*
X104375000Y-92300000D02*
X104375000Y-93500000D01*
X102625000Y-93500000D02*
X102625000Y-92300000D01*
X125725000Y-116600000D02*
X125725000Y-115400000D01*
X127475000Y-115400000D02*
X127475000Y-116600000D01*
X119600000Y-98875000D02*
X118400000Y-98875000D01*
X118400000Y-97125000D02*
X119600000Y-97125000D01*
X122375000Y-92300000D02*
X122375000Y-93500000D01*
X120625000Y-93500000D02*
X120625000Y-92300000D01*
X104605000Y-116660000D02*
X104605000Y-115460000D01*
X106355000Y-115460000D02*
X106355000Y-116660000D01*
D11*
X115500000Y-115850000D02*
X115500000Y-114700000D01*
X115500000Y-114700000D02*
X114250000Y-114700000D01*
D10*
X115300000Y-119100000D02*
X115300000Y-114900000D01*
X115300000Y-114900000D02*
X109700000Y-114900000D01*
X109700000Y-119100000D02*
X109700000Y-114900000D01*
X109725000Y-119120000D02*
X115275000Y-119120000D01*
D13*
X105385714Y-103842857D02*
X105385714Y-104814286D01*
X105442857Y-104928571D01*
X105500000Y-104985714D01*
X105614286Y-105042857D01*
X105842857Y-105042857D01*
X105957143Y-104985714D01*
X106014286Y-104928571D01*
X106071429Y-104814286D01*
X106071429Y-103842857D01*
X106585714Y-103957143D02*
X106642857Y-103900000D01*
X106757143Y-103842857D01*
X107042857Y-103842857D01*
X107157143Y-103900000D01*
X107214286Y-103957143D01*
X107271429Y-104071429D01*
X107271429Y-104185714D01*
X107214286Y-104357143D01*
X106528572Y-105042857D01*
X107271429Y-105042857D01*
D10*
X106266667Y-109285714D02*
X106228572Y-109323810D01*
X106114286Y-109361905D01*
X106038096Y-109361905D01*
X105923810Y-109323810D01*
X105847619Y-109247619D01*
X105809524Y-109171429D01*
X105771429Y-109019048D01*
X105771429Y-108904762D01*
X105809524Y-108752381D01*
X105847619Y-108676190D01*
X105923810Y-108600000D01*
X106038096Y-108561905D01*
X106114286Y-108561905D01*
X106228572Y-108600000D01*
X106266667Y-108638095D01*
X107028572Y-109361905D02*
X106571429Y-109361905D01*
X106800000Y-109361905D02*
X106800000Y-108561905D01*
X106723810Y-108676190D01*
X106647619Y-108752381D01*
X106571429Y-108790476D01*
X114266667Y-111085714D02*
X114228572Y-111123810D01*
X114114286Y-111161905D01*
X114038096Y-111161905D01*
X113923810Y-111123810D01*
X113847619Y-111047619D01*
X113809524Y-110971429D01*
X113771429Y-110819048D01*
X113771429Y-110704762D01*
X113809524Y-110552381D01*
X113847619Y-110476190D01*
X113923810Y-110400000D01*
X114038096Y-110361905D01*
X114114286Y-110361905D01*
X114228572Y-110400000D01*
X114266667Y-110438095D01*
X114571429Y-110438095D02*
X114609524Y-110400000D01*
X114685715Y-110361905D01*
X114876191Y-110361905D01*
X114952381Y-110400000D01*
X114990477Y-110438095D01*
X115028572Y-110514286D01*
X115028572Y-110590476D01*
X114990477Y-110704762D01*
X114533334Y-111161905D01*
X115028572Y-111161905D01*
X112866667Y-101185714D02*
X112828572Y-101223810D01*
X112714286Y-101261905D01*
X112638096Y-101261905D01*
X112523810Y-101223810D01*
X112447619Y-101147619D01*
X112409524Y-101071429D01*
X112371429Y-100919048D01*
X112371429Y-100804762D01*
X112409524Y-100652381D01*
X112447619Y-100576190D01*
X112523810Y-100500000D01*
X112638096Y-100461905D01*
X112714286Y-100461905D01*
X112828572Y-100500000D01*
X112866667Y-100538095D01*
X113133334Y-100461905D02*
X113628572Y-100461905D01*
X113361905Y-100766667D01*
X113476191Y-100766667D01*
X113552381Y-100804762D01*
X113590477Y-100842857D01*
X113628572Y-100919048D01*
X113628572Y-101109524D01*
X113590477Y-101185714D01*
X113552381Y-101223810D01*
X113476191Y-101261905D01*
X113247619Y-101261905D01*
X113171429Y-101223810D01*
X113133334Y-101185714D01*
X105866667Y-112385714D02*
X105828572Y-112423810D01*
X105714286Y-112461905D01*
X105638096Y-112461905D01*
X105523810Y-112423810D01*
X105447619Y-112347619D01*
X105409524Y-112271429D01*
X105371429Y-112119048D01*
X105371429Y-112004762D01*
X105409524Y-111852381D01*
X105447619Y-111776190D01*
X105523810Y-111700000D01*
X105638096Y-111661905D01*
X105714286Y-111661905D01*
X105828572Y-111700000D01*
X105866667Y-111738095D01*
X106552381Y-111928571D02*
X106552381Y-112461905D01*
X106361905Y-111623810D02*
X106171429Y-112195238D01*
X106666667Y-112195238D01*
X121966667Y-104285714D02*
X121928572Y-104323810D01*
X121814286Y-104361905D01*
X121738096Y-104361905D01*
X121623810Y-104323810D01*
X121547619Y-104247619D01*
X121509524Y-104171429D01*
X121471429Y-104019048D01*
X121471429Y-103904762D01*
X121509524Y-103752381D01*
X121547619Y-103676190D01*
X121623810Y-103600000D01*
X121738096Y-103561905D01*
X121814286Y-103561905D01*
X121928572Y-103600000D01*
X121966667Y-103638095D01*
X122690477Y-103561905D02*
X122309524Y-103561905D01*
X122271429Y-103942857D01*
X122309524Y-103904762D01*
X122385715Y-103866667D01*
X122576191Y-103866667D01*
X122652381Y-103904762D01*
X122690477Y-103942857D01*
X122728572Y-104019048D01*
X122728572Y-104209524D01*
X122690477Y-104285714D01*
X122652381Y-104323810D01*
X122576191Y-104361905D01*
X122385715Y-104361905D01*
X122309524Y-104323810D01*
X122271429Y-104285714D01*
X107366667Y-101085714D02*
X107328572Y-101123810D01*
X107214286Y-101161905D01*
X107138096Y-101161905D01*
X107023810Y-101123810D01*
X106947619Y-101047619D01*
X106909524Y-100971429D01*
X106871429Y-100819048D01*
X106871429Y-100704762D01*
X106909524Y-100552381D01*
X106947619Y-100476190D01*
X107023810Y-100400000D01*
X107138096Y-100361905D01*
X107214286Y-100361905D01*
X107328572Y-100400000D01*
X107366667Y-100438095D01*
X108052381Y-100361905D02*
X107900000Y-100361905D01*
X107823810Y-100400000D01*
X107785715Y-100438095D01*
X107709524Y-100552381D01*
X107671429Y-100704762D01*
X107671429Y-101009524D01*
X107709524Y-101085714D01*
X107747619Y-101123810D01*
X107823810Y-101161905D01*
X107976191Y-101161905D01*
X108052381Y-101123810D01*
X108090477Y-101085714D01*
X108128572Y-101009524D01*
X108128572Y-100819048D01*
X108090477Y-100742857D01*
X108052381Y-100704762D01*
X107976191Y-100666667D01*
X107823810Y-100666667D01*
X107747619Y-100704762D01*
X107709524Y-100742857D01*
X107671429Y-100819048D01*
X105309524Y-131261905D02*
X105309524Y-130461905D01*
X105500000Y-130461905D01*
X105614286Y-130500000D01*
X105690477Y-130576190D01*
X105728572Y-130652381D01*
X105766667Y-130804762D01*
X105766667Y-130919048D01*
X105728572Y-131071429D01*
X105690477Y-131147619D01*
X105614286Y-131223810D01*
X105500000Y-131261905D01*
X105309524Y-131261905D01*
X106528572Y-131261905D02*
X106071429Y-131261905D01*
X106300000Y-131261905D02*
X106300000Y-130461905D01*
X106223810Y-130576190D01*
X106147619Y-130652381D01*
X106071429Y-130690476D01*
X101909524Y-104861905D02*
X101909524Y-104061905D01*
X102100000Y-104061905D01*
X102214286Y-104100000D01*
X102290477Y-104176190D01*
X102328572Y-104252381D01*
X102366667Y-104404762D01*
X102366667Y-104519048D01*
X102328572Y-104671429D01*
X102290477Y-104747619D01*
X102214286Y-104823810D01*
X102100000Y-104861905D01*
X101909524Y-104861905D01*
X102671429Y-104138095D02*
X102709524Y-104100000D01*
X102785715Y-104061905D01*
X102976191Y-104061905D01*
X103052381Y-104100000D01*
X103090477Y-104138095D01*
X103128572Y-104214286D01*
X103128572Y-104290476D01*
X103090477Y-104404762D01*
X102633334Y-104861905D01*
X103128572Y-104861905D01*
X109409524Y-92161905D02*
X109409524Y-91361905D01*
X109600000Y-91361905D01*
X109714286Y-91400000D01*
X109790477Y-91476190D01*
X109828572Y-91552381D01*
X109866667Y-91704762D01*
X109866667Y-91819048D01*
X109828572Y-91971429D01*
X109790477Y-92047619D01*
X109714286Y-92123810D01*
X109600000Y-92161905D01*
X109409524Y-92161905D01*
X110133334Y-91361905D02*
X110628572Y-91361905D01*
X110361905Y-91666667D01*
X110476191Y-91666667D01*
X110552381Y-91704762D01*
X110590477Y-91742857D01*
X110628572Y-91819048D01*
X110628572Y-92009524D01*
X110590477Y-92085714D01*
X110552381Y-92123810D01*
X110476191Y-92161905D01*
X110247619Y-92161905D01*
X110171429Y-92123810D01*
X110133334Y-92085714D01*
X118409524Y-131461905D02*
X118409524Y-130661905D01*
X118600000Y-130661905D01*
X118714286Y-130700000D01*
X118790477Y-130776190D01*
X118828572Y-130852381D01*
X118866667Y-131004762D01*
X118866667Y-131119048D01*
X118828572Y-131271429D01*
X118790477Y-131347619D01*
X118714286Y-131423810D01*
X118600000Y-131461905D01*
X118409524Y-131461905D01*
X119552381Y-130928571D02*
X119552381Y-131461905D01*
X119361905Y-130623810D02*
X119171429Y-131195238D01*
X119666667Y-131195238D01*
X129609524Y-104961905D02*
X129609524Y-104161905D01*
X129800000Y-104161905D01*
X129914286Y-104200000D01*
X129990477Y-104276190D01*
X130028572Y-104352381D01*
X130066667Y-104504762D01*
X130066667Y-104619048D01*
X130028572Y-104771429D01*
X129990477Y-104847619D01*
X129914286Y-104923810D01*
X129800000Y-104961905D01*
X129609524Y-104961905D01*
X130790477Y-104161905D02*
X130409524Y-104161905D01*
X130371429Y-104542857D01*
X130409524Y-104504762D01*
X130485715Y-104466667D01*
X130676191Y-104466667D01*
X130752381Y-104504762D01*
X130790477Y-104542857D01*
X130828572Y-104619048D01*
X130828572Y-104809524D01*
X130790477Y-104885714D01*
X130752381Y-104923810D01*
X130676191Y-104961905D01*
X130485715Y-104961905D01*
X130409524Y-104923810D01*
X130371429Y-104885714D01*
X114409524Y-92261905D02*
X114409524Y-91461905D01*
X114600000Y-91461905D01*
X114714286Y-91500000D01*
X114790477Y-91576190D01*
X114828572Y-91652381D01*
X114866667Y-91804762D01*
X114866667Y-91919048D01*
X114828572Y-92071429D01*
X114790477Y-92147619D01*
X114714286Y-92223810D01*
X114600000Y-92261905D01*
X114409524Y-92261905D01*
X115552381Y-91461905D02*
X115400000Y-91461905D01*
X115323810Y-91500000D01*
X115285715Y-91538095D01*
X115209524Y-91652381D01*
X115171429Y-91804762D01*
X115171429Y-92109524D01*
X115209524Y-92185714D01*
X115247619Y-92223810D01*
X115323810Y-92261905D01*
X115476191Y-92261905D01*
X115552381Y-92223810D01*
X115590477Y-92185714D01*
X115628572Y-92109524D01*
X115628572Y-91919048D01*
X115590477Y-91842857D01*
X115552381Y-91804762D01*
X115476191Y-91766667D01*
X115323810Y-91766667D01*
X115247619Y-91804762D01*
X115209524Y-91842857D01*
X115171429Y-91919048D01*
X120566667Y-116361905D02*
X120300000Y-115980952D01*
X120109524Y-116361905D02*
X120109524Y-115561905D01*
X120414286Y-115561905D01*
X120490477Y-115600000D01*
X120528572Y-115638095D01*
X120566667Y-115714286D01*
X120566667Y-115828571D01*
X120528572Y-115904762D01*
X120490477Y-115942857D01*
X120414286Y-115980952D01*
X120109524Y-115980952D01*
X120871429Y-115638095D02*
X120909524Y-115600000D01*
X120985715Y-115561905D01*
X121176191Y-115561905D01*
X121252381Y-115600000D01*
X121290477Y-115638095D01*
X121328572Y-115714286D01*
X121328572Y-115790476D01*
X121290477Y-115904762D01*
X120833334Y-116361905D01*
X121328572Y-116361905D01*
X124266667Y-116361905D02*
X124000000Y-115980952D01*
X123809524Y-116361905D02*
X123809524Y-115561905D01*
X124114286Y-115561905D01*
X124190477Y-115600000D01*
X124228572Y-115638095D01*
X124266667Y-115714286D01*
X124266667Y-115828571D01*
X124228572Y-115904762D01*
X124190477Y-115942857D01*
X124114286Y-115980952D01*
X123809524Y-115980952D01*
X124533334Y-115561905D02*
X125028572Y-115561905D01*
X124761905Y-115866667D01*
X124876191Y-115866667D01*
X124952381Y-115904762D01*
X124990477Y-115942857D01*
X125028572Y-116019048D01*
X125028572Y-116209524D01*
X124990477Y-116285714D01*
X124952381Y-116323810D01*
X124876191Y-116361905D01*
X124647619Y-116361905D01*
X124571429Y-116323810D01*
X124533334Y-116285714D01*
X120966667Y-111861905D02*
X120700000Y-111480952D01*
X120509524Y-111861905D02*
X120509524Y-111061905D01*
X120814286Y-111061905D01*
X120890477Y-111100000D01*
X120928572Y-111138095D01*
X120966667Y-111214286D01*
X120966667Y-111328571D01*
X120928572Y-111404762D01*
X120890477Y-111442857D01*
X120814286Y-111480952D01*
X120509524Y-111480952D01*
X121652381Y-111328571D02*
X121652381Y-111861905D01*
X121461905Y-111023810D02*
X121271429Y-111595238D01*
X121766667Y-111595238D01*
X99966667Y-116361905D02*
X99700000Y-115980952D01*
X99509524Y-116361905D02*
X99509524Y-115561905D01*
X99814286Y-115561905D01*
X99890477Y-115600000D01*
X99928572Y-115638095D01*
X99966667Y-115714286D01*
X99966667Y-115828571D01*
X99928572Y-115904762D01*
X99890477Y-115942857D01*
X99814286Y-115980952D01*
X99509524Y-115980952D01*
X100690477Y-115561905D02*
X100309524Y-115561905D01*
X100271429Y-115942857D01*
X100309524Y-115904762D01*
X100385715Y-115866667D01*
X100576191Y-115866667D01*
X100652381Y-115904762D01*
X100690477Y-115942857D01*
X100728572Y-116019048D01*
X100728572Y-116209524D01*
X100690477Y-116285714D01*
X100652381Y-116323810D01*
X100576191Y-116361905D01*
X100385715Y-116361905D01*
X100309524Y-116323810D01*
X100271429Y-116285714D01*
X100866667Y-95261905D02*
X100600000Y-94880952D01*
X100409524Y-95261905D02*
X100409524Y-94461905D01*
X100714286Y-94461905D01*
X100790477Y-94500000D01*
X100828572Y-94538095D01*
X100866667Y-94614286D01*
X100866667Y-94728571D01*
X100828572Y-94804762D01*
X100790477Y-94842857D01*
X100714286Y-94880952D01*
X100409524Y-94880952D01*
X101552381Y-94461905D02*
X101400000Y-94461905D01*
X101323810Y-94500000D01*
X101285715Y-94538095D01*
X101209524Y-94652381D01*
X101171429Y-94804762D01*
X101171429Y-95109524D01*
X101209524Y-95185714D01*
X101247619Y-95223810D01*
X101323810Y-95261905D01*
X101476191Y-95261905D01*
X101552381Y-95223810D01*
X101590477Y-95185714D01*
X101628572Y-95109524D01*
X101628572Y-94919048D01*
X101590477Y-94842857D01*
X101552381Y-94804762D01*
X101476191Y-94766667D01*
X101323810Y-94766667D01*
X101247619Y-94804762D01*
X101209524Y-94842857D01*
X101171429Y-94919048D01*
X105266667Y-93261905D02*
X105000000Y-92880952D01*
X104809524Y-93261905D02*
X104809524Y-92461905D01*
X105114286Y-92461905D01*
X105190477Y-92500000D01*
X105228572Y-92538095D01*
X105266667Y-92614286D01*
X105266667Y-92728571D01*
X105228572Y-92804762D01*
X105190477Y-92842857D01*
X105114286Y-92880952D01*
X104809524Y-92880952D01*
X105533334Y-92461905D02*
X106066667Y-92461905D01*
X105723810Y-93261905D01*
X128366667Y-116361905D02*
X128100000Y-115980952D01*
X127909524Y-116361905D02*
X127909524Y-115561905D01*
X128214286Y-115561905D01*
X128290477Y-115600000D01*
X128328572Y-115638095D01*
X128366667Y-115714286D01*
X128366667Y-115828571D01*
X128328572Y-115904762D01*
X128290477Y-115942857D01*
X128214286Y-115980952D01*
X127909524Y-115980952D01*
X128823810Y-115904762D02*
X128747619Y-115866667D01*
X128709524Y-115828571D01*
X128671429Y-115752381D01*
X128671429Y-115714286D01*
X128709524Y-115638095D01*
X128747619Y-115600000D01*
X128823810Y-115561905D01*
X128976191Y-115561905D01*
X129052381Y-115600000D01*
X129090477Y-115638095D01*
X129128572Y-115714286D01*
X129128572Y-115752381D01*
X129090477Y-115828571D01*
X129052381Y-115866667D01*
X128976191Y-115904762D01*
X128823810Y-115904762D01*
X128747619Y-115942857D01*
X128709524Y-115980952D01*
X128671429Y-116057143D01*
X128671429Y-116209524D01*
X128709524Y-116285714D01*
X128747619Y-116323810D01*
X128823810Y-116361905D01*
X128976191Y-116361905D01*
X129052381Y-116323810D01*
X129090477Y-116285714D01*
X129128572Y-116209524D01*
X129128572Y-116057143D01*
X129090477Y-115980952D01*
X129052381Y-115942857D01*
X128976191Y-115904762D01*
X118866667Y-100261905D02*
X118600000Y-99880952D01*
X118409524Y-100261905D02*
X118409524Y-99461905D01*
X118714286Y-99461905D01*
X118790477Y-99500000D01*
X118828572Y-99538095D01*
X118866667Y-99614286D01*
X118866667Y-99728571D01*
X118828572Y-99804762D01*
X118790477Y-99842857D01*
X118714286Y-99880952D01*
X118409524Y-99880952D01*
X119247619Y-100261905D02*
X119400000Y-100261905D01*
X119476191Y-100223810D01*
X119514286Y-100185714D01*
X119590477Y-100071429D01*
X119628572Y-99919048D01*
X119628572Y-99614286D01*
X119590477Y-99538095D01*
X119552381Y-99500000D01*
X119476191Y-99461905D01*
X119323810Y-99461905D01*
X119247619Y-99500000D01*
X119209524Y-99538095D01*
X119171429Y-99614286D01*
X119171429Y-99804762D01*
X119209524Y-99880952D01*
X119247619Y-99919048D01*
X119323810Y-99957143D01*
X119476191Y-99957143D01*
X119552381Y-99919048D01*
X119590477Y-99880952D01*
X119628572Y-99804762D01*
X118685714Y-93261905D02*
X118419047Y-92880952D01*
X118228571Y-93261905D02*
X118228571Y-92461905D01*
X118533333Y-92461905D01*
X118609524Y-92500000D01*
X118647619Y-92538095D01*
X118685714Y-92614286D01*
X118685714Y-92728571D01*
X118647619Y-92804762D01*
X118609524Y-92842857D01*
X118533333Y-92880952D01*
X118228571Y-92880952D01*
X119447619Y-93261905D02*
X118990476Y-93261905D01*
X119219047Y-93261905D02*
X119219047Y-92461905D01*
X119142857Y-92576190D01*
X119066666Y-92652381D01*
X118990476Y-92690476D01*
X119942857Y-92461905D02*
X120019048Y-92461905D01*
X120095238Y-92500000D01*
X120133333Y-92538095D01*
X120171429Y-92614286D01*
X120209524Y-92766667D01*
X120209524Y-92957143D01*
X120171429Y-93109524D01*
X120133333Y-93185714D01*
X120095238Y-93223810D01*
X120019048Y-93261905D01*
X119942857Y-93261905D01*
X119866667Y-93223810D01*
X119828571Y-93185714D01*
X119790476Y-93109524D01*
X119752381Y-92957143D01*
X119752381Y-92766667D01*
X119790476Y-92614286D01*
X119828571Y-92538095D01*
X119866667Y-92500000D01*
X119942857Y-92461905D01*
X107185714Y-116761905D02*
X106919047Y-116380952D01*
X106728571Y-116761905D02*
X106728571Y-115961905D01*
X107033333Y-115961905D01*
X107109524Y-116000000D01*
X107147619Y-116038095D01*
X107185714Y-116114286D01*
X107185714Y-116228571D01*
X107147619Y-116304762D01*
X107109524Y-116342857D01*
X107033333Y-116380952D01*
X106728571Y-116380952D01*
X107947619Y-116761905D02*
X107490476Y-116761905D01*
X107719047Y-116761905D02*
X107719047Y-115961905D01*
X107642857Y-116076190D01*
X107566666Y-116152381D01*
X107490476Y-116190476D01*
X108709524Y-116761905D02*
X108252381Y-116761905D01*
X108480952Y-116761905D02*
X108480952Y-115961905D01*
X108404762Y-116076190D01*
X108328571Y-116152381D01*
X108252381Y-116190476D01*
D13*
X107585714Y-113942857D02*
X107585714Y-114914286D01*
X107642857Y-115028571D01*
X107700000Y-115085714D01*
X107814286Y-115142857D01*
X108042857Y-115142857D01*
X108157143Y-115085714D01*
X108214286Y-115028571D01*
X108271429Y-114914286D01*
X108271429Y-113942857D01*
X109471429Y-115142857D02*
X108785714Y-115142857D01*
X109128572Y-115142857D02*
X109128572Y-113942857D01*
X109014286Y-114114286D01*
X108900000Y-114228571D01*
X108785714Y-114285714D01*
M02*
