G04 #@! TF.FileFunction,Soldermask,Top*
%FSLAX46Y46*%
G04 Gerber Fmt 4.6, Leading zero omitted, Abs format (unit mm)*
G04 Created by KiCad (PCBNEW (2014-11-29 BZR 5307)-product) date 2/1/2015 9:55:14 PM*
%MOMM*%
G01*
G04 APERTURE LIST*
%ADD10C,0.150000*%
%ADD11R,1.600000X0.350000*%
%ADD12R,1.000000X1.250000*%
%ADD13R,1.000000X1.600000*%
%ADD14R,1.250000X1.000000*%
%ADD15R,1.200000X1.200000*%
%ADD16R,1.300000X0.700000*%
%ADD17R,0.700000X1.300000*%
%ADD18R,0.550000X1.145000*%
%ADD19R,1.145000X0.550000*%
G04 APERTURE END LIST*
D10*
D11*
X109200000Y-102550000D03*
X109200000Y-103200000D03*
X109200000Y-103850000D03*
X109200000Y-104500000D03*
X109200000Y-105150000D03*
X109200000Y-105800000D03*
X109200000Y-106450000D03*
X114800000Y-102550000D03*
X114800000Y-103200000D03*
X114800000Y-103850000D03*
X114800000Y-104500000D03*
X114800000Y-105150000D03*
X114800000Y-105800000D03*
X114800000Y-106450000D03*
D12*
X108500000Y-108950000D03*
X110500000Y-108950000D03*
X115500000Y-112500000D03*
X113500000Y-112500000D03*
D13*
X111500000Y-99000000D03*
X114500000Y-99000000D03*
X108000000Y-112075000D03*
X111000000Y-112075000D03*
D14*
X120000000Y-105000000D03*
X120000000Y-103000000D03*
D12*
X108500000Y-99000000D03*
X106500000Y-99000000D03*
D15*
X103300000Y-133000000D03*
X105700000Y-133000000D03*
X99000000Y-103300000D03*
X99000000Y-105700000D03*
X108800000Y-90000000D03*
X111200000Y-90000000D03*
X121700000Y-133000000D03*
X119300000Y-133000000D03*
X126000000Y-103300000D03*
X126000000Y-105700000D03*
X116200000Y-90000000D03*
X113800000Y-90000000D03*
D16*
X119000000Y-115050000D03*
X119000000Y-116950000D03*
X122500000Y-115050000D03*
X122500000Y-116950000D03*
X119000000Y-112450000D03*
X119000000Y-110550000D03*
X102010000Y-115050000D03*
X102010000Y-116950000D03*
D17*
X101950000Y-96500000D03*
X100050000Y-96500000D03*
D16*
X103500000Y-93850000D03*
X103500000Y-91950000D03*
X126600000Y-115050000D03*
X126600000Y-116950000D03*
D17*
X118050000Y-98000000D03*
X119950000Y-98000000D03*
D16*
X121500000Y-93850000D03*
X121500000Y-91950000D03*
X105480000Y-115110000D03*
X105480000Y-117010000D03*
D18*
X114500000Y-115902500D03*
X113700000Y-115902500D03*
X112900000Y-115902500D03*
X112100000Y-115902500D03*
X111300000Y-115902500D03*
X110500000Y-115902500D03*
X114500000Y-118097500D03*
X113700000Y-118097500D03*
X112900000Y-118097500D03*
X112100000Y-118097500D03*
X111300000Y-118097500D03*
X110500000Y-118097500D03*
D19*
X110400000Y-117000000D03*
X114600000Y-117000000D03*
M02*
