M48
;DRILL file {kicad (2014-11-29 BZR 5307)-product} date 2/1/2015 9:55:31 PM
;FORMAT={-:-/ absolute / metric / decimal}
FMAT,2
METRIC,TZ
T1C0.600
%
G90
G05
M71
T1
X96.6Y-119.2
X97.3Y-104.75
X98.55Y-115.625
X99.31Y-119.18
X101.05Y-104.5
X103.Y-129.
X103.25Y-106.2
X105.Y-119.
X105.Y-127.7
X105.04Y-106.27
X106.15Y-96.75
X106.9Y-134.45
X106.975Y-107.575
X109.Y-97.5
X109.5Y-121.
X110.9Y-97.4
X111.05Y-106.225
X111.075Y-104.85
X111.3Y-114.55
X112.275Y-108.975
X112.325Y-111.175
X112.5Y-88.2
X112.671Y-96.5
X115.9Y-100.85
X116.5Y-98.9
X116.5Y-113.9
X116.5Y-119.1
X116.5Y-121.
X116.5Y-129.1
X117.1Y-104.
X117.15Y-102.675
X117.45Y-109.15
X117.5Y-117.
X118.1Y-134.45
X118.7Y-119.2
X119.1Y-96.2
X120.Y-108.5
X120.Y-125.1
X120.8Y-118.1
X121.5Y-110.4
X123.Y-110.5
X123.15Y-100.25
X124.4Y-101.45
X124.43Y-111.96
X126.95Y-107.75
X127.7Y-104.6
T0
M30
