G04 #@! TF.FileFunction,Legend,Bot*
%FSLAX46Y46*%
G04 Gerber Fmt 4.6, Leading zero omitted, Abs format (unit mm)*
G04 Created by KiCad (PCBNEW (2014-11-29 BZR 5307)-product) date 2/1/2015 9:55:14 PM*
%MOMM*%
G01*
G04 APERTURE LIST*
%ADD10C,0.150000*%
%ADD11C,0.350000*%
%ADD12C,0.250000*%
%ADD13C,0.002540*%
G04 APERTURE END LIST*
D10*
X111071429Y-87775000D02*
X111166667Y-87727381D01*
X111309524Y-87727381D01*
X111452382Y-87775000D01*
X111547620Y-87870238D01*
X111595239Y-87965476D01*
X111642858Y-88155952D01*
X111642858Y-88298810D01*
X111595239Y-88489286D01*
X111547620Y-88584524D01*
X111452382Y-88679762D01*
X111309524Y-88727381D01*
X111214286Y-88727381D01*
X111071429Y-88679762D01*
X111023810Y-88632143D01*
X111023810Y-88298810D01*
X111214286Y-88298810D01*
X110166667Y-88727381D02*
X110166667Y-88203571D01*
X110214286Y-88108333D01*
X110309524Y-88060714D01*
X110500001Y-88060714D01*
X110595239Y-88108333D01*
X110166667Y-88679762D02*
X110261905Y-88727381D01*
X110500001Y-88727381D01*
X110595239Y-88679762D01*
X110642858Y-88584524D01*
X110642858Y-88489286D01*
X110595239Y-88394048D01*
X110500001Y-88346429D01*
X110261905Y-88346429D01*
X110166667Y-88298810D01*
X109547620Y-88727381D02*
X109642858Y-88679762D01*
X109690477Y-88584524D01*
X109690477Y-87727381D01*
X109166667Y-88727381D02*
X109166667Y-88060714D01*
X109166667Y-87727381D02*
X109214286Y-87775000D01*
X109166667Y-87822619D01*
X109119048Y-87775000D01*
X109166667Y-87727381D01*
X109166667Y-87822619D01*
X108642858Y-87727381D02*
X108738096Y-87917857D01*
X108261906Y-88679762D02*
X108166668Y-88727381D01*
X107976192Y-88727381D01*
X107880953Y-88679762D01*
X107833334Y-88584524D01*
X107833334Y-88536905D01*
X107880953Y-88441667D01*
X107976192Y-88394048D01*
X108119049Y-88394048D01*
X108214287Y-88346429D01*
X108261906Y-88251190D01*
X108261906Y-88203571D01*
X108214287Y-88108333D01*
X108119049Y-88060714D01*
X107976192Y-88060714D01*
X107880953Y-88108333D01*
X106642858Y-88727381D02*
X106642858Y-87727381D01*
X106071429Y-88727381D01*
X106071429Y-87727381D01*
X105214286Y-88679762D02*
X105309524Y-88727381D01*
X105500001Y-88727381D01*
X105595239Y-88679762D01*
X105642858Y-88584524D01*
X105642858Y-88203571D01*
X105595239Y-88108333D01*
X105500001Y-88060714D01*
X105309524Y-88060714D01*
X105214286Y-88108333D01*
X105166667Y-88203571D01*
X105166667Y-88298810D01*
X105642858Y-88394048D01*
X104309524Y-88679762D02*
X104404762Y-88727381D01*
X104595239Y-88727381D01*
X104690477Y-88679762D01*
X104738096Y-88632143D01*
X104785715Y-88536905D01*
X104785715Y-88251190D01*
X104738096Y-88155952D01*
X104690477Y-88108333D01*
X104595239Y-88060714D01*
X104404762Y-88060714D01*
X104309524Y-88108333D01*
X103880953Y-88727381D02*
X103880953Y-87727381D01*
X103785715Y-88346429D02*
X103500000Y-88727381D01*
X103500000Y-88060714D02*
X103880953Y-88441667D01*
X102928572Y-88727381D02*
X103023810Y-88679762D01*
X103071429Y-88584524D01*
X103071429Y-87727381D01*
X102119047Y-88727381D02*
X102119047Y-88203571D01*
X102166666Y-88108333D01*
X102261904Y-88060714D01*
X102452381Y-88060714D01*
X102547619Y-88108333D01*
X102119047Y-88679762D02*
X102214285Y-88727381D01*
X102452381Y-88727381D01*
X102547619Y-88679762D01*
X102595238Y-88584524D01*
X102595238Y-88489286D01*
X102547619Y-88394048D01*
X102452381Y-88346429D01*
X102214285Y-88346429D01*
X102119047Y-88298810D01*
X101214285Y-88679762D02*
X101309523Y-88727381D01*
X101500000Y-88727381D01*
X101595238Y-88679762D01*
X101642857Y-88632143D01*
X101690476Y-88536905D01*
X101690476Y-88251190D01*
X101642857Y-88155952D01*
X101595238Y-88108333D01*
X101500000Y-88060714D01*
X101309523Y-88060714D01*
X101214285Y-88108333D01*
X100404761Y-88679762D02*
X100499999Y-88727381D01*
X100690476Y-88727381D01*
X100785714Y-88679762D01*
X100833333Y-88584524D01*
X100833333Y-88203571D01*
X100785714Y-88108333D01*
X100690476Y-88060714D01*
X100499999Y-88060714D01*
X100404761Y-88108333D01*
X100357142Y-88203571D01*
X100357142Y-88298810D01*
X100833333Y-88394048D01*
X107142857Y-89277381D02*
X106809524Y-90277381D01*
X106476190Y-89277381D01*
X105619047Y-90277381D02*
X106190476Y-90277381D01*
X105904762Y-90277381D02*
X105904762Y-89277381D01*
X106000000Y-89420238D01*
X106095238Y-89515476D01*
X106190476Y-89563095D01*
X105190476Y-90182143D02*
X105142857Y-90229762D01*
X105190476Y-90277381D01*
X105238095Y-90229762D01*
X105190476Y-90182143D01*
X105190476Y-90277381D01*
X104523810Y-89277381D02*
X104428571Y-89277381D01*
X104333333Y-89325000D01*
X104285714Y-89372619D01*
X104238095Y-89467857D01*
X104190476Y-89658333D01*
X104190476Y-89896429D01*
X104238095Y-90086905D01*
X104285714Y-90182143D01*
X104333333Y-90229762D01*
X104428571Y-90277381D01*
X104523810Y-90277381D01*
X104619048Y-90229762D01*
X104666667Y-90182143D01*
X104714286Y-90086905D01*
X104761905Y-89896429D01*
X104761905Y-89658333D01*
X104714286Y-89467857D01*
X104666667Y-89372619D01*
X104619048Y-89325000D01*
X104523810Y-89277381D01*
X108095238Y-91065476D02*
X108190476Y-91017857D01*
X108380952Y-91017857D01*
X108476190Y-91065476D01*
X108571428Y-91160714D01*
X108619047Y-91255952D01*
X108619047Y-91446429D01*
X108571428Y-91541667D01*
X108476190Y-91636905D01*
X108380952Y-91684524D01*
X108190476Y-91684524D01*
X108095238Y-91636905D01*
X108285714Y-90684524D02*
X108523809Y-90732143D01*
X108761905Y-90875000D01*
X108904762Y-91113095D01*
X108952381Y-91351190D01*
X108904762Y-91589286D01*
X108761905Y-91827381D01*
X108523809Y-91970238D01*
X108285714Y-92017857D01*
X108047619Y-91970238D01*
X107809524Y-91827381D01*
X107666667Y-91589286D01*
X107619047Y-91351190D01*
X107666667Y-91113095D01*
X107809524Y-90875000D01*
X108047619Y-90732143D01*
X108285714Y-90684524D01*
X106476190Y-90922619D02*
X106428571Y-90875000D01*
X106333333Y-90827381D01*
X106095237Y-90827381D01*
X105999999Y-90875000D01*
X105952380Y-90922619D01*
X105904761Y-91017857D01*
X105904761Y-91113095D01*
X105952380Y-91255952D01*
X106523809Y-91827381D01*
X105904761Y-91827381D01*
X105285714Y-90827381D02*
X105190475Y-90827381D01*
X105095237Y-90875000D01*
X105047618Y-90922619D01*
X104999999Y-91017857D01*
X104952380Y-91208333D01*
X104952380Y-91446429D01*
X104999999Y-91636905D01*
X105047618Y-91732143D01*
X105095237Y-91779762D01*
X105190475Y-91827381D01*
X105285714Y-91827381D01*
X105380952Y-91779762D01*
X105428571Y-91732143D01*
X105476190Y-91636905D01*
X105523809Y-91446429D01*
X105523809Y-91208333D01*
X105476190Y-91017857D01*
X105428571Y-90922619D01*
X105380952Y-90875000D01*
X105285714Y-90827381D01*
X103999999Y-91827381D02*
X104571428Y-91827381D01*
X104285714Y-91827381D02*
X104285714Y-90827381D01*
X104380952Y-90970238D01*
X104476190Y-91065476D01*
X104571428Y-91113095D01*
X103095237Y-90827381D02*
X103571428Y-90827381D01*
X103619047Y-91303571D01*
X103571428Y-91255952D01*
X103476190Y-91208333D01*
X103238094Y-91208333D01*
X103142856Y-91255952D01*
X103095237Y-91303571D01*
X103047618Y-91398810D01*
X103047618Y-91636905D01*
X103095237Y-91732143D01*
X103142856Y-91779762D01*
X103238094Y-91827381D01*
X103476190Y-91827381D01*
X103571428Y-91779762D01*
X103619047Y-91732143D01*
X108976190Y-93377381D02*
X108976190Y-92377381D01*
X108404761Y-93377381D01*
X108404761Y-92377381D01*
X107928571Y-93377381D02*
X107928571Y-92710714D01*
X107928571Y-92377381D02*
X107976190Y-92425000D01*
X107928571Y-92472619D01*
X107880952Y-92425000D01*
X107928571Y-92377381D01*
X107928571Y-92472619D01*
X107023809Y-92710714D02*
X107023809Y-93520238D01*
X107071428Y-93615476D01*
X107119047Y-93663095D01*
X107214286Y-93710714D01*
X107357143Y-93710714D01*
X107452381Y-93663095D01*
X107023809Y-93329762D02*
X107119047Y-93377381D01*
X107309524Y-93377381D01*
X107404762Y-93329762D01*
X107452381Y-93282143D01*
X107500000Y-93186905D01*
X107500000Y-92901190D01*
X107452381Y-92805952D01*
X107404762Y-92758333D01*
X107309524Y-92710714D01*
X107119047Y-92710714D01*
X107023809Y-92758333D01*
X106547619Y-93377381D02*
X106547619Y-92377381D01*
X106119047Y-93377381D02*
X106119047Y-92853571D01*
X106166666Y-92758333D01*
X106261904Y-92710714D01*
X106404762Y-92710714D01*
X106500000Y-92758333D01*
X106547619Y-92805952D01*
X105785714Y-92710714D02*
X105404762Y-92710714D01*
X105642857Y-92377381D02*
X105642857Y-93234524D01*
X105595238Y-93329762D01*
X105500000Y-93377381D01*
X105404762Y-93377381D01*
X105071428Y-93377381D02*
X105071428Y-92710714D01*
X105071428Y-92805952D02*
X105023809Y-92758333D01*
X104928571Y-92710714D01*
X104785713Y-92710714D01*
X104690475Y-92758333D01*
X104642856Y-92853571D01*
X104642856Y-93377381D01*
X104642856Y-92853571D02*
X104595237Y-92758333D01*
X104499999Y-92710714D01*
X104357142Y-92710714D01*
X104261904Y-92758333D01*
X104214285Y-92853571D01*
X104214285Y-93377381D01*
X103357142Y-93329762D02*
X103452380Y-93377381D01*
X103642857Y-93377381D01*
X103738095Y-93329762D01*
X103785714Y-93234524D01*
X103785714Y-92853571D01*
X103738095Y-92758333D01*
X103642857Y-92710714D01*
X103452380Y-92710714D01*
X103357142Y-92758333D01*
X103309523Y-92853571D01*
X103309523Y-92948810D01*
X103785714Y-93044048D01*
X102452380Y-93329762D02*
X102547618Y-93377381D01*
X102738095Y-93377381D01*
X102833333Y-93329762D01*
X102880952Y-93282143D01*
X102928571Y-93186905D01*
X102928571Y-92901190D01*
X102880952Y-92805952D01*
X102833333Y-92758333D01*
X102738095Y-92710714D01*
X102547618Y-92710714D01*
X102452380Y-92758333D01*
X102023809Y-93377381D02*
X102023809Y-92377381D01*
X101595237Y-93377381D02*
X101595237Y-92853571D01*
X101642856Y-92758333D01*
X101738094Y-92710714D01*
X101880952Y-92710714D01*
X101976190Y-92758333D01*
X102023809Y-92805952D01*
X100690475Y-93377381D02*
X100690475Y-92853571D01*
X100738094Y-92758333D01*
X100833332Y-92710714D01*
X101023809Y-92710714D01*
X101119047Y-92758333D01*
X100690475Y-93329762D02*
X100785713Y-93377381D01*
X101023809Y-93377381D01*
X101119047Y-93329762D01*
X101166666Y-93234524D01*
X101166666Y-93139286D01*
X101119047Y-93044048D01*
X101023809Y-92996429D01*
X100785713Y-92996429D01*
X100690475Y-92948810D01*
X100214285Y-92710714D02*
X100214285Y-93377381D01*
X100214285Y-92805952D02*
X100166666Y-92758333D01*
X100071428Y-92710714D01*
X99928570Y-92710714D01*
X99833332Y-92758333D01*
X99785713Y-92853571D01*
X99785713Y-93377381D01*
X99309523Y-93377381D02*
X99309523Y-92710714D01*
X99309523Y-92377381D02*
X99357142Y-92425000D01*
X99309523Y-92472619D01*
X99261904Y-92425000D01*
X99309523Y-92377381D01*
X99309523Y-92472619D01*
X98404761Y-93329762D02*
X98499999Y-93377381D01*
X98690476Y-93377381D01*
X98785714Y-93329762D01*
X98833333Y-93282143D01*
X98880952Y-93186905D01*
X98880952Y-92901190D01*
X98833333Y-92805952D01*
X98785714Y-92758333D01*
X98690476Y-92710714D01*
X98499999Y-92710714D01*
X98404761Y-92758333D01*
X117300000Y-123100000D02*
X119000000Y-123100000D01*
X119000000Y-123100000D02*
X119000000Y-119900000D01*
X119000000Y-119900000D02*
X122900000Y-119900000D01*
X122900000Y-119900000D02*
X122900000Y-133100000D01*
X122900000Y-133100000D02*
X119000000Y-133100000D01*
X119000000Y-133100000D02*
X119000000Y-132100000D01*
X116800000Y-124000000D02*
X116300000Y-123500000D01*
X116300000Y-123500000D02*
X116300000Y-124500000D01*
X116300000Y-124500000D02*
X116800000Y-124000000D01*
X122436879Y-89181088D02*
G75*
G03X122436879Y-89181088I-1421268J0D01*
G01*
D11*
X120308505Y-89888194D02*
X121722718Y-88473981D01*
D10*
X104331964Y-117712846D02*
G75*
G03X104331964Y-117712846I-1382931J0D01*
G01*
D11*
X103656140Y-118419953D02*
X102241926Y-117005740D01*
X102241926Y-118419953D02*
X103656140Y-117005740D01*
D10*
X112353553Y-91408474D02*
X110232233Y-93529794D01*
X124091526Y-103146447D02*
X121934850Y-105303122D01*
X117444722Y-92681266D02*
X119707464Y-90418525D01*
X119707464Y-90418525D02*
X120273149Y-90984210D01*
X122818734Y-98055278D02*
X125081475Y-95792536D01*
X125081475Y-95792536D02*
X124515790Y-95226851D01*
X112362399Y-91393858D02*
G75*
G02X117444722Y-92681266I-362399J-12106142D01*
G01*
X124106142Y-103137601D02*
G75*
G03X122818734Y-98055278I-12106142J-362399D01*
G01*
X99908474Y-103853553D02*
X102065150Y-101696878D01*
X101181266Y-108944722D02*
X98918525Y-111207464D01*
X98918525Y-111207464D02*
X99484210Y-111773149D01*
X99893858Y-103862399D02*
G75*
G03X101181266Y-108944722I12106142J362399D01*
G01*
X111646447Y-115591526D02*
X113767767Y-113470206D01*
X106555278Y-114318734D02*
X104292536Y-116581475D01*
X104292536Y-116581475D02*
X103726851Y-116015790D01*
X111637601Y-115606142D02*
G75*
G02X106555278Y-114318734I362399J12106142D01*
G01*
X122100495Y-103500000D02*
G75*
G03X122100495Y-103500000I-10100495J0D01*
G01*
X98900000Y-116625000D02*
X97700000Y-116625000D01*
X97700000Y-118375000D02*
X98900000Y-118375000D01*
X129050000Y-117450000D02*
X129050000Y-118200000D01*
X129050000Y-118200000D02*
X128150000Y-118200000D01*
X128100000Y-115100000D02*
X129050000Y-115100000D01*
X129050000Y-115100000D02*
X129050000Y-115850000D01*
X123550000Y-115850000D02*
X123550000Y-115100000D01*
X123550000Y-115100000D02*
X124650000Y-115100000D01*
D12*
X124700000Y-118200000D02*
X123550000Y-118200000D01*
X123550000Y-118200000D02*
X123550000Y-117450000D01*
D10*
X107700000Y-129900000D02*
X106000000Y-129900000D01*
X106000000Y-129900000D02*
X106000000Y-133100000D01*
X106000000Y-133100000D02*
X102100000Y-133100000D01*
X102100000Y-133100000D02*
X102100000Y-119900000D01*
X102100000Y-119900000D02*
X106000000Y-119900000D01*
X106000000Y-119900000D02*
X106000000Y-120900000D01*
X108200000Y-129000000D02*
X108700000Y-129500000D01*
X108700000Y-129500000D02*
X108700000Y-128500000D01*
X108700000Y-128500000D02*
X108200000Y-129000000D01*
D13*
G36*
X101920140Y-98637640D02*
X102014120Y-98388720D01*
X102105560Y-98137260D01*
X102191920Y-98114400D01*
X102230020Y-98101700D01*
X102270660Y-98089000D01*
X102321460Y-98071220D01*
X102387500Y-98045820D01*
X102471320Y-98010260D01*
X102552600Y-97977240D01*
X102570380Y-97972160D01*
X102593240Y-97972160D01*
X102623720Y-97979780D01*
X102664360Y-97995020D01*
X102725320Y-98022960D01*
X102809140Y-98061060D01*
X102834540Y-98071220D01*
X102913280Y-98109320D01*
X102984400Y-98142340D01*
X103040280Y-98165200D01*
X103078380Y-98180440D01*
X103088540Y-98185520D01*
X103103780Y-98172820D01*
X103139340Y-98144880D01*
X103185060Y-98099160D01*
X103243480Y-98043280D01*
X103294280Y-97992480D01*
X103484780Y-97801980D01*
X103367940Y-97553060D01*
X103251100Y-97306680D01*
X103261260Y-97286360D01*
X101633120Y-97286360D01*
X101493420Y-97271120D01*
X101330860Y-97230480D01*
X101183540Y-97164440D01*
X101056540Y-97075540D01*
X100944780Y-96971400D01*
X100855880Y-96852020D01*
X100787300Y-96722480D01*
X100739040Y-96582780D01*
X100713640Y-96435460D01*
X100713640Y-96288140D01*
X100736500Y-96138280D01*
X100784760Y-95993500D01*
X100860960Y-95853800D01*
X100962560Y-95724260D01*
X100985420Y-95698860D01*
X101114960Y-95589640D01*
X101254660Y-95508360D01*
X101401980Y-95455020D01*
X101554380Y-95427080D01*
X101706780Y-95424540D01*
X101856640Y-95447400D01*
X102001420Y-95495660D01*
X102138580Y-95566780D01*
X102260500Y-95660760D01*
X102369720Y-95777600D01*
X102461160Y-95917300D01*
X102484020Y-95960480D01*
X102542440Y-96117960D01*
X102570380Y-96280520D01*
X102565300Y-96445620D01*
X102532280Y-96615800D01*
X102524660Y-96638660D01*
X102463700Y-96785980D01*
X102374800Y-96923140D01*
X102263040Y-97042520D01*
X102133500Y-97141580D01*
X101991260Y-97215240D01*
X101948080Y-97233020D01*
X101788060Y-97273660D01*
X101633120Y-97286360D01*
X103261260Y-97286360D01*
X103319680Y-97161900D01*
X103355240Y-97088240D01*
X103390800Y-97009500D01*
X103416200Y-96940920D01*
X103423820Y-96918060D01*
X103459380Y-96816460D01*
X103723540Y-96725020D01*
X103987700Y-96633580D01*
X103987700Y-96354180D01*
X103987700Y-96247500D01*
X103985160Y-96166220D01*
X103982620Y-96112880D01*
X103975000Y-96079860D01*
X103969920Y-96067160D01*
X103967380Y-96067160D01*
X103947060Y-96059540D01*
X103901340Y-96044300D01*
X103837840Y-96021440D01*
X103761640Y-95996040D01*
X103705760Y-95975720D01*
X103464460Y-95891900D01*
X103436520Y-95815700D01*
X103418740Y-95769980D01*
X103390800Y-95706480D01*
X103357780Y-95632820D01*
X103327300Y-95571860D01*
X103248560Y-95401680D01*
X103329840Y-95226420D01*
X103365400Y-95150220D01*
X103398420Y-95076560D01*
X103428900Y-95015600D01*
X103446680Y-94977500D01*
X103479700Y-94901300D01*
X103281580Y-94705720D01*
X103086000Y-94510140D01*
X102842160Y-94626980D01*
X102595780Y-94743820D01*
X102451000Y-94670160D01*
X102377340Y-94634600D01*
X102298600Y-94601580D01*
X102230020Y-94573640D01*
X102207160Y-94563480D01*
X102105560Y-94530460D01*
X102011580Y-94263760D01*
X101920140Y-93997060D01*
X101638200Y-93999600D01*
X101358800Y-94004680D01*
X101335940Y-94068180D01*
X101292760Y-94197720D01*
X101257200Y-94301860D01*
X101226720Y-94383140D01*
X101203860Y-94444100D01*
X101186080Y-94487280D01*
X101170840Y-94515220D01*
X101155600Y-94533000D01*
X101142900Y-94543160D01*
X101125120Y-94548240D01*
X101120040Y-94550780D01*
X101087020Y-94560940D01*
X101033680Y-94583800D01*
X100967640Y-94611740D01*
X100891440Y-94649840D01*
X100881280Y-94654920D01*
X100690780Y-94748900D01*
X100444400Y-94632060D01*
X100198020Y-94515220D01*
X99999900Y-94710800D01*
X99804320Y-94906380D01*
X99918620Y-95150220D01*
X99956720Y-95228960D01*
X99989740Y-95300080D01*
X100015140Y-95355960D01*
X100030380Y-95394060D01*
X100035460Y-95406760D01*
X100027840Y-95427080D01*
X100010060Y-95467720D01*
X99987200Y-95521060D01*
X99979580Y-95533760D01*
X99946560Y-95607420D01*
X99916080Y-95693780D01*
X99890680Y-95764900D01*
X99855120Y-95886820D01*
X99674780Y-95952860D01*
X99596040Y-95980800D01*
X99522380Y-96008740D01*
X99461420Y-96031600D01*
X99425860Y-96044300D01*
X99354740Y-96072240D01*
X99349660Y-96351640D01*
X99347120Y-96633580D01*
X99466500Y-96676760D01*
X99545240Y-96704700D01*
X99631600Y-96737720D01*
X99712880Y-96765660D01*
X99717960Y-96768200D01*
X99850040Y-96816460D01*
X99893220Y-96951080D01*
X99918620Y-97029820D01*
X99951640Y-97113640D01*
X99982120Y-97184760D01*
X99984660Y-97194920D01*
X100035460Y-97304140D01*
X99918620Y-97553060D01*
X99799240Y-97799440D01*
X99989740Y-97992480D01*
X100053240Y-98055980D01*
X100109120Y-98109320D01*
X100154840Y-98149960D01*
X100185320Y-98177900D01*
X100195480Y-98185520D01*
X100213260Y-98177900D01*
X100253900Y-98160120D01*
X100312320Y-98132180D01*
X100385980Y-98099160D01*
X100452020Y-98066140D01*
X100693320Y-97949300D01*
X100797460Y-98000100D01*
X100863500Y-98028040D01*
X100942240Y-98061060D01*
X101023520Y-98091540D01*
X101041300Y-98096620D01*
X101178460Y-98144880D01*
X101267360Y-98386180D01*
X101358800Y-98630020D01*
X101640740Y-98635100D01*
X101920140Y-98637640D01*
X101920140Y-98637640D01*
X101920140Y-98637640D01*
G37*
X101920140Y-98637640D02*
X102014120Y-98388720D01*
X102105560Y-98137260D01*
X102191920Y-98114400D01*
X102230020Y-98101700D01*
X102270660Y-98089000D01*
X102321460Y-98071220D01*
X102387500Y-98045820D01*
X102471320Y-98010260D01*
X102552600Y-97977240D01*
X102570380Y-97972160D01*
X102593240Y-97972160D01*
X102623720Y-97979780D01*
X102664360Y-97995020D01*
X102725320Y-98022960D01*
X102809140Y-98061060D01*
X102834540Y-98071220D01*
X102913280Y-98109320D01*
X102984400Y-98142340D01*
X103040280Y-98165200D01*
X103078380Y-98180440D01*
X103088540Y-98185520D01*
X103103780Y-98172820D01*
X103139340Y-98144880D01*
X103185060Y-98099160D01*
X103243480Y-98043280D01*
X103294280Y-97992480D01*
X103484780Y-97801980D01*
X103367940Y-97553060D01*
X103251100Y-97306680D01*
X103261260Y-97286360D01*
X101633120Y-97286360D01*
X101493420Y-97271120D01*
X101330860Y-97230480D01*
X101183540Y-97164440D01*
X101056540Y-97075540D01*
X100944780Y-96971400D01*
X100855880Y-96852020D01*
X100787300Y-96722480D01*
X100739040Y-96582780D01*
X100713640Y-96435460D01*
X100713640Y-96288140D01*
X100736500Y-96138280D01*
X100784760Y-95993500D01*
X100860960Y-95853800D01*
X100962560Y-95724260D01*
X100985420Y-95698860D01*
X101114960Y-95589640D01*
X101254660Y-95508360D01*
X101401980Y-95455020D01*
X101554380Y-95427080D01*
X101706780Y-95424540D01*
X101856640Y-95447400D01*
X102001420Y-95495660D01*
X102138580Y-95566780D01*
X102260500Y-95660760D01*
X102369720Y-95777600D01*
X102461160Y-95917300D01*
X102484020Y-95960480D01*
X102542440Y-96117960D01*
X102570380Y-96280520D01*
X102565300Y-96445620D01*
X102532280Y-96615800D01*
X102524660Y-96638660D01*
X102463700Y-96785980D01*
X102374800Y-96923140D01*
X102263040Y-97042520D01*
X102133500Y-97141580D01*
X101991260Y-97215240D01*
X101948080Y-97233020D01*
X101788060Y-97273660D01*
X101633120Y-97286360D01*
X103261260Y-97286360D01*
X103319680Y-97161900D01*
X103355240Y-97088240D01*
X103390800Y-97009500D01*
X103416200Y-96940920D01*
X103423820Y-96918060D01*
X103459380Y-96816460D01*
X103723540Y-96725020D01*
X103987700Y-96633580D01*
X103987700Y-96354180D01*
X103987700Y-96247500D01*
X103985160Y-96166220D01*
X103982620Y-96112880D01*
X103975000Y-96079860D01*
X103969920Y-96067160D01*
X103967380Y-96067160D01*
X103947060Y-96059540D01*
X103901340Y-96044300D01*
X103837840Y-96021440D01*
X103761640Y-95996040D01*
X103705760Y-95975720D01*
X103464460Y-95891900D01*
X103436520Y-95815700D01*
X103418740Y-95769980D01*
X103390800Y-95706480D01*
X103357780Y-95632820D01*
X103327300Y-95571860D01*
X103248560Y-95401680D01*
X103329840Y-95226420D01*
X103365400Y-95150220D01*
X103398420Y-95076560D01*
X103428900Y-95015600D01*
X103446680Y-94977500D01*
X103479700Y-94901300D01*
X103281580Y-94705720D01*
X103086000Y-94510140D01*
X102842160Y-94626980D01*
X102595780Y-94743820D01*
X102451000Y-94670160D01*
X102377340Y-94634600D01*
X102298600Y-94601580D01*
X102230020Y-94573640D01*
X102207160Y-94563480D01*
X102105560Y-94530460D01*
X102011580Y-94263760D01*
X101920140Y-93997060D01*
X101638200Y-93999600D01*
X101358800Y-94004680D01*
X101335940Y-94068180D01*
X101292760Y-94197720D01*
X101257200Y-94301860D01*
X101226720Y-94383140D01*
X101203860Y-94444100D01*
X101186080Y-94487280D01*
X101170840Y-94515220D01*
X101155600Y-94533000D01*
X101142900Y-94543160D01*
X101125120Y-94548240D01*
X101120040Y-94550780D01*
X101087020Y-94560940D01*
X101033680Y-94583800D01*
X100967640Y-94611740D01*
X100891440Y-94649840D01*
X100881280Y-94654920D01*
X100690780Y-94748900D01*
X100444400Y-94632060D01*
X100198020Y-94515220D01*
X99999900Y-94710800D01*
X99804320Y-94906380D01*
X99918620Y-95150220D01*
X99956720Y-95228960D01*
X99989740Y-95300080D01*
X100015140Y-95355960D01*
X100030380Y-95394060D01*
X100035460Y-95406760D01*
X100027840Y-95427080D01*
X100010060Y-95467720D01*
X99987200Y-95521060D01*
X99979580Y-95533760D01*
X99946560Y-95607420D01*
X99916080Y-95693780D01*
X99890680Y-95764900D01*
X99855120Y-95886820D01*
X99674780Y-95952860D01*
X99596040Y-95980800D01*
X99522380Y-96008740D01*
X99461420Y-96031600D01*
X99425860Y-96044300D01*
X99354740Y-96072240D01*
X99349660Y-96351640D01*
X99347120Y-96633580D01*
X99466500Y-96676760D01*
X99545240Y-96704700D01*
X99631600Y-96737720D01*
X99712880Y-96765660D01*
X99717960Y-96768200D01*
X99850040Y-96816460D01*
X99893220Y-96951080D01*
X99918620Y-97029820D01*
X99951640Y-97113640D01*
X99982120Y-97184760D01*
X99984660Y-97194920D01*
X100035460Y-97304140D01*
X99918620Y-97553060D01*
X99799240Y-97799440D01*
X99989740Y-97992480D01*
X100053240Y-98055980D01*
X100109120Y-98109320D01*
X100154840Y-98149960D01*
X100185320Y-98177900D01*
X100195480Y-98185520D01*
X100213260Y-98177900D01*
X100253900Y-98160120D01*
X100312320Y-98132180D01*
X100385980Y-98099160D01*
X100452020Y-98066140D01*
X100693320Y-97949300D01*
X100797460Y-98000100D01*
X100863500Y-98028040D01*
X100942240Y-98061060D01*
X101023520Y-98091540D01*
X101041300Y-98096620D01*
X101178460Y-98144880D01*
X101267360Y-98386180D01*
X101358800Y-98630020D01*
X101640740Y-98635100D01*
X101920140Y-98637640D01*
X101920140Y-98637640D01*
G36*
X99268380Y-100430880D02*
X99410620Y-100372460D01*
X99552860Y-100314040D01*
X99550320Y-100156560D01*
X99547780Y-99999080D01*
X99654460Y-99894940D01*
X99761140Y-99788260D01*
X99893220Y-99793340D01*
X99956720Y-99793340D01*
X100010060Y-99798420D01*
X100045620Y-99800960D01*
X100050700Y-99800960D01*
X100063400Y-99798420D01*
X100076100Y-99780640D01*
X100096420Y-99745080D01*
X100121820Y-99689200D01*
X100129440Y-99673960D01*
X98922940Y-99673960D01*
X98808640Y-99663800D01*
X98696880Y-99630780D01*
X98595280Y-99569820D01*
X98519080Y-99501240D01*
X98445420Y-99407260D01*
X98402240Y-99308200D01*
X98381920Y-99198980D01*
X98381920Y-99115160D01*
X98397160Y-99003400D01*
X98430180Y-98906880D01*
X98488600Y-98823060D01*
X98557180Y-98749400D01*
X98658780Y-98675740D01*
X98762920Y-98630020D01*
X98869600Y-98612240D01*
X98973740Y-98614780D01*
X99075340Y-98640180D01*
X99171860Y-98685900D01*
X99255680Y-98749400D01*
X99329340Y-98825600D01*
X99385220Y-98914500D01*
X99423320Y-99013560D01*
X99438560Y-99122780D01*
X99428400Y-99234540D01*
X99392840Y-99353920D01*
X99387760Y-99366620D01*
X99321720Y-99473300D01*
X99240440Y-99557120D01*
X99141380Y-99620620D01*
X99034700Y-99658720D01*
X98922940Y-99673960D01*
X100129440Y-99673960D01*
X100154840Y-99607920D01*
X100185320Y-99534260D01*
X100177700Y-99516480D01*
X100149760Y-99486000D01*
X100106580Y-99445360D01*
X100076100Y-99419960D01*
X99959260Y-99323440D01*
X99961800Y-99183740D01*
X99964340Y-99044040D01*
X100076100Y-98929740D01*
X100124360Y-98881480D01*
X100162460Y-98840840D01*
X100185320Y-98810360D01*
X100187860Y-98800200D01*
X100182780Y-98779880D01*
X100167540Y-98739240D01*
X100147220Y-98680820D01*
X100131980Y-98640180D01*
X100076100Y-98495400D01*
X99921160Y-98497940D01*
X99766220Y-98503020D01*
X99657000Y-98393800D01*
X99547780Y-98287120D01*
X99552860Y-98129640D01*
X99557940Y-97972160D01*
X99413160Y-97911200D01*
X99265840Y-97852780D01*
X99184560Y-97941680D01*
X99143920Y-97989940D01*
X99108360Y-98033120D01*
X99085500Y-98058520D01*
X99085500Y-98061060D01*
X99070260Y-98076300D01*
X99047400Y-98083920D01*
X99009300Y-98089000D01*
X98948340Y-98091540D01*
X98912780Y-98091540D01*
X98760380Y-98091540D01*
X98651160Y-97974700D01*
X98541940Y-97855320D01*
X98402240Y-97916280D01*
X98260000Y-97974700D01*
X98265080Y-98127100D01*
X98270160Y-98279500D01*
X98158400Y-98391260D01*
X98046640Y-98503020D01*
X97889160Y-98503020D01*
X97731680Y-98505560D01*
X97675800Y-98642720D01*
X97619920Y-98782420D01*
X97734220Y-98886560D01*
X97845980Y-98988160D01*
X97848520Y-99143100D01*
X97851060Y-99295500D01*
X97739300Y-99392020D01*
X97693580Y-99437740D01*
X97655480Y-99475840D01*
X97632620Y-99503780D01*
X97630080Y-99511400D01*
X97635160Y-99536800D01*
X97650400Y-99582520D01*
X97673260Y-99638400D01*
X97683420Y-99661260D01*
X97736760Y-99785720D01*
X97891700Y-99783180D01*
X98046640Y-99780640D01*
X98158400Y-99892400D01*
X98272700Y-100004160D01*
X98262540Y-100154020D01*
X98252380Y-100306420D01*
X98387000Y-100362300D01*
X98447960Y-100387700D01*
X98498760Y-100405480D01*
X98531780Y-100418180D01*
X98539400Y-100418180D01*
X98557180Y-100408020D01*
X98590200Y-100377540D01*
X98630840Y-100334360D01*
X98656240Y-100308960D01*
X98755300Y-100199740D01*
X98907700Y-100199740D01*
X99057560Y-100199740D01*
X99164240Y-100316580D01*
X99268380Y-100430880D01*
X99268380Y-100430880D01*
X99268380Y-100430880D01*
G37*
X99268380Y-100430880D02*
X99410620Y-100372460D01*
X99552860Y-100314040D01*
X99550320Y-100156560D01*
X99547780Y-99999080D01*
X99654460Y-99894940D01*
X99761140Y-99788260D01*
X99893220Y-99793340D01*
X99956720Y-99793340D01*
X100010060Y-99798420D01*
X100045620Y-99800960D01*
X100050700Y-99800960D01*
X100063400Y-99798420D01*
X100076100Y-99780640D01*
X100096420Y-99745080D01*
X100121820Y-99689200D01*
X100129440Y-99673960D01*
X98922940Y-99673960D01*
X98808640Y-99663800D01*
X98696880Y-99630780D01*
X98595280Y-99569820D01*
X98519080Y-99501240D01*
X98445420Y-99407260D01*
X98402240Y-99308200D01*
X98381920Y-99198980D01*
X98381920Y-99115160D01*
X98397160Y-99003400D01*
X98430180Y-98906880D01*
X98488600Y-98823060D01*
X98557180Y-98749400D01*
X98658780Y-98675740D01*
X98762920Y-98630020D01*
X98869600Y-98612240D01*
X98973740Y-98614780D01*
X99075340Y-98640180D01*
X99171860Y-98685900D01*
X99255680Y-98749400D01*
X99329340Y-98825600D01*
X99385220Y-98914500D01*
X99423320Y-99013560D01*
X99438560Y-99122780D01*
X99428400Y-99234540D01*
X99392840Y-99353920D01*
X99387760Y-99366620D01*
X99321720Y-99473300D01*
X99240440Y-99557120D01*
X99141380Y-99620620D01*
X99034700Y-99658720D01*
X98922940Y-99673960D01*
X100129440Y-99673960D01*
X100154840Y-99607920D01*
X100185320Y-99534260D01*
X100177700Y-99516480D01*
X100149760Y-99486000D01*
X100106580Y-99445360D01*
X100076100Y-99419960D01*
X99959260Y-99323440D01*
X99961800Y-99183740D01*
X99964340Y-99044040D01*
X100076100Y-98929740D01*
X100124360Y-98881480D01*
X100162460Y-98840840D01*
X100185320Y-98810360D01*
X100187860Y-98800200D01*
X100182780Y-98779880D01*
X100167540Y-98739240D01*
X100147220Y-98680820D01*
X100131980Y-98640180D01*
X100076100Y-98495400D01*
X99921160Y-98497940D01*
X99766220Y-98503020D01*
X99657000Y-98393800D01*
X99547780Y-98287120D01*
X99552860Y-98129640D01*
X99557940Y-97972160D01*
X99413160Y-97911200D01*
X99265840Y-97852780D01*
X99184560Y-97941680D01*
X99143920Y-97989940D01*
X99108360Y-98033120D01*
X99085500Y-98058520D01*
X99085500Y-98061060D01*
X99070260Y-98076300D01*
X99047400Y-98083920D01*
X99009300Y-98089000D01*
X98948340Y-98091540D01*
X98912780Y-98091540D01*
X98760380Y-98091540D01*
X98651160Y-97974700D01*
X98541940Y-97855320D01*
X98402240Y-97916280D01*
X98260000Y-97974700D01*
X98265080Y-98127100D01*
X98270160Y-98279500D01*
X98158400Y-98391260D01*
X98046640Y-98503020D01*
X97889160Y-98503020D01*
X97731680Y-98505560D01*
X97675800Y-98642720D01*
X97619920Y-98782420D01*
X97734220Y-98886560D01*
X97845980Y-98988160D01*
X97848520Y-99143100D01*
X97851060Y-99295500D01*
X97739300Y-99392020D01*
X97693580Y-99437740D01*
X97655480Y-99475840D01*
X97632620Y-99503780D01*
X97630080Y-99511400D01*
X97635160Y-99536800D01*
X97650400Y-99582520D01*
X97673260Y-99638400D01*
X97683420Y-99661260D01*
X97736760Y-99785720D01*
X97891700Y-99783180D01*
X98046640Y-99780640D01*
X98158400Y-99892400D01*
X98272700Y-100004160D01*
X98262540Y-100154020D01*
X98252380Y-100306420D01*
X98387000Y-100362300D01*
X98447960Y-100387700D01*
X98498760Y-100405480D01*
X98531780Y-100418180D01*
X98539400Y-100418180D01*
X98557180Y-100408020D01*
X98590200Y-100377540D01*
X98630840Y-100334360D01*
X98656240Y-100308960D01*
X98755300Y-100199740D01*
X98907700Y-100199740D01*
X99057560Y-100199740D01*
X99164240Y-100316580D01*
X99268380Y-100430880D01*
X99268380Y-100430880D01*
G36*
X126114500Y-114593540D02*
X126193240Y-114593540D01*
X126271980Y-114593540D01*
X126271980Y-114557980D01*
X126271980Y-114291280D01*
X126271980Y-114237940D01*
X126388820Y-114237940D01*
X126462480Y-114240480D01*
X126515820Y-114245560D01*
X126553920Y-114253180D01*
X126581860Y-114265880D01*
X126602180Y-114286200D01*
X126609800Y-114301440D01*
X126622500Y-114329380D01*
X126622500Y-114349700D01*
X126614880Y-114375100D01*
X126614880Y-114377640D01*
X126586940Y-114415740D01*
X126564080Y-114430980D01*
X126531060Y-114438600D01*
X126487880Y-114443680D01*
X126439620Y-114446220D01*
X126391360Y-114443680D01*
X126353260Y-114441140D01*
X126332940Y-114433520D01*
X126305000Y-114408120D01*
X126284680Y-114367480D01*
X126271980Y-114316680D01*
X126271980Y-114291280D01*
X126271980Y-114557980D01*
X126271980Y-114532580D01*
X126274520Y-114519880D01*
X126274520Y-114519880D01*
X126284680Y-114527500D01*
X126302460Y-114542740D01*
X126312620Y-114550360D01*
X126343100Y-114573220D01*
X126383740Y-114588460D01*
X126411680Y-114593540D01*
X126449780Y-114598620D01*
X126477720Y-114603700D01*
X126503120Y-114601160D01*
X126533600Y-114598620D01*
X126556460Y-114593540D01*
X126625040Y-114573220D01*
X126686000Y-114540200D01*
X126721560Y-114504640D01*
X126754580Y-114448760D01*
X126772360Y-114385260D01*
X126772360Y-114319220D01*
X126757120Y-114258260D01*
X126726640Y-114202380D01*
X126680920Y-114156660D01*
X126663140Y-114146500D01*
X126642820Y-114133800D01*
X126625040Y-114126180D01*
X126602180Y-114121100D01*
X126574240Y-114116020D01*
X126536140Y-114113480D01*
X126480260Y-114110940D01*
X126444700Y-114110940D01*
X126277060Y-114105860D01*
X126271980Y-114055060D01*
X126274520Y-114001720D01*
X126287220Y-113963620D01*
X126315160Y-113935680D01*
X126355800Y-113920440D01*
X126414220Y-113912820D01*
X126447240Y-113910280D01*
X126492960Y-113912820D01*
X126523440Y-113915360D01*
X126548840Y-113925520D01*
X126569160Y-113938220D01*
X126589480Y-113950920D01*
X126607260Y-113956000D01*
X126622500Y-113953460D01*
X126645360Y-113940760D01*
X126675840Y-113915360D01*
X126686000Y-113907740D01*
X126736800Y-113869640D01*
X126701240Y-113836620D01*
X126665680Y-113806140D01*
X126630120Y-113785820D01*
X126584400Y-113773120D01*
X126546300Y-113762960D01*
X126467560Y-113755340D01*
X126388820Y-113757880D01*
X126315160Y-113770580D01*
X126249120Y-113793440D01*
X126195780Y-113826460D01*
X126172920Y-113849320D01*
X126157680Y-113869640D01*
X126144980Y-113887420D01*
X126134820Y-113910280D01*
X126127200Y-113935680D01*
X126122120Y-113971240D01*
X126117040Y-114014420D01*
X126114500Y-114070300D01*
X126114500Y-114141420D01*
X126114500Y-114230320D01*
X126114500Y-114283660D01*
X126114500Y-114593540D01*
X126114500Y-114593540D01*
X126114500Y-114593540D01*
G37*
X126114500Y-114593540D02*
X126193240Y-114593540D01*
X126271980Y-114593540D01*
X126271980Y-114557980D01*
X126271980Y-114291280D01*
X126271980Y-114237940D01*
X126388820Y-114237940D01*
X126462480Y-114240480D01*
X126515820Y-114245560D01*
X126553920Y-114253180D01*
X126581860Y-114265880D01*
X126602180Y-114286200D01*
X126609800Y-114301440D01*
X126622500Y-114329380D01*
X126622500Y-114349700D01*
X126614880Y-114375100D01*
X126614880Y-114377640D01*
X126586940Y-114415740D01*
X126564080Y-114430980D01*
X126531060Y-114438600D01*
X126487880Y-114443680D01*
X126439620Y-114446220D01*
X126391360Y-114443680D01*
X126353260Y-114441140D01*
X126332940Y-114433520D01*
X126305000Y-114408120D01*
X126284680Y-114367480D01*
X126271980Y-114316680D01*
X126271980Y-114291280D01*
X126271980Y-114557980D01*
X126271980Y-114532580D01*
X126274520Y-114519880D01*
X126274520Y-114519880D01*
X126284680Y-114527500D01*
X126302460Y-114542740D01*
X126312620Y-114550360D01*
X126343100Y-114573220D01*
X126383740Y-114588460D01*
X126411680Y-114593540D01*
X126449780Y-114598620D01*
X126477720Y-114603700D01*
X126503120Y-114601160D01*
X126533600Y-114598620D01*
X126556460Y-114593540D01*
X126625040Y-114573220D01*
X126686000Y-114540200D01*
X126721560Y-114504640D01*
X126754580Y-114448760D01*
X126772360Y-114385260D01*
X126772360Y-114319220D01*
X126757120Y-114258260D01*
X126726640Y-114202380D01*
X126680920Y-114156660D01*
X126663140Y-114146500D01*
X126642820Y-114133800D01*
X126625040Y-114126180D01*
X126602180Y-114121100D01*
X126574240Y-114116020D01*
X126536140Y-114113480D01*
X126480260Y-114110940D01*
X126444700Y-114110940D01*
X126277060Y-114105860D01*
X126271980Y-114055060D01*
X126274520Y-114001720D01*
X126287220Y-113963620D01*
X126315160Y-113935680D01*
X126355800Y-113920440D01*
X126414220Y-113912820D01*
X126447240Y-113910280D01*
X126492960Y-113912820D01*
X126523440Y-113915360D01*
X126548840Y-113925520D01*
X126569160Y-113938220D01*
X126589480Y-113950920D01*
X126607260Y-113956000D01*
X126622500Y-113953460D01*
X126645360Y-113940760D01*
X126675840Y-113915360D01*
X126686000Y-113907740D01*
X126736800Y-113869640D01*
X126701240Y-113836620D01*
X126665680Y-113806140D01*
X126630120Y-113785820D01*
X126584400Y-113773120D01*
X126546300Y-113762960D01*
X126467560Y-113755340D01*
X126388820Y-113757880D01*
X126315160Y-113770580D01*
X126249120Y-113793440D01*
X126195780Y-113826460D01*
X126172920Y-113849320D01*
X126157680Y-113869640D01*
X126144980Y-113887420D01*
X126134820Y-113910280D01*
X126127200Y-113935680D01*
X126122120Y-113971240D01*
X126117040Y-114014420D01*
X126114500Y-114070300D01*
X126114500Y-114141420D01*
X126114500Y-114230320D01*
X126114500Y-114283660D01*
X126114500Y-114593540D01*
X126114500Y-114593540D01*
G36*
X124694640Y-114593540D02*
X124773380Y-114593540D01*
X124852120Y-114593540D01*
X124852120Y-114552900D01*
X124854660Y-114522420D01*
X124862280Y-114512260D01*
X124862280Y-114184600D01*
X124862280Y-114113480D01*
X124867360Y-114060140D01*
X124877520Y-114019500D01*
X124890220Y-113986480D01*
X124913080Y-113961080D01*
X124920700Y-113953460D01*
X124963880Y-113930600D01*
X125014680Y-113917900D01*
X125068020Y-113922980D01*
X125118820Y-113940760D01*
X125146760Y-113963620D01*
X125167080Y-113994100D01*
X125179780Y-114037280D01*
X125187400Y-114095700D01*
X125189940Y-114169360D01*
X125189940Y-114176980D01*
X125187400Y-114230320D01*
X125184860Y-114278580D01*
X125182320Y-114316680D01*
X125177240Y-114337000D01*
X125156920Y-114375100D01*
X125126440Y-114408120D01*
X125098500Y-114425900D01*
X125060400Y-114436060D01*
X125012140Y-114436060D01*
X124966420Y-114425900D01*
X124938480Y-114415740D01*
X124908000Y-114390340D01*
X124885140Y-114354780D01*
X124869900Y-114309060D01*
X124862280Y-114245560D01*
X124862280Y-114184600D01*
X124862280Y-114512260D01*
X124862280Y-114512260D01*
X124877520Y-114519880D01*
X124887680Y-114530040D01*
X124923240Y-114557980D01*
X124974040Y-114578300D01*
X125032460Y-114593540D01*
X125090880Y-114598620D01*
X125134060Y-114593540D01*
X125200100Y-114570680D01*
X125258520Y-114532580D01*
X125304240Y-114479240D01*
X125337260Y-114418280D01*
X125337260Y-114410660D01*
X125344880Y-114380180D01*
X125347420Y-114329380D01*
X125349960Y-114258260D01*
X125349960Y-114169360D01*
X125349960Y-114169360D01*
X125349960Y-114098240D01*
X125349960Y-114044900D01*
X125347420Y-114006800D01*
X125344880Y-113976320D01*
X125339800Y-113953460D01*
X125334720Y-113933140D01*
X125327100Y-113912820D01*
X125286460Y-113849320D01*
X125235660Y-113803600D01*
X125169620Y-113773120D01*
X125108660Y-113757880D01*
X125042620Y-113757880D01*
X124979120Y-113775660D01*
X124915620Y-113811220D01*
X124885140Y-113831540D01*
X124864820Y-113844240D01*
X124857200Y-113846780D01*
X124854660Y-113839160D01*
X124854660Y-113811220D01*
X124852120Y-113768040D01*
X124852120Y-113712160D01*
X124852120Y-113651200D01*
X124852120Y-113638500D01*
X124852120Y-113427680D01*
X124773380Y-113427680D01*
X124694640Y-113427680D01*
X124694640Y-114011880D01*
X124694640Y-114593540D01*
X124694640Y-114593540D01*
X124694640Y-114593540D01*
G37*
X124694640Y-114593540D02*
X124773380Y-114593540D01*
X124852120Y-114593540D01*
X124852120Y-114552900D01*
X124854660Y-114522420D01*
X124862280Y-114512260D01*
X124862280Y-114184600D01*
X124862280Y-114113480D01*
X124867360Y-114060140D01*
X124877520Y-114019500D01*
X124890220Y-113986480D01*
X124913080Y-113961080D01*
X124920700Y-113953460D01*
X124963880Y-113930600D01*
X125014680Y-113917900D01*
X125068020Y-113922980D01*
X125118820Y-113940760D01*
X125146760Y-113963620D01*
X125167080Y-113994100D01*
X125179780Y-114037280D01*
X125187400Y-114095700D01*
X125189940Y-114169360D01*
X125189940Y-114176980D01*
X125187400Y-114230320D01*
X125184860Y-114278580D01*
X125182320Y-114316680D01*
X125177240Y-114337000D01*
X125156920Y-114375100D01*
X125126440Y-114408120D01*
X125098500Y-114425900D01*
X125060400Y-114436060D01*
X125012140Y-114436060D01*
X124966420Y-114425900D01*
X124938480Y-114415740D01*
X124908000Y-114390340D01*
X124885140Y-114354780D01*
X124869900Y-114309060D01*
X124862280Y-114245560D01*
X124862280Y-114184600D01*
X124862280Y-114512260D01*
X124862280Y-114512260D01*
X124877520Y-114519880D01*
X124887680Y-114530040D01*
X124923240Y-114557980D01*
X124974040Y-114578300D01*
X125032460Y-114593540D01*
X125090880Y-114598620D01*
X125134060Y-114593540D01*
X125200100Y-114570680D01*
X125258520Y-114532580D01*
X125304240Y-114479240D01*
X125337260Y-114418280D01*
X125337260Y-114410660D01*
X125344880Y-114380180D01*
X125347420Y-114329380D01*
X125349960Y-114258260D01*
X125349960Y-114169360D01*
X125349960Y-114169360D01*
X125349960Y-114098240D01*
X125349960Y-114044900D01*
X125347420Y-114006800D01*
X125344880Y-113976320D01*
X125339800Y-113953460D01*
X125334720Y-113933140D01*
X125327100Y-113912820D01*
X125286460Y-113849320D01*
X125235660Y-113803600D01*
X125169620Y-113773120D01*
X125108660Y-113757880D01*
X125042620Y-113757880D01*
X124979120Y-113775660D01*
X124915620Y-113811220D01*
X124885140Y-113831540D01*
X124864820Y-113844240D01*
X124857200Y-113846780D01*
X124854660Y-113839160D01*
X124854660Y-113811220D01*
X124852120Y-113768040D01*
X124852120Y-113712160D01*
X124852120Y-113651200D01*
X124852120Y-113638500D01*
X124852120Y-113427680D01*
X124773380Y-113427680D01*
X124694640Y-113427680D01*
X124694640Y-114011880D01*
X124694640Y-114593540D01*
X124694640Y-114593540D01*
G36*
X122738840Y-114593540D02*
X122822660Y-114593540D01*
X122906480Y-114593540D01*
X122906480Y-114303980D01*
X122906480Y-114235400D01*
X123043640Y-114237940D01*
X123099520Y-114240480D01*
X123142700Y-114243020D01*
X123170640Y-114248100D01*
X123188420Y-114253180D01*
X123203660Y-114260800D01*
X123208740Y-114263340D01*
X123239220Y-114298900D01*
X123249380Y-114337000D01*
X123244300Y-114375100D01*
X123221440Y-114408120D01*
X123190960Y-114428440D01*
X123155400Y-114441140D01*
X123104600Y-114446220D01*
X123051260Y-114446220D01*
X123003000Y-114441140D01*
X122964900Y-114433520D01*
X122936960Y-114415740D01*
X122919180Y-114395420D01*
X122909020Y-114362400D01*
X122906480Y-114314140D01*
X122906480Y-114303980D01*
X122906480Y-114593540D01*
X122906480Y-114555440D01*
X122909020Y-114514800D01*
X122926800Y-114540200D01*
X122952200Y-114560520D01*
X122982680Y-114578300D01*
X122982680Y-114578300D01*
X123020780Y-114588460D01*
X123071580Y-114596080D01*
X123122380Y-114598620D01*
X123165560Y-114598620D01*
X123239220Y-114578300D01*
X123305260Y-114545280D01*
X123353520Y-114497020D01*
X123384000Y-114446220D01*
X123396700Y-114397960D01*
X123401780Y-114339540D01*
X123394160Y-114286200D01*
X123384000Y-114250640D01*
X123358600Y-114202380D01*
X123320500Y-114164280D01*
X123269700Y-114136340D01*
X123246840Y-114126180D01*
X123223980Y-114118560D01*
X123198580Y-114116020D01*
X123165560Y-114113480D01*
X123119840Y-114110940D01*
X123061420Y-114110940D01*
X122906480Y-114110940D01*
X122906480Y-114039820D01*
X122909020Y-113999180D01*
X122911560Y-113973780D01*
X122921720Y-113956000D01*
X122934420Y-113940760D01*
X122947120Y-113930600D01*
X122962360Y-113922980D01*
X122985220Y-113917900D01*
X123018240Y-113917900D01*
X123066500Y-113915360D01*
X123069040Y-113915360D01*
X123119840Y-113917900D01*
X123152860Y-113917900D01*
X123175720Y-113922980D01*
X123190960Y-113930600D01*
X123203660Y-113940760D01*
X123223980Y-113956000D01*
X123236680Y-113963620D01*
X123236680Y-113963620D01*
X123249380Y-113958540D01*
X123272240Y-113940760D01*
X123300180Y-113920440D01*
X123325580Y-113897580D01*
X123345900Y-113877260D01*
X123353520Y-113867100D01*
X123353520Y-113864560D01*
X123345900Y-113851860D01*
X123323040Y-113831540D01*
X123292560Y-113808680D01*
X123259540Y-113788360D01*
X123226520Y-113775660D01*
X123218900Y-113773120D01*
X123178260Y-113765500D01*
X123127460Y-113760420D01*
X123066500Y-113760420D01*
X123005540Y-113762960D01*
X122952200Y-113768040D01*
X122911560Y-113775660D01*
X122909020Y-113778200D01*
X122845520Y-113811220D01*
X122797260Y-113854400D01*
X122769320Y-113897580D01*
X122761700Y-113912820D01*
X122756620Y-113928060D01*
X122751540Y-113943300D01*
X122749000Y-113966160D01*
X122746460Y-113996640D01*
X122743920Y-114034740D01*
X122743920Y-114088080D01*
X122741380Y-114154120D01*
X122741380Y-114237940D01*
X122741380Y-114270960D01*
X122738840Y-114593540D01*
X122738840Y-114593540D01*
X122738840Y-114593540D01*
G37*
X122738840Y-114593540D02*
X122822660Y-114593540D01*
X122906480Y-114593540D01*
X122906480Y-114303980D01*
X122906480Y-114235400D01*
X123043640Y-114237940D01*
X123099520Y-114240480D01*
X123142700Y-114243020D01*
X123170640Y-114248100D01*
X123188420Y-114253180D01*
X123203660Y-114260800D01*
X123208740Y-114263340D01*
X123239220Y-114298900D01*
X123249380Y-114337000D01*
X123244300Y-114375100D01*
X123221440Y-114408120D01*
X123190960Y-114428440D01*
X123155400Y-114441140D01*
X123104600Y-114446220D01*
X123051260Y-114446220D01*
X123003000Y-114441140D01*
X122964900Y-114433520D01*
X122936960Y-114415740D01*
X122919180Y-114395420D01*
X122909020Y-114362400D01*
X122906480Y-114314140D01*
X122906480Y-114303980D01*
X122906480Y-114593540D01*
X122906480Y-114555440D01*
X122909020Y-114514800D01*
X122926800Y-114540200D01*
X122952200Y-114560520D01*
X122982680Y-114578300D01*
X122982680Y-114578300D01*
X123020780Y-114588460D01*
X123071580Y-114596080D01*
X123122380Y-114598620D01*
X123165560Y-114598620D01*
X123239220Y-114578300D01*
X123305260Y-114545280D01*
X123353520Y-114497020D01*
X123384000Y-114446220D01*
X123396700Y-114397960D01*
X123401780Y-114339540D01*
X123394160Y-114286200D01*
X123384000Y-114250640D01*
X123358600Y-114202380D01*
X123320500Y-114164280D01*
X123269700Y-114136340D01*
X123246840Y-114126180D01*
X123223980Y-114118560D01*
X123198580Y-114116020D01*
X123165560Y-114113480D01*
X123119840Y-114110940D01*
X123061420Y-114110940D01*
X122906480Y-114110940D01*
X122906480Y-114039820D01*
X122909020Y-113999180D01*
X122911560Y-113973780D01*
X122921720Y-113956000D01*
X122934420Y-113940760D01*
X122947120Y-113930600D01*
X122962360Y-113922980D01*
X122985220Y-113917900D01*
X123018240Y-113917900D01*
X123066500Y-113915360D01*
X123069040Y-113915360D01*
X123119840Y-113917900D01*
X123152860Y-113917900D01*
X123175720Y-113922980D01*
X123190960Y-113930600D01*
X123203660Y-113940760D01*
X123223980Y-113956000D01*
X123236680Y-113963620D01*
X123236680Y-113963620D01*
X123249380Y-113958540D01*
X123272240Y-113940760D01*
X123300180Y-113920440D01*
X123325580Y-113897580D01*
X123345900Y-113877260D01*
X123353520Y-113867100D01*
X123353520Y-113864560D01*
X123345900Y-113851860D01*
X123323040Y-113831540D01*
X123292560Y-113808680D01*
X123259540Y-113788360D01*
X123226520Y-113775660D01*
X123218900Y-113773120D01*
X123178260Y-113765500D01*
X123127460Y-113760420D01*
X123066500Y-113760420D01*
X123005540Y-113762960D01*
X122952200Y-113768040D01*
X122911560Y-113775660D01*
X122909020Y-113778200D01*
X122845520Y-113811220D01*
X122797260Y-113854400D01*
X122769320Y-113897580D01*
X122761700Y-113912820D01*
X122756620Y-113928060D01*
X122751540Y-113943300D01*
X122749000Y-113966160D01*
X122746460Y-113996640D01*
X122743920Y-114034740D01*
X122743920Y-114088080D01*
X122741380Y-114154120D01*
X122741380Y-114237940D01*
X122741380Y-114270960D01*
X122738840Y-114593540D01*
X122738840Y-114593540D01*
G36*
X121298660Y-114237940D02*
X121466300Y-114237940D01*
X121466300Y-114110940D01*
X121466300Y-114080460D01*
X121473920Y-114042360D01*
X121494240Y-113999180D01*
X121522180Y-113961080D01*
X121550120Y-113935680D01*
X121585680Y-113917900D01*
X121628860Y-113910280D01*
X121641560Y-113910280D01*
X121702520Y-113917900D01*
X121748240Y-113938220D01*
X121781260Y-113971240D01*
X121796500Y-113999180D01*
X121809200Y-114032200D01*
X121816820Y-114067760D01*
X121821900Y-114093160D01*
X121819360Y-114100780D01*
X121806660Y-114103320D01*
X121776180Y-114108400D01*
X121730460Y-114108400D01*
X121672040Y-114110940D01*
X121639020Y-114110940D01*
X121466300Y-114110940D01*
X121466300Y-114237940D01*
X121562820Y-114237940D01*
X121644100Y-114237940D01*
X121710140Y-114237940D01*
X121755860Y-114237940D01*
X121788880Y-114240480D01*
X121811740Y-114245560D01*
X121821900Y-114253180D01*
X121824440Y-114265880D01*
X121821900Y-114281120D01*
X121816820Y-114301440D01*
X121814280Y-114311600D01*
X121788880Y-114364940D01*
X121750780Y-114405580D01*
X121699980Y-114433520D01*
X121644100Y-114446220D01*
X121580600Y-114443680D01*
X121519640Y-114423360D01*
X121486620Y-114405580D01*
X121433280Y-114372560D01*
X121377400Y-114420820D01*
X121321520Y-114469080D01*
X121367240Y-114509720D01*
X121430740Y-114552900D01*
X121506940Y-114583380D01*
X121590760Y-114598620D01*
X121672040Y-114596080D01*
X121692360Y-114593540D01*
X121773640Y-114570680D01*
X121844760Y-114532580D01*
X121900640Y-114476700D01*
X121941280Y-114405580D01*
X121969220Y-114321760D01*
X121981920Y-114220160D01*
X121981920Y-114182060D01*
X121974300Y-114077920D01*
X121953980Y-113986480D01*
X121918420Y-113907740D01*
X121867620Y-113844240D01*
X121806660Y-113798520D01*
X121778720Y-113783280D01*
X121717760Y-113765500D01*
X121646640Y-113757880D01*
X121575520Y-113762960D01*
X121512020Y-113780740D01*
X121504400Y-113783280D01*
X121433280Y-113826460D01*
X121377400Y-113882340D01*
X121336760Y-113956000D01*
X121311360Y-114042360D01*
X121298660Y-114146500D01*
X121298660Y-114176980D01*
X121298660Y-114237940D01*
X121298660Y-114237940D01*
X121298660Y-114237940D01*
G37*
X121298660Y-114237940D02*
X121466300Y-114237940D01*
X121466300Y-114110940D01*
X121466300Y-114080460D01*
X121473920Y-114042360D01*
X121494240Y-113999180D01*
X121522180Y-113961080D01*
X121550120Y-113935680D01*
X121585680Y-113917900D01*
X121628860Y-113910280D01*
X121641560Y-113910280D01*
X121702520Y-113917900D01*
X121748240Y-113938220D01*
X121781260Y-113971240D01*
X121796500Y-113999180D01*
X121809200Y-114032200D01*
X121816820Y-114067760D01*
X121821900Y-114093160D01*
X121819360Y-114100780D01*
X121806660Y-114103320D01*
X121776180Y-114108400D01*
X121730460Y-114108400D01*
X121672040Y-114110940D01*
X121639020Y-114110940D01*
X121466300Y-114110940D01*
X121466300Y-114237940D01*
X121562820Y-114237940D01*
X121644100Y-114237940D01*
X121710140Y-114237940D01*
X121755860Y-114237940D01*
X121788880Y-114240480D01*
X121811740Y-114245560D01*
X121821900Y-114253180D01*
X121824440Y-114265880D01*
X121821900Y-114281120D01*
X121816820Y-114301440D01*
X121814280Y-114311600D01*
X121788880Y-114364940D01*
X121750780Y-114405580D01*
X121699980Y-114433520D01*
X121644100Y-114446220D01*
X121580600Y-114443680D01*
X121519640Y-114423360D01*
X121486620Y-114405580D01*
X121433280Y-114372560D01*
X121377400Y-114420820D01*
X121321520Y-114469080D01*
X121367240Y-114509720D01*
X121430740Y-114552900D01*
X121506940Y-114583380D01*
X121590760Y-114598620D01*
X121672040Y-114596080D01*
X121692360Y-114593540D01*
X121773640Y-114570680D01*
X121844760Y-114532580D01*
X121900640Y-114476700D01*
X121941280Y-114405580D01*
X121969220Y-114321760D01*
X121981920Y-114220160D01*
X121981920Y-114182060D01*
X121974300Y-114077920D01*
X121953980Y-113986480D01*
X121918420Y-113907740D01*
X121867620Y-113844240D01*
X121806660Y-113798520D01*
X121778720Y-113783280D01*
X121717760Y-113765500D01*
X121646640Y-113757880D01*
X121575520Y-113762960D01*
X121512020Y-113780740D01*
X121504400Y-113783280D01*
X121433280Y-113826460D01*
X121377400Y-113882340D01*
X121336760Y-113956000D01*
X121311360Y-114042360D01*
X121298660Y-114146500D01*
X121298660Y-114176980D01*
X121298660Y-114237940D01*
X121298660Y-114237940D01*
G36*
X126901900Y-114593540D02*
X126980640Y-114593540D01*
X127056840Y-114593540D01*
X127061920Y-114319220D01*
X127061920Y-114230320D01*
X127064460Y-114159200D01*
X127067000Y-114105860D01*
X127069540Y-114062680D01*
X127077160Y-114032200D01*
X127084780Y-114009340D01*
X127094940Y-113989020D01*
X127107640Y-113973780D01*
X127125420Y-113956000D01*
X127125420Y-113956000D01*
X127168600Y-113928060D01*
X127219400Y-113917900D01*
X127270200Y-113922980D01*
X127318460Y-113943300D01*
X127359100Y-113976320D01*
X127376880Y-114006800D01*
X127381960Y-114019500D01*
X127387040Y-114037280D01*
X127392120Y-114060140D01*
X127392120Y-114090620D01*
X127394660Y-114133800D01*
X127394660Y-114189680D01*
X127397200Y-114263340D01*
X127397200Y-114319220D01*
X127397200Y-114593540D01*
X127481020Y-114593540D01*
X127564840Y-114593540D01*
X127564840Y-113521660D01*
X127564840Y-112449780D01*
X127481020Y-112449780D01*
X127397200Y-112449780D01*
X127397200Y-112492960D01*
X127397200Y-112538680D01*
X127366720Y-112510740D01*
X127313380Y-112472640D01*
X127247340Y-112447240D01*
X127176220Y-112439620D01*
X127102560Y-112447240D01*
X127087320Y-112452320D01*
X127044140Y-112472640D01*
X126998420Y-112508200D01*
X126957780Y-112551380D01*
X126929840Y-112597100D01*
X126927300Y-112604720D01*
X126919680Y-112625040D01*
X126914600Y-112650440D01*
X126912060Y-112680920D01*
X126909520Y-112721560D01*
X126906980Y-112774900D01*
X126906980Y-112846020D01*
X126906980Y-112858720D01*
X126906980Y-112945080D01*
X126909520Y-113011120D01*
X126914600Y-113061920D01*
X126922220Y-113102560D01*
X126934920Y-113135580D01*
X126952700Y-113163520D01*
X126975560Y-113188920D01*
X126995880Y-113209240D01*
X127059380Y-113252420D01*
X127064460Y-113254960D01*
X127064460Y-112858720D01*
X127067000Y-112787600D01*
X127074620Y-112731720D01*
X127084780Y-112688540D01*
X127102560Y-112658060D01*
X127127960Y-112630120D01*
X127135580Y-112625040D01*
X127178760Y-112604720D01*
X127229560Y-112599640D01*
X127280360Y-112607260D01*
X127326080Y-112630120D01*
X127361640Y-112663140D01*
X127371800Y-112678380D01*
X127381960Y-112711400D01*
X127387040Y-112759660D01*
X127392120Y-112815540D01*
X127392120Y-112876500D01*
X127389580Y-112937460D01*
X127384500Y-112988260D01*
X127376880Y-113028900D01*
X127371800Y-113041600D01*
X127341320Y-113077160D01*
X127298140Y-113105100D01*
X127249880Y-113117800D01*
X127199080Y-113120340D01*
X127150820Y-113105100D01*
X127135580Y-113094940D01*
X127107640Y-113069540D01*
X127087320Y-113039060D01*
X127074620Y-113000960D01*
X127069540Y-112950160D01*
X127067000Y-112881580D01*
X127064460Y-112858720D01*
X127064460Y-113254960D01*
X127125420Y-113275280D01*
X127196540Y-113280360D01*
X127267660Y-113267660D01*
X127333700Y-113232100D01*
X127361640Y-113211780D01*
X127397200Y-113183840D01*
X127397200Y-113516580D01*
X127397200Y-113849320D01*
X127356560Y-113816300D01*
X127290520Y-113778200D01*
X127221940Y-113757880D01*
X127150820Y-113755340D01*
X127082240Y-113773120D01*
X127016200Y-113808680D01*
X126985720Y-113839160D01*
X126962860Y-113862020D01*
X126945080Y-113882340D01*
X126932380Y-113907740D01*
X126919680Y-113935680D01*
X126912060Y-113971240D01*
X126906980Y-114016960D01*
X126904440Y-114072840D01*
X126901900Y-114143960D01*
X126901900Y-114232860D01*
X126901900Y-114296360D01*
X126901900Y-114593540D01*
X126901900Y-114593540D01*
X126901900Y-114593540D01*
G37*
X126901900Y-114593540D02*
X126980640Y-114593540D01*
X127056840Y-114593540D01*
X127061920Y-114319220D01*
X127061920Y-114230320D01*
X127064460Y-114159200D01*
X127067000Y-114105860D01*
X127069540Y-114062680D01*
X127077160Y-114032200D01*
X127084780Y-114009340D01*
X127094940Y-113989020D01*
X127107640Y-113973780D01*
X127125420Y-113956000D01*
X127125420Y-113956000D01*
X127168600Y-113928060D01*
X127219400Y-113917900D01*
X127270200Y-113922980D01*
X127318460Y-113943300D01*
X127359100Y-113976320D01*
X127376880Y-114006800D01*
X127381960Y-114019500D01*
X127387040Y-114037280D01*
X127392120Y-114060140D01*
X127392120Y-114090620D01*
X127394660Y-114133800D01*
X127394660Y-114189680D01*
X127397200Y-114263340D01*
X127397200Y-114319220D01*
X127397200Y-114593540D01*
X127481020Y-114593540D01*
X127564840Y-114593540D01*
X127564840Y-113521660D01*
X127564840Y-112449780D01*
X127481020Y-112449780D01*
X127397200Y-112449780D01*
X127397200Y-112492960D01*
X127397200Y-112538680D01*
X127366720Y-112510740D01*
X127313380Y-112472640D01*
X127247340Y-112447240D01*
X127176220Y-112439620D01*
X127102560Y-112447240D01*
X127087320Y-112452320D01*
X127044140Y-112472640D01*
X126998420Y-112508200D01*
X126957780Y-112551380D01*
X126929840Y-112597100D01*
X126927300Y-112604720D01*
X126919680Y-112625040D01*
X126914600Y-112650440D01*
X126912060Y-112680920D01*
X126909520Y-112721560D01*
X126906980Y-112774900D01*
X126906980Y-112846020D01*
X126906980Y-112858720D01*
X126906980Y-112945080D01*
X126909520Y-113011120D01*
X126914600Y-113061920D01*
X126922220Y-113102560D01*
X126934920Y-113135580D01*
X126952700Y-113163520D01*
X126975560Y-113188920D01*
X126995880Y-113209240D01*
X127059380Y-113252420D01*
X127064460Y-113254960D01*
X127064460Y-112858720D01*
X127067000Y-112787600D01*
X127074620Y-112731720D01*
X127084780Y-112688540D01*
X127102560Y-112658060D01*
X127127960Y-112630120D01*
X127135580Y-112625040D01*
X127178760Y-112604720D01*
X127229560Y-112599640D01*
X127280360Y-112607260D01*
X127326080Y-112630120D01*
X127361640Y-112663140D01*
X127371800Y-112678380D01*
X127381960Y-112711400D01*
X127387040Y-112759660D01*
X127392120Y-112815540D01*
X127392120Y-112876500D01*
X127389580Y-112937460D01*
X127384500Y-112988260D01*
X127376880Y-113028900D01*
X127371800Y-113041600D01*
X127341320Y-113077160D01*
X127298140Y-113105100D01*
X127249880Y-113117800D01*
X127199080Y-113120340D01*
X127150820Y-113105100D01*
X127135580Y-113094940D01*
X127107640Y-113069540D01*
X127087320Y-113039060D01*
X127074620Y-113000960D01*
X127069540Y-112950160D01*
X127067000Y-112881580D01*
X127064460Y-112858720D01*
X127064460Y-113254960D01*
X127125420Y-113275280D01*
X127196540Y-113280360D01*
X127267660Y-113267660D01*
X127333700Y-113232100D01*
X127361640Y-113211780D01*
X127397200Y-113183840D01*
X127397200Y-113516580D01*
X127397200Y-113849320D01*
X127356560Y-113816300D01*
X127290520Y-113778200D01*
X127221940Y-113757880D01*
X127150820Y-113755340D01*
X127082240Y-113773120D01*
X127016200Y-113808680D01*
X126985720Y-113839160D01*
X126962860Y-113862020D01*
X126945080Y-113882340D01*
X126932380Y-113907740D01*
X126919680Y-113935680D01*
X126912060Y-113971240D01*
X126906980Y-114016960D01*
X126904440Y-114072840D01*
X126901900Y-114143960D01*
X126901900Y-114232860D01*
X126901900Y-114296360D01*
X126901900Y-114593540D01*
X126901900Y-114593540D01*
G36*
X125372820Y-113818840D02*
X125380440Y-113834080D01*
X125400760Y-113856940D01*
X125421080Y-113882340D01*
X125446480Y-113912820D01*
X125466800Y-113935680D01*
X125476960Y-113950920D01*
X125479500Y-113950920D01*
X125487120Y-113948380D01*
X125509980Y-113940760D01*
X125515060Y-113935680D01*
X125548080Y-113925520D01*
X125586180Y-113920440D01*
X125601420Y-113920440D01*
X125649680Y-113925520D01*
X125690320Y-113945840D01*
X125725880Y-113983940D01*
X125733500Y-113994100D01*
X125738580Y-114006800D01*
X125746200Y-114016960D01*
X125748740Y-114032200D01*
X125751280Y-114052520D01*
X125753820Y-114083000D01*
X125756360Y-114123640D01*
X125756360Y-114176980D01*
X125756360Y-114248100D01*
X125756360Y-114311600D01*
X125756360Y-114593540D01*
X125840180Y-114593540D01*
X125924000Y-114593540D01*
X125924000Y-114179520D01*
X125924000Y-113762960D01*
X125840180Y-113762960D01*
X125756360Y-113762960D01*
X125756360Y-113806140D01*
X125756360Y-113849320D01*
X125715720Y-113816300D01*
X125667460Y-113785820D01*
X125609040Y-113762960D01*
X125550620Y-113752800D01*
X125540460Y-113752800D01*
X125504900Y-113757880D01*
X125461720Y-113768040D01*
X125418540Y-113783280D01*
X125388060Y-113798520D01*
X125382980Y-113801060D01*
X125375360Y-113808680D01*
X125372820Y-113818840D01*
X125372820Y-113818840D01*
X125372820Y-113818840D01*
G37*
X125372820Y-113818840D02*
X125380440Y-113834080D01*
X125400760Y-113856940D01*
X125421080Y-113882340D01*
X125446480Y-113912820D01*
X125466800Y-113935680D01*
X125476960Y-113950920D01*
X125479500Y-113950920D01*
X125487120Y-113948380D01*
X125509980Y-113940760D01*
X125515060Y-113935680D01*
X125548080Y-113925520D01*
X125586180Y-113920440D01*
X125601420Y-113920440D01*
X125649680Y-113925520D01*
X125690320Y-113945840D01*
X125725880Y-113983940D01*
X125733500Y-113994100D01*
X125738580Y-114006800D01*
X125746200Y-114016960D01*
X125748740Y-114032200D01*
X125751280Y-114052520D01*
X125753820Y-114083000D01*
X125756360Y-114123640D01*
X125756360Y-114176980D01*
X125756360Y-114248100D01*
X125756360Y-114311600D01*
X125756360Y-114593540D01*
X125840180Y-114593540D01*
X125924000Y-114593540D01*
X125924000Y-114179520D01*
X125924000Y-113762960D01*
X125840180Y-113762960D01*
X125756360Y-113762960D01*
X125756360Y-113806140D01*
X125756360Y-113849320D01*
X125715720Y-113816300D01*
X125667460Y-113785820D01*
X125609040Y-113762960D01*
X125550620Y-113752800D01*
X125540460Y-113752800D01*
X125504900Y-113757880D01*
X125461720Y-113768040D01*
X125418540Y-113783280D01*
X125388060Y-113798520D01*
X125382980Y-113801060D01*
X125375360Y-113808680D01*
X125372820Y-113818840D01*
X125372820Y-113818840D01*
G36*
X123424640Y-113762960D02*
X123556720Y-114179520D01*
X123691340Y-114596080D01*
X123762460Y-114591000D01*
X123836120Y-114588460D01*
X123919940Y-114303980D01*
X123942800Y-114227780D01*
X123963120Y-114161740D01*
X123980900Y-114105860D01*
X123996140Y-114060140D01*
X124006300Y-114029660D01*
X124011380Y-114016960D01*
X124011380Y-114016960D01*
X124016460Y-114027120D01*
X124024080Y-114052520D01*
X124039320Y-114093160D01*
X124054560Y-114146500D01*
X124074880Y-114207460D01*
X124095200Y-114270960D01*
X124115520Y-114339540D01*
X124135840Y-114408120D01*
X124156160Y-114471620D01*
X124171400Y-114530040D01*
X124181560Y-114560520D01*
X124191720Y-114593540D01*
X124262840Y-114593540D01*
X124333960Y-114593540D01*
X124430480Y-114286200D01*
X124458420Y-114204920D01*
X124483820Y-114121100D01*
X124509220Y-114044900D01*
X124532080Y-113976320D01*
X124549860Y-113917900D01*
X124562560Y-113877260D01*
X124565100Y-113872180D01*
X124598120Y-113762960D01*
X124511760Y-113762960D01*
X124425400Y-113762960D01*
X124349200Y-114052520D01*
X124328880Y-114126180D01*
X124308560Y-114194760D01*
X124293320Y-114253180D01*
X124278080Y-114298900D01*
X124267920Y-114329380D01*
X124262840Y-114342080D01*
X124262840Y-114342080D01*
X124257760Y-114331920D01*
X124247600Y-114309060D01*
X124234900Y-114273500D01*
X124232360Y-114265880D01*
X124222200Y-114232860D01*
X124206960Y-114182060D01*
X124186640Y-114123640D01*
X124166320Y-114055060D01*
X124143460Y-113986480D01*
X124138380Y-113976320D01*
X124069800Y-113762960D01*
X124011380Y-113762960D01*
X123952960Y-113762960D01*
X123925020Y-113851860D01*
X123884380Y-113973780D01*
X123851360Y-114075380D01*
X123823420Y-114161740D01*
X123803100Y-114227780D01*
X123785320Y-114278580D01*
X123772620Y-114314140D01*
X123765000Y-114334460D01*
X123759920Y-114342080D01*
X123754840Y-114331920D01*
X123747220Y-114303980D01*
X123734520Y-114263340D01*
X123716740Y-114207460D01*
X123698960Y-114141420D01*
X123678640Y-114067760D01*
X123676100Y-114052520D01*
X123597360Y-113762960D01*
X123511000Y-113762960D01*
X123424640Y-113762960D01*
X123424640Y-113762960D01*
X123424640Y-113762960D01*
G37*
X123424640Y-113762960D02*
X123556720Y-114179520D01*
X123691340Y-114596080D01*
X123762460Y-114591000D01*
X123836120Y-114588460D01*
X123919940Y-114303980D01*
X123942800Y-114227780D01*
X123963120Y-114161740D01*
X123980900Y-114105860D01*
X123996140Y-114060140D01*
X124006300Y-114029660D01*
X124011380Y-114016960D01*
X124011380Y-114016960D01*
X124016460Y-114027120D01*
X124024080Y-114052520D01*
X124039320Y-114093160D01*
X124054560Y-114146500D01*
X124074880Y-114207460D01*
X124095200Y-114270960D01*
X124115520Y-114339540D01*
X124135840Y-114408120D01*
X124156160Y-114471620D01*
X124171400Y-114530040D01*
X124181560Y-114560520D01*
X124191720Y-114593540D01*
X124262840Y-114593540D01*
X124333960Y-114593540D01*
X124430480Y-114286200D01*
X124458420Y-114204920D01*
X124483820Y-114121100D01*
X124509220Y-114044900D01*
X124532080Y-113976320D01*
X124549860Y-113917900D01*
X124562560Y-113877260D01*
X124565100Y-113872180D01*
X124598120Y-113762960D01*
X124511760Y-113762960D01*
X124425400Y-113762960D01*
X124349200Y-114052520D01*
X124328880Y-114126180D01*
X124308560Y-114194760D01*
X124293320Y-114253180D01*
X124278080Y-114298900D01*
X124267920Y-114329380D01*
X124262840Y-114342080D01*
X124262840Y-114342080D01*
X124257760Y-114331920D01*
X124247600Y-114309060D01*
X124234900Y-114273500D01*
X124232360Y-114265880D01*
X124222200Y-114232860D01*
X124206960Y-114182060D01*
X124186640Y-114123640D01*
X124166320Y-114055060D01*
X124143460Y-113986480D01*
X124138380Y-113976320D01*
X124069800Y-113762960D01*
X124011380Y-113762960D01*
X123952960Y-113762960D01*
X123925020Y-113851860D01*
X123884380Y-113973780D01*
X123851360Y-114075380D01*
X123823420Y-114161740D01*
X123803100Y-114227780D01*
X123785320Y-114278580D01*
X123772620Y-114314140D01*
X123765000Y-114334460D01*
X123759920Y-114342080D01*
X123754840Y-114331920D01*
X123747220Y-114303980D01*
X123734520Y-114263340D01*
X123716740Y-114207460D01*
X123698960Y-114141420D01*
X123678640Y-114067760D01*
X123676100Y-114052520D01*
X123597360Y-113762960D01*
X123511000Y-113762960D01*
X123424640Y-113762960D01*
X123424640Y-113762960D01*
G36*
X122002240Y-113816300D02*
X122009860Y-113826460D01*
X122025100Y-113849320D01*
X122047960Y-113877260D01*
X122070820Y-113905200D01*
X122093680Y-113933140D01*
X122108920Y-113948380D01*
X122114000Y-113953460D01*
X122126700Y-113948380D01*
X122144480Y-113935680D01*
X122180040Y-113922980D01*
X122225760Y-113920440D01*
X122271480Y-113925520D01*
X122307040Y-113938220D01*
X122334980Y-113961080D01*
X122360380Y-113991560D01*
X122362920Y-113994100D01*
X122370540Y-114006800D01*
X122375620Y-114019500D01*
X122380700Y-114037280D01*
X122383240Y-114060140D01*
X122385780Y-114093160D01*
X122388320Y-114136340D01*
X122388320Y-114194760D01*
X122390860Y-114268420D01*
X122390860Y-114314140D01*
X122393400Y-114593540D01*
X122472140Y-114593540D01*
X122550880Y-114593540D01*
X122550880Y-114179520D01*
X122550880Y-113762960D01*
X122469600Y-113762960D01*
X122390860Y-113762960D01*
X122390860Y-113806140D01*
X122390860Y-113831540D01*
X122385780Y-113846780D01*
X122385780Y-113846780D01*
X122373080Y-113841700D01*
X122352760Y-113826460D01*
X122342600Y-113816300D01*
X122296880Y-113788360D01*
X122241000Y-113765500D01*
X122180040Y-113755340D01*
X122139400Y-113757880D01*
X122103840Y-113762960D01*
X122068280Y-113775660D01*
X122035260Y-113790900D01*
X122012400Y-113803600D01*
X122002240Y-113816300D01*
X122002240Y-113816300D01*
X122002240Y-113816300D01*
G37*
X122002240Y-113816300D02*
X122009860Y-113826460D01*
X122025100Y-113849320D01*
X122047960Y-113877260D01*
X122070820Y-113905200D01*
X122093680Y-113933140D01*
X122108920Y-113948380D01*
X122114000Y-113953460D01*
X122126700Y-113948380D01*
X122144480Y-113935680D01*
X122180040Y-113922980D01*
X122225760Y-113920440D01*
X122271480Y-113925520D01*
X122307040Y-113938220D01*
X122334980Y-113961080D01*
X122360380Y-113991560D01*
X122362920Y-113994100D01*
X122370540Y-114006800D01*
X122375620Y-114019500D01*
X122380700Y-114037280D01*
X122383240Y-114060140D01*
X122385780Y-114093160D01*
X122388320Y-114136340D01*
X122388320Y-114194760D01*
X122390860Y-114268420D01*
X122390860Y-114314140D01*
X122393400Y-114593540D01*
X122472140Y-114593540D01*
X122550880Y-114593540D01*
X122550880Y-114179520D01*
X122550880Y-113762960D01*
X122469600Y-113762960D01*
X122390860Y-113762960D01*
X122390860Y-113806140D01*
X122390860Y-113831540D01*
X122385780Y-113846780D01*
X122385780Y-113846780D01*
X122373080Y-113841700D01*
X122352760Y-113826460D01*
X122342600Y-113816300D01*
X122296880Y-113788360D01*
X122241000Y-113765500D01*
X122180040Y-113755340D01*
X122139400Y-113757880D01*
X122103840Y-113762960D01*
X122068280Y-113775660D01*
X122035260Y-113790900D01*
X122012400Y-113803600D01*
X122002240Y-113816300D01*
X122002240Y-113816300D01*
G36*
X127712160Y-112858720D02*
X127714700Y-112947620D01*
X127724860Y-113021280D01*
X127740100Y-113079700D01*
X127760420Y-113120340D01*
X127795980Y-113168600D01*
X127844240Y-113214320D01*
X127869640Y-113229560D01*
X127869640Y-112825700D01*
X127882340Y-112741880D01*
X127902660Y-112683460D01*
X127938220Y-112640280D01*
X127983940Y-112612340D01*
X128039820Y-112599640D01*
X128098240Y-112607260D01*
X128116020Y-112612340D01*
X128156660Y-112632660D01*
X128184600Y-112658060D01*
X128204920Y-112693620D01*
X128217620Y-112739340D01*
X128225240Y-112802840D01*
X128225240Y-112861260D01*
X128225240Y-112917140D01*
X128222700Y-112957780D01*
X128220160Y-112985720D01*
X128212540Y-113011120D01*
X128202380Y-113028900D01*
X128169360Y-113074620D01*
X128123640Y-113105100D01*
X128070300Y-113120340D01*
X128014420Y-113117800D01*
X127981400Y-113107640D01*
X127938220Y-113079700D01*
X127905200Y-113033980D01*
X127882340Y-112975560D01*
X127869640Y-112904440D01*
X127869640Y-112825700D01*
X127869640Y-113229560D01*
X127897580Y-113249880D01*
X127935680Y-113265120D01*
X128001720Y-113277820D01*
X128072840Y-113277820D01*
X128138880Y-113270200D01*
X128179520Y-113260040D01*
X128220160Y-113239720D01*
X128258260Y-113216860D01*
X128270960Y-113206700D01*
X128301440Y-113176220D01*
X128329380Y-113138120D01*
X128352240Y-113100020D01*
X128370020Y-113064460D01*
X128372560Y-113041600D01*
X128377640Y-113021280D01*
X128385260Y-113011120D01*
X128387800Y-112998420D01*
X128392880Y-112967940D01*
X128392880Y-112922220D01*
X128395420Y-112866340D01*
X128395420Y-112858720D01*
X128392880Y-112802840D01*
X128392880Y-112754580D01*
X128387800Y-112721560D01*
X128385260Y-112708860D01*
X128385260Y-112708860D01*
X128375100Y-112693620D01*
X128372560Y-112678380D01*
X128367480Y-112650440D01*
X128349700Y-112612340D01*
X128324300Y-112571700D01*
X128293820Y-112536140D01*
X128270960Y-112513280D01*
X128207460Y-112472640D01*
X128133800Y-112447240D01*
X128055060Y-112439620D01*
X127978860Y-112447240D01*
X127905200Y-112470100D01*
X127841700Y-112508200D01*
X127831540Y-112515820D01*
X127785820Y-112561540D01*
X127752800Y-112612340D01*
X127729940Y-112670760D01*
X127717240Y-112741880D01*
X127712160Y-112825700D01*
X127712160Y-112858720D01*
X127712160Y-112858720D01*
X127712160Y-112858720D01*
G37*
X127712160Y-112858720D02*
X127714700Y-112947620D01*
X127724860Y-113021280D01*
X127740100Y-113079700D01*
X127760420Y-113120340D01*
X127795980Y-113168600D01*
X127844240Y-113214320D01*
X127869640Y-113229560D01*
X127869640Y-112825700D01*
X127882340Y-112741880D01*
X127902660Y-112683460D01*
X127938220Y-112640280D01*
X127983940Y-112612340D01*
X128039820Y-112599640D01*
X128098240Y-112607260D01*
X128116020Y-112612340D01*
X128156660Y-112632660D01*
X128184600Y-112658060D01*
X128204920Y-112693620D01*
X128217620Y-112739340D01*
X128225240Y-112802840D01*
X128225240Y-112861260D01*
X128225240Y-112917140D01*
X128222700Y-112957780D01*
X128220160Y-112985720D01*
X128212540Y-113011120D01*
X128202380Y-113028900D01*
X128169360Y-113074620D01*
X128123640Y-113105100D01*
X128070300Y-113120340D01*
X128014420Y-113117800D01*
X127981400Y-113107640D01*
X127938220Y-113079700D01*
X127905200Y-113033980D01*
X127882340Y-112975560D01*
X127869640Y-112904440D01*
X127869640Y-112825700D01*
X127869640Y-113229560D01*
X127897580Y-113249880D01*
X127935680Y-113265120D01*
X128001720Y-113277820D01*
X128072840Y-113277820D01*
X128138880Y-113270200D01*
X128179520Y-113260040D01*
X128220160Y-113239720D01*
X128258260Y-113216860D01*
X128270960Y-113206700D01*
X128301440Y-113176220D01*
X128329380Y-113138120D01*
X128352240Y-113100020D01*
X128370020Y-113064460D01*
X128372560Y-113041600D01*
X128377640Y-113021280D01*
X128385260Y-113011120D01*
X128387800Y-112998420D01*
X128392880Y-112967940D01*
X128392880Y-112922220D01*
X128395420Y-112866340D01*
X128395420Y-112858720D01*
X128392880Y-112802840D01*
X128392880Y-112754580D01*
X128387800Y-112721560D01*
X128385260Y-112708860D01*
X128385260Y-112708860D01*
X128375100Y-112693620D01*
X128372560Y-112678380D01*
X128367480Y-112650440D01*
X128349700Y-112612340D01*
X128324300Y-112571700D01*
X128293820Y-112536140D01*
X128270960Y-112513280D01*
X128207460Y-112472640D01*
X128133800Y-112447240D01*
X128055060Y-112439620D01*
X127978860Y-112447240D01*
X127905200Y-112470100D01*
X127841700Y-112508200D01*
X127831540Y-112515820D01*
X127785820Y-112561540D01*
X127752800Y-112612340D01*
X127729940Y-112670760D01*
X127717240Y-112741880D01*
X127712160Y-112825700D01*
X127712160Y-112858720D01*
X127712160Y-112858720D01*
G36*
X126101800Y-112922220D02*
X126261820Y-112922220D01*
X126261820Y-112772360D01*
X126266900Y-112734260D01*
X126284680Y-112688540D01*
X126310080Y-112650440D01*
X126315160Y-112645360D01*
X126358340Y-112607260D01*
X126411680Y-112589480D01*
X126470100Y-112592020D01*
X126518360Y-112607260D01*
X126564080Y-112642820D01*
X126597100Y-112691080D01*
X126614880Y-112741880D01*
X126619960Y-112787600D01*
X126439620Y-112787600D01*
X126371040Y-112785060D01*
X126320240Y-112785060D01*
X126287220Y-112782520D01*
X126266900Y-112779980D01*
X126261820Y-112774900D01*
X126261820Y-112772360D01*
X126261820Y-112922220D01*
X126360880Y-112922220D01*
X126617420Y-112922220D01*
X126617420Y-112952700D01*
X126609800Y-112990800D01*
X126589480Y-113033980D01*
X126564080Y-113072080D01*
X126536140Y-113097480D01*
X126482800Y-113120340D01*
X126424380Y-113130500D01*
X126360880Y-113122880D01*
X126302460Y-113102560D01*
X126264360Y-113077160D01*
X126233880Y-113051760D01*
X126175460Y-113102560D01*
X126119580Y-113153360D01*
X126144980Y-113178760D01*
X126167840Y-113199080D01*
X126200860Y-113221940D01*
X126238960Y-113242260D01*
X126277060Y-113257500D01*
X126307540Y-113270200D01*
X126343100Y-113275280D01*
X126391360Y-113277820D01*
X126401520Y-113277820D01*
X126462480Y-113277820D01*
X126515820Y-113272740D01*
X126541220Y-113265120D01*
X126617420Y-113232100D01*
X126675840Y-113183840D01*
X126721560Y-113122880D01*
X126754580Y-113046680D01*
X126772360Y-112955240D01*
X126777440Y-112863800D01*
X126769820Y-112757120D01*
X126749500Y-112665680D01*
X126716480Y-112589480D01*
X126668220Y-112528520D01*
X126604720Y-112480260D01*
X126597100Y-112477720D01*
X126556460Y-112457400D01*
X126515820Y-112447240D01*
X126465020Y-112442160D01*
X126459940Y-112442160D01*
X126378660Y-112444700D01*
X126307540Y-112465020D01*
X126241500Y-112503120D01*
X126200860Y-112538680D01*
X126160220Y-112586940D01*
X126129740Y-112637740D01*
X126111960Y-112696160D01*
X126104340Y-112767280D01*
X126101800Y-112818080D01*
X126101800Y-112922220D01*
X126101800Y-112922220D01*
X126101800Y-112922220D01*
G37*
X126101800Y-112922220D02*
X126261820Y-112922220D01*
X126261820Y-112772360D01*
X126266900Y-112734260D01*
X126284680Y-112688540D01*
X126310080Y-112650440D01*
X126315160Y-112645360D01*
X126358340Y-112607260D01*
X126411680Y-112589480D01*
X126470100Y-112592020D01*
X126518360Y-112607260D01*
X126564080Y-112642820D01*
X126597100Y-112691080D01*
X126614880Y-112741880D01*
X126619960Y-112787600D01*
X126439620Y-112787600D01*
X126371040Y-112785060D01*
X126320240Y-112785060D01*
X126287220Y-112782520D01*
X126266900Y-112779980D01*
X126261820Y-112774900D01*
X126261820Y-112772360D01*
X126261820Y-112922220D01*
X126360880Y-112922220D01*
X126617420Y-112922220D01*
X126617420Y-112952700D01*
X126609800Y-112990800D01*
X126589480Y-113033980D01*
X126564080Y-113072080D01*
X126536140Y-113097480D01*
X126482800Y-113120340D01*
X126424380Y-113130500D01*
X126360880Y-113122880D01*
X126302460Y-113102560D01*
X126264360Y-113077160D01*
X126233880Y-113051760D01*
X126175460Y-113102560D01*
X126119580Y-113153360D01*
X126144980Y-113178760D01*
X126167840Y-113199080D01*
X126200860Y-113221940D01*
X126238960Y-113242260D01*
X126277060Y-113257500D01*
X126307540Y-113270200D01*
X126343100Y-113275280D01*
X126391360Y-113277820D01*
X126401520Y-113277820D01*
X126462480Y-113277820D01*
X126515820Y-113272740D01*
X126541220Y-113265120D01*
X126617420Y-113232100D01*
X126675840Y-113183840D01*
X126721560Y-113122880D01*
X126754580Y-113046680D01*
X126772360Y-112955240D01*
X126777440Y-112863800D01*
X126769820Y-112757120D01*
X126749500Y-112665680D01*
X126716480Y-112589480D01*
X126668220Y-112528520D01*
X126604720Y-112480260D01*
X126597100Y-112477720D01*
X126556460Y-112457400D01*
X126515820Y-112447240D01*
X126465020Y-112442160D01*
X126459940Y-112442160D01*
X126378660Y-112444700D01*
X126307540Y-112465020D01*
X126241500Y-112503120D01*
X126200860Y-112538680D01*
X126160220Y-112586940D01*
X126129740Y-112637740D01*
X126111960Y-112696160D01*
X126104340Y-112767280D01*
X126101800Y-112818080D01*
X126101800Y-112922220D01*
X126101800Y-112922220D01*
G36*
X124128220Y-113039060D02*
X124138380Y-113100020D01*
X124163780Y-113153360D01*
X124199340Y-113199080D01*
X124204420Y-113201620D01*
X124257760Y-113237180D01*
X124313640Y-113260040D01*
X124379680Y-113272740D01*
X124448260Y-113277820D01*
X124506680Y-113277820D01*
X124549860Y-113275280D01*
X124587960Y-113267660D01*
X124610820Y-113260040D01*
X124702260Y-113224480D01*
X124778460Y-113178760D01*
X124791160Y-113168600D01*
X124829260Y-113135580D01*
X124773380Y-113079700D01*
X124714960Y-113023820D01*
X124692100Y-113044140D01*
X124638760Y-113082240D01*
X124577800Y-113110180D01*
X124514300Y-113125420D01*
X124450800Y-113130500D01*
X124392380Y-113122880D01*
X124344120Y-113105100D01*
X124311100Y-113077160D01*
X124290780Y-113041600D01*
X124288240Y-113006040D01*
X124306020Y-112975560D01*
X124336500Y-112952700D01*
X124382220Y-112940000D01*
X124412700Y-112934920D01*
X124458420Y-112929840D01*
X124506680Y-112924760D01*
X124519380Y-112924760D01*
X124603200Y-112906980D01*
X124671780Y-112879040D01*
X124722580Y-112838400D01*
X124758140Y-112785060D01*
X124773380Y-112724100D01*
X124770840Y-112652980D01*
X124768300Y-112632660D01*
X124745440Y-112574240D01*
X124704800Y-112520900D01*
X124654000Y-112480260D01*
X124598120Y-112454860D01*
X124509220Y-112439620D01*
X124415240Y-112439620D01*
X124321260Y-112457400D01*
X124234900Y-112492960D01*
X124176480Y-112525980D01*
X124163780Y-112536140D01*
X124156160Y-112543760D01*
X124156160Y-112553920D01*
X124166320Y-112571700D01*
X124189180Y-112597100D01*
X124212040Y-112627580D01*
X124242520Y-112660600D01*
X124306020Y-112630120D01*
X124366980Y-112604720D01*
X124427940Y-112592020D01*
X124483820Y-112589480D01*
X124532080Y-112597100D01*
X124572720Y-112614880D01*
X124598120Y-112642820D01*
X124608280Y-112678380D01*
X124608280Y-112688540D01*
X124603200Y-112716480D01*
X124590500Y-112736800D01*
X124567640Y-112752040D01*
X124532080Y-112762200D01*
X124483820Y-112772360D01*
X124420320Y-112779980D01*
X124346660Y-112787600D01*
X124290780Y-112800300D01*
X124250140Y-112813000D01*
X124214580Y-112833320D01*
X124186640Y-112858720D01*
X124179020Y-112866340D01*
X124148540Y-112917140D01*
X124130760Y-112975560D01*
X124128220Y-113039060D01*
X124128220Y-113039060D01*
X124128220Y-113039060D01*
G37*
X124128220Y-113039060D02*
X124138380Y-113100020D01*
X124163780Y-113153360D01*
X124199340Y-113199080D01*
X124204420Y-113201620D01*
X124257760Y-113237180D01*
X124313640Y-113260040D01*
X124379680Y-113272740D01*
X124448260Y-113277820D01*
X124506680Y-113277820D01*
X124549860Y-113275280D01*
X124587960Y-113267660D01*
X124610820Y-113260040D01*
X124702260Y-113224480D01*
X124778460Y-113178760D01*
X124791160Y-113168600D01*
X124829260Y-113135580D01*
X124773380Y-113079700D01*
X124714960Y-113023820D01*
X124692100Y-113044140D01*
X124638760Y-113082240D01*
X124577800Y-113110180D01*
X124514300Y-113125420D01*
X124450800Y-113130500D01*
X124392380Y-113122880D01*
X124344120Y-113105100D01*
X124311100Y-113077160D01*
X124290780Y-113041600D01*
X124288240Y-113006040D01*
X124306020Y-112975560D01*
X124336500Y-112952700D01*
X124382220Y-112940000D01*
X124412700Y-112934920D01*
X124458420Y-112929840D01*
X124506680Y-112924760D01*
X124519380Y-112924760D01*
X124603200Y-112906980D01*
X124671780Y-112879040D01*
X124722580Y-112838400D01*
X124758140Y-112785060D01*
X124773380Y-112724100D01*
X124770840Y-112652980D01*
X124768300Y-112632660D01*
X124745440Y-112574240D01*
X124704800Y-112520900D01*
X124654000Y-112480260D01*
X124598120Y-112454860D01*
X124509220Y-112439620D01*
X124415240Y-112439620D01*
X124321260Y-112457400D01*
X124234900Y-112492960D01*
X124176480Y-112525980D01*
X124163780Y-112536140D01*
X124156160Y-112543760D01*
X124156160Y-112553920D01*
X124166320Y-112571700D01*
X124189180Y-112597100D01*
X124212040Y-112627580D01*
X124242520Y-112660600D01*
X124306020Y-112630120D01*
X124366980Y-112604720D01*
X124427940Y-112592020D01*
X124483820Y-112589480D01*
X124532080Y-112597100D01*
X124572720Y-112614880D01*
X124598120Y-112642820D01*
X124608280Y-112678380D01*
X124608280Y-112688540D01*
X124603200Y-112716480D01*
X124590500Y-112736800D01*
X124567640Y-112752040D01*
X124532080Y-112762200D01*
X124483820Y-112772360D01*
X124420320Y-112779980D01*
X124346660Y-112787600D01*
X124290780Y-112800300D01*
X124250140Y-112813000D01*
X124214580Y-112833320D01*
X124186640Y-112858720D01*
X124179020Y-112866340D01*
X124148540Y-112917140D01*
X124130760Y-112975560D01*
X124128220Y-113039060D01*
X124128220Y-113039060D01*
G36*
X123343360Y-112833320D02*
X123345900Y-112914600D01*
X123353520Y-112993340D01*
X123368760Y-113061920D01*
X123386540Y-113107640D01*
X123427180Y-113171140D01*
X123483060Y-113219400D01*
X123505920Y-113232100D01*
X123505920Y-112861260D01*
X123508460Y-112785060D01*
X123516080Y-112726640D01*
X123531320Y-112683460D01*
X123554180Y-112650440D01*
X123584660Y-112627580D01*
X123617680Y-112612340D01*
X123678640Y-112599640D01*
X123731980Y-112604720D01*
X123780240Y-112630120D01*
X123820880Y-112670760D01*
X123846280Y-112724100D01*
X123853900Y-112749500D01*
X123858980Y-112795220D01*
X123861520Y-112851100D01*
X123858980Y-112906980D01*
X123853900Y-112960320D01*
X123846280Y-113003500D01*
X123838660Y-113023820D01*
X123803100Y-113074620D01*
X123757380Y-113107640D01*
X123701500Y-113120340D01*
X123645620Y-113115260D01*
X123599900Y-113100020D01*
X123564340Y-113077160D01*
X123538940Y-113046680D01*
X123521160Y-113008580D01*
X123511000Y-112957780D01*
X123505920Y-112889200D01*
X123505920Y-112861260D01*
X123505920Y-113232100D01*
X123551640Y-113254960D01*
X123625300Y-113275280D01*
X123706580Y-113280360D01*
X123787860Y-113267660D01*
X123803100Y-113265120D01*
X123843740Y-113244800D01*
X123892000Y-113211780D01*
X123935180Y-113171140D01*
X123968200Y-113130500D01*
X123978360Y-113112720D01*
X124001220Y-113051760D01*
X124016460Y-112978100D01*
X124021540Y-112884120D01*
X124021540Y-112858720D01*
X124019000Y-112767280D01*
X124006300Y-112693620D01*
X123988520Y-112630120D01*
X123958040Y-112576780D01*
X123917400Y-112531060D01*
X123902160Y-112515820D01*
X123838660Y-112472640D01*
X123767540Y-112447240D01*
X123691340Y-112439620D01*
X123612600Y-112444700D01*
X123541480Y-112467560D01*
X123475440Y-112505660D01*
X123444960Y-112531060D01*
X123417020Y-112564080D01*
X123391620Y-112602180D01*
X123378920Y-112625040D01*
X123361140Y-112683460D01*
X123348440Y-112754580D01*
X123343360Y-112833320D01*
X123343360Y-112833320D01*
X123343360Y-112833320D01*
G37*
X123343360Y-112833320D02*
X123345900Y-112914600D01*
X123353520Y-112993340D01*
X123368760Y-113061920D01*
X123386540Y-113107640D01*
X123427180Y-113171140D01*
X123483060Y-113219400D01*
X123505920Y-113232100D01*
X123505920Y-112861260D01*
X123508460Y-112785060D01*
X123516080Y-112726640D01*
X123531320Y-112683460D01*
X123554180Y-112650440D01*
X123584660Y-112627580D01*
X123617680Y-112612340D01*
X123678640Y-112599640D01*
X123731980Y-112604720D01*
X123780240Y-112630120D01*
X123820880Y-112670760D01*
X123846280Y-112724100D01*
X123853900Y-112749500D01*
X123858980Y-112795220D01*
X123861520Y-112851100D01*
X123858980Y-112906980D01*
X123853900Y-112960320D01*
X123846280Y-113003500D01*
X123838660Y-113023820D01*
X123803100Y-113074620D01*
X123757380Y-113107640D01*
X123701500Y-113120340D01*
X123645620Y-113115260D01*
X123599900Y-113100020D01*
X123564340Y-113077160D01*
X123538940Y-113046680D01*
X123521160Y-113008580D01*
X123511000Y-112957780D01*
X123505920Y-112889200D01*
X123505920Y-112861260D01*
X123505920Y-113232100D01*
X123551640Y-113254960D01*
X123625300Y-113275280D01*
X123706580Y-113280360D01*
X123787860Y-113267660D01*
X123803100Y-113265120D01*
X123843740Y-113244800D01*
X123892000Y-113211780D01*
X123935180Y-113171140D01*
X123968200Y-113130500D01*
X123978360Y-113112720D01*
X124001220Y-113051760D01*
X124016460Y-112978100D01*
X124021540Y-112884120D01*
X124021540Y-112858720D01*
X124019000Y-112767280D01*
X124006300Y-112693620D01*
X123988520Y-112630120D01*
X123958040Y-112576780D01*
X123917400Y-112531060D01*
X123902160Y-112515820D01*
X123838660Y-112472640D01*
X123767540Y-112447240D01*
X123691340Y-112439620D01*
X123612600Y-112444700D01*
X123541480Y-112467560D01*
X123475440Y-112505660D01*
X123444960Y-112531060D01*
X123417020Y-112564080D01*
X123391620Y-112602180D01*
X123378920Y-112625040D01*
X123361140Y-112683460D01*
X123348440Y-112754580D01*
X123343360Y-112833320D01*
X123343360Y-112833320D01*
G36*
X122528020Y-113270200D02*
X122611840Y-113270200D01*
X122698200Y-113270200D01*
X122698200Y-113227020D01*
X122698200Y-113181300D01*
X122726140Y-113209240D01*
X122782020Y-113249880D01*
X122848060Y-113272740D01*
X122916640Y-113280360D01*
X122987760Y-113270200D01*
X123028400Y-113254960D01*
X123089360Y-113219400D01*
X123137620Y-113168600D01*
X123163020Y-113127960D01*
X123170640Y-113115260D01*
X123175720Y-113102560D01*
X123178260Y-113084780D01*
X123180800Y-113061920D01*
X123183340Y-113031440D01*
X123185880Y-112988260D01*
X123185880Y-112934920D01*
X123188420Y-112863800D01*
X123188420Y-112774900D01*
X123188420Y-112767280D01*
X123190960Y-112449780D01*
X123112220Y-112449780D01*
X123033480Y-112449780D01*
X123030940Y-112726640D01*
X123030940Y-112810460D01*
X123028400Y-112876500D01*
X123028400Y-112927300D01*
X123025860Y-112962860D01*
X123023320Y-112990800D01*
X123018240Y-113008580D01*
X123013160Y-113023820D01*
X123008080Y-113036520D01*
X123008080Y-113036520D01*
X122969980Y-113082240D01*
X122924260Y-113110180D01*
X122883620Y-113120340D01*
X122825200Y-113117800D01*
X122774400Y-113097480D01*
X122736300Y-113061920D01*
X122718520Y-113033980D01*
X122710900Y-113018740D01*
X122705820Y-113003500D01*
X122703280Y-112983180D01*
X122700740Y-112957780D01*
X122698200Y-112922220D01*
X122698200Y-112873960D01*
X122698200Y-112810460D01*
X122698200Y-112726640D01*
X122698200Y-112719020D01*
X122698200Y-112449780D01*
X122611840Y-112449780D01*
X122528020Y-112449780D01*
X122528020Y-112858720D01*
X122528020Y-113270200D01*
X122528020Y-113270200D01*
X122528020Y-113270200D01*
G37*
X122528020Y-113270200D02*
X122611840Y-113270200D01*
X122698200Y-113270200D01*
X122698200Y-113227020D01*
X122698200Y-113181300D01*
X122726140Y-113209240D01*
X122782020Y-113249880D01*
X122848060Y-113272740D01*
X122916640Y-113280360D01*
X122987760Y-113270200D01*
X123028400Y-113254960D01*
X123089360Y-113219400D01*
X123137620Y-113168600D01*
X123163020Y-113127960D01*
X123170640Y-113115260D01*
X123175720Y-113102560D01*
X123178260Y-113084780D01*
X123180800Y-113061920D01*
X123183340Y-113031440D01*
X123185880Y-112988260D01*
X123185880Y-112934920D01*
X123188420Y-112863800D01*
X123188420Y-112774900D01*
X123188420Y-112767280D01*
X123190960Y-112449780D01*
X123112220Y-112449780D01*
X123033480Y-112449780D01*
X123030940Y-112726640D01*
X123030940Y-112810460D01*
X123028400Y-112876500D01*
X123028400Y-112927300D01*
X123025860Y-112962860D01*
X123023320Y-112990800D01*
X123018240Y-113008580D01*
X123013160Y-113023820D01*
X123008080Y-113036520D01*
X123008080Y-113036520D01*
X122969980Y-113082240D01*
X122924260Y-113110180D01*
X122883620Y-113120340D01*
X122825200Y-113117800D01*
X122774400Y-113097480D01*
X122736300Y-113061920D01*
X122718520Y-113033980D01*
X122710900Y-113018740D01*
X122705820Y-113003500D01*
X122703280Y-112983180D01*
X122700740Y-112957780D01*
X122698200Y-112922220D01*
X122698200Y-112873960D01*
X122698200Y-112810460D01*
X122698200Y-112726640D01*
X122698200Y-112719020D01*
X122698200Y-112449780D01*
X122611840Y-112449780D01*
X122528020Y-112449780D01*
X122528020Y-112858720D01*
X122528020Y-113270200D01*
X122528020Y-113270200D01*
G36*
X121131020Y-112581860D02*
X121189440Y-112632660D01*
X121245320Y-112680920D01*
X121293580Y-112645360D01*
X121349460Y-112614880D01*
X121410420Y-112599640D01*
X121468840Y-112602180D01*
X121524720Y-112622500D01*
X121572980Y-112658060D01*
X121585680Y-112673300D01*
X121613620Y-112724100D01*
X121628860Y-112785060D01*
X121633940Y-112858720D01*
X121628860Y-112937460D01*
X121613620Y-112998420D01*
X121585680Y-113046680D01*
X121542500Y-113087320D01*
X121489160Y-113112720D01*
X121430740Y-113120340D01*
X121369780Y-113112720D01*
X121311360Y-113087320D01*
X121293580Y-113074620D01*
X121245320Y-113036520D01*
X121189440Y-113087320D01*
X121164040Y-113112720D01*
X121143720Y-113133040D01*
X121133560Y-113143200D01*
X121138640Y-113153360D01*
X121158960Y-113173680D01*
X121189440Y-113194000D01*
X121222460Y-113219400D01*
X121255480Y-113239720D01*
X121285960Y-113254960D01*
X121291040Y-113257500D01*
X121354540Y-113272740D01*
X121428200Y-113280360D01*
X121501860Y-113275280D01*
X121560280Y-113260040D01*
X121636480Y-113221940D01*
X121697440Y-113168600D01*
X121743160Y-113102560D01*
X121776180Y-113018740D01*
X121791420Y-112924760D01*
X121793960Y-112868880D01*
X121791420Y-112772360D01*
X121773640Y-112688540D01*
X121743160Y-112617420D01*
X121699980Y-112556460D01*
X121682200Y-112538680D01*
X121636480Y-112498040D01*
X121588220Y-112470100D01*
X121534880Y-112454860D01*
X121468840Y-112447240D01*
X121430740Y-112444700D01*
X121379940Y-112444700D01*
X121341840Y-112447240D01*
X121313900Y-112454860D01*
X121285960Y-112465020D01*
X121268180Y-112472640D01*
X121227540Y-112495500D01*
X121189440Y-112525980D01*
X121169120Y-112541220D01*
X121131020Y-112581860D01*
X121131020Y-112581860D01*
X121131020Y-112581860D01*
G37*
X121131020Y-112581860D02*
X121189440Y-112632660D01*
X121245320Y-112680920D01*
X121293580Y-112645360D01*
X121349460Y-112614880D01*
X121410420Y-112599640D01*
X121468840Y-112602180D01*
X121524720Y-112622500D01*
X121572980Y-112658060D01*
X121585680Y-112673300D01*
X121613620Y-112724100D01*
X121628860Y-112785060D01*
X121633940Y-112858720D01*
X121628860Y-112937460D01*
X121613620Y-112998420D01*
X121585680Y-113046680D01*
X121542500Y-113087320D01*
X121489160Y-113112720D01*
X121430740Y-113120340D01*
X121369780Y-113112720D01*
X121311360Y-113087320D01*
X121293580Y-113074620D01*
X121245320Y-113036520D01*
X121189440Y-113087320D01*
X121164040Y-113112720D01*
X121143720Y-113133040D01*
X121133560Y-113143200D01*
X121138640Y-113153360D01*
X121158960Y-113173680D01*
X121189440Y-113194000D01*
X121222460Y-113219400D01*
X121255480Y-113239720D01*
X121285960Y-113254960D01*
X121291040Y-113257500D01*
X121354540Y-113272740D01*
X121428200Y-113280360D01*
X121501860Y-113275280D01*
X121560280Y-113260040D01*
X121636480Y-113221940D01*
X121697440Y-113168600D01*
X121743160Y-113102560D01*
X121776180Y-113018740D01*
X121791420Y-112924760D01*
X121793960Y-112868880D01*
X121791420Y-112772360D01*
X121773640Y-112688540D01*
X121743160Y-112617420D01*
X121699980Y-112556460D01*
X121682200Y-112538680D01*
X121636480Y-112498040D01*
X121588220Y-112470100D01*
X121534880Y-112454860D01*
X121468840Y-112447240D01*
X121430740Y-112444700D01*
X121379940Y-112444700D01*
X121341840Y-112447240D01*
X121313900Y-112454860D01*
X121285960Y-112465020D01*
X121268180Y-112472640D01*
X121227540Y-112495500D01*
X121189440Y-112525980D01*
X121169120Y-112541220D01*
X121131020Y-112581860D01*
X121131020Y-112581860D01*
G36*
X120391880Y-112922220D02*
X120559520Y-112922220D01*
X120559520Y-112787600D01*
X120564600Y-112744420D01*
X120582380Y-112688540D01*
X120612860Y-112642820D01*
X120656040Y-112609800D01*
X120706840Y-112592020D01*
X120760180Y-112589480D01*
X120810980Y-112604720D01*
X120844000Y-112625040D01*
X120877020Y-112660600D01*
X120902420Y-112706320D01*
X120915120Y-112752040D01*
X120922740Y-112787600D01*
X120739860Y-112787600D01*
X120559520Y-112787600D01*
X120559520Y-112922220D01*
X120656040Y-112922220D01*
X120920200Y-112922220D01*
X120915120Y-112962860D01*
X120894800Y-113023820D01*
X120859240Y-113074620D01*
X120813520Y-113107640D01*
X120760180Y-113127960D01*
X120699220Y-113130500D01*
X120638260Y-113115260D01*
X120577300Y-113084780D01*
X120554440Y-113069540D01*
X120536660Y-113064460D01*
X120518880Y-113069540D01*
X120496020Y-113084780D01*
X120460460Y-113112720D01*
X120455380Y-113115260D01*
X120417280Y-113148280D01*
X120440140Y-113173680D01*
X120483320Y-113211780D01*
X120539200Y-113244800D01*
X120592540Y-113265120D01*
X120635720Y-113272740D01*
X120689060Y-113277820D01*
X120747480Y-113277820D01*
X120798280Y-113275280D01*
X120821140Y-113270200D01*
X120892260Y-113242260D01*
X120958300Y-113199080D01*
X121009100Y-113140660D01*
X121026880Y-113107640D01*
X121054820Y-113039060D01*
X121070060Y-112957780D01*
X121075140Y-112868880D01*
X121072600Y-112779980D01*
X121057360Y-112696160D01*
X121031960Y-112622500D01*
X121026880Y-112612340D01*
X120988780Y-112556460D01*
X120937980Y-112508200D01*
X120879560Y-112470100D01*
X120856700Y-112459940D01*
X120818600Y-112447240D01*
X120777960Y-112442160D01*
X120727160Y-112442160D01*
X120719540Y-112442160D01*
X120640800Y-112452320D01*
X120577300Y-112477720D01*
X120518880Y-112515820D01*
X120496020Y-112538680D01*
X120457920Y-112586940D01*
X120429980Y-112640280D01*
X120409660Y-112706320D01*
X120399500Y-112785060D01*
X120396960Y-112815540D01*
X120391880Y-112922220D01*
X120391880Y-112922220D01*
X120391880Y-112922220D01*
G37*
X120391880Y-112922220D02*
X120559520Y-112922220D01*
X120559520Y-112787600D01*
X120564600Y-112744420D01*
X120582380Y-112688540D01*
X120612860Y-112642820D01*
X120656040Y-112609800D01*
X120706840Y-112592020D01*
X120760180Y-112589480D01*
X120810980Y-112604720D01*
X120844000Y-112625040D01*
X120877020Y-112660600D01*
X120902420Y-112706320D01*
X120915120Y-112752040D01*
X120922740Y-112787600D01*
X120739860Y-112787600D01*
X120559520Y-112787600D01*
X120559520Y-112922220D01*
X120656040Y-112922220D01*
X120920200Y-112922220D01*
X120915120Y-112962860D01*
X120894800Y-113023820D01*
X120859240Y-113074620D01*
X120813520Y-113107640D01*
X120760180Y-113127960D01*
X120699220Y-113130500D01*
X120638260Y-113115260D01*
X120577300Y-113084780D01*
X120554440Y-113069540D01*
X120536660Y-113064460D01*
X120518880Y-113069540D01*
X120496020Y-113084780D01*
X120460460Y-113112720D01*
X120455380Y-113115260D01*
X120417280Y-113148280D01*
X120440140Y-113173680D01*
X120483320Y-113211780D01*
X120539200Y-113244800D01*
X120592540Y-113265120D01*
X120635720Y-113272740D01*
X120689060Y-113277820D01*
X120747480Y-113277820D01*
X120798280Y-113275280D01*
X120821140Y-113270200D01*
X120892260Y-113242260D01*
X120958300Y-113199080D01*
X121009100Y-113140660D01*
X121026880Y-113107640D01*
X121054820Y-113039060D01*
X121070060Y-112957780D01*
X121075140Y-112868880D01*
X121072600Y-112779980D01*
X121057360Y-112696160D01*
X121031960Y-112622500D01*
X121026880Y-112612340D01*
X120988780Y-112556460D01*
X120937980Y-112508200D01*
X120879560Y-112470100D01*
X120856700Y-112459940D01*
X120818600Y-112447240D01*
X120777960Y-112442160D01*
X120727160Y-112442160D01*
X120719540Y-112442160D01*
X120640800Y-112452320D01*
X120577300Y-112477720D01*
X120518880Y-112515820D01*
X120496020Y-112538680D01*
X120457920Y-112586940D01*
X120429980Y-112640280D01*
X120409660Y-112706320D01*
X120399500Y-112785060D01*
X120396960Y-112815540D01*
X120391880Y-112922220D01*
X120391880Y-112922220D01*
G36*
X125291540Y-113270200D02*
X125372820Y-113270200D01*
X125451560Y-113270200D01*
X125451560Y-113003500D01*
X125451560Y-112922220D01*
X125451560Y-112858720D01*
X125451560Y-112810460D01*
X125454100Y-112774900D01*
X125456640Y-112746960D01*
X125461720Y-112726640D01*
X125466800Y-112711400D01*
X125471880Y-112696160D01*
X125474420Y-112691080D01*
X125504900Y-112645360D01*
X125540460Y-112617420D01*
X125586180Y-112604720D01*
X125619200Y-112602180D01*
X125672540Y-112607260D01*
X125713180Y-112625040D01*
X125748740Y-112660600D01*
X125761440Y-112675840D01*
X125766520Y-112683460D01*
X125771600Y-112696160D01*
X125776680Y-112711400D01*
X125779220Y-112734260D01*
X125781760Y-112767280D01*
X125781760Y-112813000D01*
X125784300Y-112871420D01*
X125784300Y-112947620D01*
X125784300Y-112985720D01*
X125789380Y-113270200D01*
X125873200Y-113270200D01*
X125954480Y-113270200D01*
X125954480Y-112858720D01*
X125954480Y-112449780D01*
X125870660Y-112449780D01*
X125786840Y-112449780D01*
X125786840Y-112492960D01*
X125786840Y-112536140D01*
X125751280Y-112505660D01*
X125692860Y-112465020D01*
X125626820Y-112444700D01*
X125550620Y-112442160D01*
X125548080Y-112442160D01*
X125484580Y-112449780D01*
X125436320Y-112470100D01*
X125390600Y-112500580D01*
X125375360Y-112515820D01*
X125355040Y-112538680D01*
X125337260Y-112556460D01*
X125324560Y-112576780D01*
X125314400Y-112599640D01*
X125309320Y-112630120D01*
X125304240Y-112668220D01*
X125299160Y-112719020D01*
X125296620Y-112782520D01*
X125296620Y-112861260D01*
X125296620Y-112952700D01*
X125291540Y-113270200D01*
X125291540Y-113270200D01*
X125291540Y-113270200D01*
G37*
X125291540Y-113270200D02*
X125372820Y-113270200D01*
X125451560Y-113270200D01*
X125451560Y-113003500D01*
X125451560Y-112922220D01*
X125451560Y-112858720D01*
X125451560Y-112810460D01*
X125454100Y-112774900D01*
X125456640Y-112746960D01*
X125461720Y-112726640D01*
X125466800Y-112711400D01*
X125471880Y-112696160D01*
X125474420Y-112691080D01*
X125504900Y-112645360D01*
X125540460Y-112617420D01*
X125586180Y-112604720D01*
X125619200Y-112602180D01*
X125672540Y-112607260D01*
X125713180Y-112625040D01*
X125748740Y-112660600D01*
X125761440Y-112675840D01*
X125766520Y-112683460D01*
X125771600Y-112696160D01*
X125776680Y-112711400D01*
X125779220Y-112734260D01*
X125781760Y-112767280D01*
X125781760Y-112813000D01*
X125784300Y-112871420D01*
X125784300Y-112947620D01*
X125784300Y-112985720D01*
X125789380Y-113270200D01*
X125873200Y-113270200D01*
X125954480Y-113270200D01*
X125954480Y-112858720D01*
X125954480Y-112449780D01*
X125870660Y-112449780D01*
X125786840Y-112449780D01*
X125786840Y-112492960D01*
X125786840Y-112536140D01*
X125751280Y-112505660D01*
X125692860Y-112465020D01*
X125626820Y-112444700D01*
X125550620Y-112442160D01*
X125548080Y-112442160D01*
X125484580Y-112449780D01*
X125436320Y-112470100D01*
X125390600Y-112500580D01*
X125375360Y-112515820D01*
X125355040Y-112538680D01*
X125337260Y-112556460D01*
X125324560Y-112576780D01*
X125314400Y-112599640D01*
X125309320Y-112630120D01*
X125304240Y-112668220D01*
X125299160Y-112719020D01*
X125296620Y-112782520D01*
X125296620Y-112861260D01*
X125296620Y-112952700D01*
X125291540Y-113270200D01*
X125291540Y-113270200D01*
G36*
X121788880Y-112500580D02*
X121844760Y-112569160D01*
X121903180Y-112637740D01*
X121943820Y-112614880D01*
X121997160Y-112599640D01*
X122053040Y-112602180D01*
X122103840Y-112625040D01*
X122147020Y-112665680D01*
X122154640Y-112675840D01*
X122162260Y-112683460D01*
X122167340Y-112696160D01*
X122169880Y-112711400D01*
X122172420Y-112734260D01*
X122174960Y-112767280D01*
X122177500Y-112813000D01*
X122177500Y-112871420D01*
X122180040Y-112947620D01*
X122180040Y-112985720D01*
X122182580Y-113270200D01*
X122261320Y-113270200D01*
X122340060Y-113270200D01*
X122340060Y-112858720D01*
X122340060Y-112449780D01*
X122261320Y-112449780D01*
X122182580Y-112449780D01*
X122182580Y-112492960D01*
X122182580Y-112533600D01*
X122134320Y-112498040D01*
X122098760Y-112475180D01*
X122063200Y-112457400D01*
X122047960Y-112449780D01*
X121989540Y-112439620D01*
X121926040Y-112442160D01*
X121870160Y-112452320D01*
X121824440Y-112472640D01*
X121811740Y-112480260D01*
X121788880Y-112500580D01*
X121788880Y-112500580D01*
X121788880Y-112500580D01*
G37*
X121788880Y-112500580D02*
X121844760Y-112569160D01*
X121903180Y-112637740D01*
X121943820Y-112614880D01*
X121997160Y-112599640D01*
X122053040Y-112602180D01*
X122103840Y-112625040D01*
X122147020Y-112665680D01*
X122154640Y-112675840D01*
X122162260Y-112683460D01*
X122167340Y-112696160D01*
X122169880Y-112711400D01*
X122172420Y-112734260D01*
X122174960Y-112767280D01*
X122177500Y-112813000D01*
X122177500Y-112871420D01*
X122180040Y-112947620D01*
X122180040Y-112985720D01*
X122182580Y-113270200D01*
X122261320Y-113270200D01*
X122340060Y-113270200D01*
X122340060Y-112858720D01*
X122340060Y-112449780D01*
X122261320Y-112449780D01*
X122182580Y-112449780D01*
X122182580Y-112492960D01*
X122182580Y-112533600D01*
X122134320Y-112498040D01*
X122098760Y-112475180D01*
X122063200Y-112457400D01*
X122047960Y-112449780D01*
X121989540Y-112439620D01*
X121926040Y-112442160D01*
X121870160Y-112452320D01*
X121824440Y-112472640D01*
X121811740Y-112480260D01*
X121788880Y-112500580D01*
X121788880Y-112500580D01*
G36*
X121285960Y-109348440D02*
X121288500Y-109427180D01*
X121288500Y-109503380D01*
X121291040Y-109574500D01*
X121291040Y-109632920D01*
X121293580Y-109681180D01*
X121298660Y-109711660D01*
X121301200Y-109724360D01*
X121313900Y-109729440D01*
X121346920Y-109737060D01*
X121392640Y-109747220D01*
X121453600Y-109759920D01*
X121524720Y-109772620D01*
X121606000Y-109790400D01*
X121692360Y-109805640D01*
X121799040Y-109825960D01*
X121887940Y-109843740D01*
X121964140Y-109858980D01*
X122022560Y-109871680D01*
X122063200Y-109881840D01*
X122086060Y-109889460D01*
X122088600Y-109892000D01*
X122098760Y-109907240D01*
X122114000Y-109937720D01*
X122134320Y-109983440D01*
X122159720Y-110039320D01*
X122185120Y-110102820D01*
X122213060Y-110171400D01*
X122241000Y-110239980D01*
X122266400Y-110308560D01*
X122291800Y-110374600D01*
X122312120Y-110433020D01*
X122327360Y-110481280D01*
X122340060Y-110516840D01*
X122342600Y-110537160D01*
X122342600Y-110539700D01*
X122334980Y-110552400D01*
X122317200Y-110582880D01*
X122291800Y-110623520D01*
X122256240Y-110676860D01*
X122215600Y-110737820D01*
X122169880Y-110806400D01*
X122134320Y-110857200D01*
X122075900Y-110941020D01*
X122027640Y-111012140D01*
X121992080Y-111068020D01*
X121961600Y-111111200D01*
X121941280Y-111144220D01*
X121926040Y-111167080D01*
X121918420Y-111184860D01*
X121913340Y-111197560D01*
X121913340Y-111205180D01*
X121915880Y-111210260D01*
X121918420Y-111217880D01*
X121928580Y-111228040D01*
X121951440Y-111253440D01*
X121984460Y-111289000D01*
X122027640Y-111334720D01*
X122080980Y-111388060D01*
X122139400Y-111446480D01*
X122202900Y-111509980D01*
X122205440Y-111512520D01*
X122279100Y-111586180D01*
X122340060Y-111644600D01*
X122388320Y-111692860D01*
X122426420Y-111728420D01*
X122454360Y-111753820D01*
X122477220Y-111771600D01*
X122492460Y-111781760D01*
X122502620Y-111784300D01*
X122510240Y-111784300D01*
X122522940Y-111779220D01*
X122553420Y-111761440D01*
X122594060Y-111733500D01*
X122647400Y-111700480D01*
X122708360Y-111659840D01*
X122776940Y-111614120D01*
X122827740Y-111578560D01*
X122898860Y-111530300D01*
X122964900Y-111484580D01*
X123023320Y-111443940D01*
X123074120Y-111410920D01*
X123112220Y-111385520D01*
X123137620Y-111370280D01*
X123145240Y-111365200D01*
X123157940Y-111365200D01*
X123173180Y-111365200D01*
X123193500Y-111372820D01*
X123221440Y-111385520D01*
X123262080Y-111405840D01*
X123315420Y-111433780D01*
X123384000Y-111469340D01*
X123414480Y-111487120D01*
X123447500Y-111502360D01*
X123467820Y-111509980D01*
X123480520Y-111509980D01*
X123488140Y-111502360D01*
X123495760Y-111492200D01*
X123508460Y-111464260D01*
X123526240Y-111418540D01*
X123551640Y-111360120D01*
X123582120Y-111291540D01*
X123615140Y-111210260D01*
X123650700Y-111123900D01*
X123691340Y-111029920D01*
X123731980Y-110933400D01*
X123772620Y-110834340D01*
X123815800Y-110735280D01*
X123853900Y-110636220D01*
X123894540Y-110542240D01*
X123930100Y-110455880D01*
X123963120Y-110374600D01*
X123991060Y-110303480D01*
X124016460Y-110245060D01*
X124034240Y-110199340D01*
X124046940Y-110168860D01*
X124049480Y-110156160D01*
X124046940Y-110143460D01*
X124029160Y-110123140D01*
X123993600Y-110095200D01*
X123963120Y-110072340D01*
X123853900Y-109988520D01*
X123762460Y-109902160D01*
X123688800Y-109813260D01*
X123627840Y-109719280D01*
X123579580Y-109615140D01*
X123559260Y-109551640D01*
X123541480Y-109480520D01*
X123531320Y-109394160D01*
X123528780Y-109302720D01*
X123531320Y-109213820D01*
X123544020Y-109130000D01*
X123546560Y-109112220D01*
X123587200Y-108985220D01*
X123645620Y-108865840D01*
X123721820Y-108759160D01*
X123813260Y-108665180D01*
X123917400Y-108583900D01*
X124006300Y-108533100D01*
X124100280Y-108492460D01*
X124186640Y-108464520D01*
X124278080Y-108449280D01*
X124379680Y-108441660D01*
X124394920Y-108441660D01*
X124496520Y-108446740D01*
X124590500Y-108461980D01*
X124676860Y-108487380D01*
X124770840Y-108525480D01*
X124783540Y-108533100D01*
X124900380Y-108601680D01*
X125001980Y-108685500D01*
X125088340Y-108784560D01*
X125159460Y-108898860D01*
X125217880Y-109028400D01*
X125222960Y-109043640D01*
X125235660Y-109079200D01*
X125245820Y-109107140D01*
X125250900Y-109137620D01*
X125253440Y-109170640D01*
X125255980Y-109213820D01*
X125255980Y-109269700D01*
X125255980Y-109302720D01*
X125255980Y-109371300D01*
X125253440Y-109427180D01*
X125250900Y-109467820D01*
X125245820Y-109503380D01*
X125238200Y-109533860D01*
X125195020Y-109648160D01*
X125141680Y-109749760D01*
X125075640Y-109846280D01*
X124994360Y-109935180D01*
X124895300Y-110021540D01*
X124826720Y-110072340D01*
X124781000Y-110105360D01*
X124753060Y-110130760D01*
X124740360Y-110148540D01*
X124737820Y-110156160D01*
X124745440Y-110171400D01*
X124758140Y-110206960D01*
X124775920Y-110255220D01*
X124801320Y-110316180D01*
X124831800Y-110387300D01*
X124864820Y-110468580D01*
X124902920Y-110557480D01*
X124941020Y-110654000D01*
X124981660Y-110750520D01*
X125022300Y-110849580D01*
X125065480Y-110948640D01*
X125106120Y-111047700D01*
X125144220Y-111139140D01*
X125179780Y-111225500D01*
X125212800Y-111304240D01*
X125243280Y-111370280D01*
X125266140Y-111426160D01*
X125283920Y-111469340D01*
X125296620Y-111494740D01*
X125299160Y-111502360D01*
X125309320Y-111509980D01*
X125324560Y-111509980D01*
X125347420Y-111499820D01*
X125375360Y-111487120D01*
X125449020Y-111446480D01*
X125507440Y-111416000D01*
X125553160Y-111393140D01*
X125586180Y-111377900D01*
X125611580Y-111367740D01*
X125626820Y-111365200D01*
X125639520Y-111365200D01*
X125642060Y-111365200D01*
X125657300Y-111375360D01*
X125685240Y-111393140D01*
X125728420Y-111421080D01*
X125781760Y-111454100D01*
X125842720Y-111497280D01*
X125908760Y-111543000D01*
X125962100Y-111578560D01*
X126030680Y-111626820D01*
X126096720Y-111670000D01*
X126157680Y-111710640D01*
X126208480Y-111741120D01*
X126246580Y-111766520D01*
X126271980Y-111781760D01*
X126282140Y-111784300D01*
X126289760Y-111784300D01*
X126302460Y-111779220D01*
X126317700Y-111766520D01*
X126340560Y-111748740D01*
X126371040Y-111720800D01*
X126409140Y-111685240D01*
X126457400Y-111636980D01*
X126518360Y-111576020D01*
X126592020Y-111502360D01*
X126594560Y-111502360D01*
X126658060Y-111436320D01*
X126716480Y-111377900D01*
X126769820Y-111324560D01*
X126813000Y-111278840D01*
X126848560Y-111240740D01*
X126871420Y-111215340D01*
X126881580Y-111202640D01*
X126881580Y-111202640D01*
X126879040Y-111197560D01*
X126873960Y-111184860D01*
X126863800Y-111167080D01*
X126848560Y-111144220D01*
X126825700Y-111108660D01*
X126797760Y-111065480D01*
X126757120Y-111007060D01*
X126708860Y-110935940D01*
X126650440Y-110849580D01*
X126637740Y-110829260D01*
X126592020Y-110763220D01*
X126548840Y-110699720D01*
X126510740Y-110643840D01*
X126480260Y-110598120D01*
X126459940Y-110565100D01*
X126447240Y-110544780D01*
X126444700Y-110539700D01*
X126447240Y-110524460D01*
X126457400Y-110493980D01*
X126472640Y-110448260D01*
X126492960Y-110392380D01*
X126515820Y-110328880D01*
X126541220Y-110260300D01*
X126569160Y-110191720D01*
X126597100Y-110120600D01*
X126622500Y-110057100D01*
X126647900Y-109998680D01*
X126668220Y-109950420D01*
X126686000Y-109914860D01*
X126698700Y-109894540D01*
X126701240Y-109892000D01*
X126716480Y-109884380D01*
X126749500Y-109876760D01*
X126802840Y-109864060D01*
X126873960Y-109848820D01*
X126960320Y-109831040D01*
X127061920Y-109813260D01*
X127097480Y-109805640D01*
X127183840Y-109790400D01*
X127265120Y-109775160D01*
X127336240Y-109759920D01*
X127397200Y-109747220D01*
X127442920Y-109737060D01*
X127475940Y-109729440D01*
X127488640Y-109724360D01*
X127491180Y-109711660D01*
X127496260Y-109681180D01*
X127498800Y-109632920D01*
X127498800Y-109574500D01*
X127501340Y-109503380D01*
X127501340Y-109427180D01*
X127503880Y-109345900D01*
X127501340Y-109264620D01*
X127501340Y-109183340D01*
X127501340Y-109107140D01*
X127498800Y-109038560D01*
X127496260Y-108980140D01*
X127493720Y-108931880D01*
X127491180Y-108901400D01*
X127486100Y-108886160D01*
X127473400Y-108883620D01*
X127442920Y-108876000D01*
X127394660Y-108863300D01*
X127333700Y-108850600D01*
X127262580Y-108837900D01*
X127181300Y-108822660D01*
X127100020Y-108807420D01*
X127013660Y-108789640D01*
X126932380Y-108774400D01*
X126858720Y-108761700D01*
X126797760Y-108749000D01*
X126746960Y-108738840D01*
X126713940Y-108731220D01*
X126701240Y-108726140D01*
X126691080Y-108723600D01*
X126683460Y-108718520D01*
X126675840Y-108710900D01*
X126668220Y-108698200D01*
X126655520Y-108677880D01*
X126642820Y-108649940D01*
X126625040Y-108611840D01*
X126602180Y-108558500D01*
X126571700Y-108492460D01*
X126536140Y-108408640D01*
X126523440Y-108375620D01*
X126490420Y-108296880D01*
X126465020Y-108235920D01*
X126444700Y-108190200D01*
X126434540Y-108154640D01*
X126426920Y-108129240D01*
X126424380Y-108114000D01*
X126424380Y-108101300D01*
X126426920Y-108098760D01*
X126434540Y-108083520D01*
X126452320Y-108053040D01*
X126480260Y-108009860D01*
X126515820Y-107956520D01*
X126559000Y-107895560D01*
X126604720Y-107826980D01*
X126647900Y-107763480D01*
X126706320Y-107677120D01*
X126754580Y-107608540D01*
X126795220Y-107550120D01*
X126823160Y-107506940D01*
X126846020Y-107471380D01*
X126861260Y-107448520D01*
X126871420Y-107430740D01*
X126879040Y-107418040D01*
X126881580Y-107410420D01*
X126881580Y-107407880D01*
X126873960Y-107397720D01*
X126853640Y-107377400D01*
X126820620Y-107341840D01*
X126779980Y-107298660D01*
X126729180Y-107247860D01*
X126670760Y-107189440D01*
X126607260Y-107125940D01*
X126594560Y-107113240D01*
X126510740Y-107026880D01*
X126437080Y-106958300D01*
X126381200Y-106902420D01*
X126338020Y-106864320D01*
X126307540Y-106838920D01*
X126289760Y-106826220D01*
X126287220Y-106826220D01*
X126271980Y-106831300D01*
X126244040Y-106849080D01*
X126203400Y-106874480D01*
X126150060Y-106907500D01*
X126086560Y-106948140D01*
X126017980Y-106993860D01*
X125944320Y-107044660D01*
X125934160Y-107052280D01*
X125860500Y-107103080D01*
X125789380Y-107151340D01*
X125725880Y-107191980D01*
X125672540Y-107227540D01*
X125629360Y-107255480D01*
X125598880Y-107275800D01*
X125581100Y-107283420D01*
X125581100Y-107283420D01*
X125565860Y-107280880D01*
X125535380Y-107273260D01*
X125489660Y-107255480D01*
X125436320Y-107237700D01*
X125375360Y-107212300D01*
X125309320Y-107186900D01*
X125243280Y-107161500D01*
X125177240Y-107133560D01*
X125118820Y-107108160D01*
X125065480Y-107087840D01*
X125027380Y-107067520D01*
X124999440Y-107054820D01*
X124991820Y-107049740D01*
X124979120Y-107026880D01*
X124971500Y-107011640D01*
X124968960Y-106996400D01*
X124963880Y-106963380D01*
X124953720Y-106915120D01*
X124941020Y-106856700D01*
X124928320Y-106788120D01*
X124913080Y-106711920D01*
X124897840Y-106633180D01*
X124882600Y-106554440D01*
X124869900Y-106475700D01*
X124854660Y-106402040D01*
X124841960Y-106336000D01*
X124831800Y-106282660D01*
X124824180Y-106239480D01*
X124819100Y-106214080D01*
X124819100Y-106209000D01*
X124814020Y-106203920D01*
X124798780Y-106201380D01*
X124773380Y-106198840D01*
X124735280Y-106198840D01*
X124681940Y-106196300D01*
X124613360Y-106196300D01*
X124527000Y-106196300D01*
X124422860Y-106196300D01*
X124394920Y-106196300D01*
X124285700Y-106196300D01*
X124194260Y-106196300D01*
X124120600Y-106196300D01*
X124064720Y-106198840D01*
X124024080Y-106198840D01*
X123993600Y-106201380D01*
X123978360Y-106203920D01*
X123970740Y-106206460D01*
X123970740Y-106209000D01*
X123968200Y-106229320D01*
X123960580Y-106267420D01*
X123950420Y-106320760D01*
X123940260Y-106384260D01*
X123925020Y-106455380D01*
X123909780Y-106534120D01*
X123894540Y-106612860D01*
X123879300Y-106694140D01*
X123864060Y-106772880D01*
X123848820Y-106844000D01*
X123836120Y-106907500D01*
X123825960Y-106960840D01*
X123815800Y-107001480D01*
X123810720Y-107024340D01*
X123810720Y-107026880D01*
X123808180Y-107034500D01*
X123803100Y-107042120D01*
X123798020Y-107049740D01*
X123787860Y-107057360D01*
X123770080Y-107064980D01*
X123744680Y-107077680D01*
X123709120Y-107092920D01*
X123660860Y-107113240D01*
X123597360Y-107138640D01*
X123518620Y-107171660D01*
X123465280Y-107194520D01*
X123381460Y-107227540D01*
X123312880Y-107252940D01*
X123259540Y-107273260D01*
X123223980Y-107283420D01*
X123208740Y-107283420D01*
X123193500Y-107278340D01*
X123165560Y-107260560D01*
X123122380Y-107232620D01*
X123071580Y-107197060D01*
X123008080Y-107156420D01*
X122939500Y-107108160D01*
X122863300Y-107057360D01*
X122855680Y-107052280D01*
X122779480Y-107001480D01*
X122710900Y-106955760D01*
X122647400Y-106912580D01*
X122594060Y-106877020D01*
X122550880Y-106851620D01*
X122520400Y-106833840D01*
X122505160Y-106826220D01*
X122502620Y-106826220D01*
X122489920Y-106833840D01*
X122461980Y-106854160D01*
X122423880Y-106889720D01*
X122370540Y-106940520D01*
X122304500Y-107004020D01*
X122223220Y-107085300D01*
X122195280Y-107113240D01*
X122131780Y-107176740D01*
X122073360Y-107235160D01*
X122020020Y-107288500D01*
X121976840Y-107334220D01*
X121941280Y-107369780D01*
X121918420Y-107395180D01*
X121908260Y-107407880D01*
X121908260Y-107407880D01*
X121908260Y-107412960D01*
X121913340Y-107423120D01*
X121920960Y-107435820D01*
X121931120Y-107456140D01*
X121951440Y-107484080D01*
X121974300Y-107519640D01*
X122007320Y-107570440D01*
X122050500Y-107631400D01*
X122101300Y-107707600D01*
X122141940Y-107763480D01*
X122190200Y-107837140D01*
X122238460Y-107903180D01*
X122279100Y-107964140D01*
X122312120Y-108017480D01*
X122340060Y-108058120D01*
X122357840Y-108086060D01*
X122362920Y-108098760D01*
X122365460Y-108108920D01*
X122365460Y-108124160D01*
X122357840Y-108144480D01*
X122347680Y-108177500D01*
X122332440Y-108218140D01*
X122309580Y-108276560D01*
X122279100Y-108347680D01*
X122266400Y-108375620D01*
X122228300Y-108467060D01*
X122195280Y-108538180D01*
X122172420Y-108594060D01*
X122152100Y-108639780D01*
X122136860Y-108670260D01*
X122126700Y-108693120D01*
X122116540Y-108708360D01*
X122108920Y-108715980D01*
X122101300Y-108721060D01*
X122091140Y-108726140D01*
X122088600Y-108726140D01*
X122073360Y-108731220D01*
X122037800Y-108738840D01*
X121987000Y-108749000D01*
X121923500Y-108761700D01*
X121849840Y-108776940D01*
X121768560Y-108792180D01*
X121689820Y-108807420D01*
X121603460Y-108822660D01*
X121522180Y-108837900D01*
X121451060Y-108853140D01*
X121392640Y-108865840D01*
X121344380Y-108876000D01*
X121313900Y-108883620D01*
X121303740Y-108886160D01*
X121298660Y-108901400D01*
X121296120Y-108931880D01*
X121293580Y-108980140D01*
X121291040Y-109038560D01*
X121288500Y-109107140D01*
X121288500Y-109183340D01*
X121285960Y-109264620D01*
X121285960Y-109348440D01*
X121285960Y-109348440D01*
X121285960Y-109348440D01*
G37*
X121285960Y-109348440D02*
X121288500Y-109427180D01*
X121288500Y-109503380D01*
X121291040Y-109574500D01*
X121291040Y-109632920D01*
X121293580Y-109681180D01*
X121298660Y-109711660D01*
X121301200Y-109724360D01*
X121313900Y-109729440D01*
X121346920Y-109737060D01*
X121392640Y-109747220D01*
X121453600Y-109759920D01*
X121524720Y-109772620D01*
X121606000Y-109790400D01*
X121692360Y-109805640D01*
X121799040Y-109825960D01*
X121887940Y-109843740D01*
X121964140Y-109858980D01*
X122022560Y-109871680D01*
X122063200Y-109881840D01*
X122086060Y-109889460D01*
X122088600Y-109892000D01*
X122098760Y-109907240D01*
X122114000Y-109937720D01*
X122134320Y-109983440D01*
X122159720Y-110039320D01*
X122185120Y-110102820D01*
X122213060Y-110171400D01*
X122241000Y-110239980D01*
X122266400Y-110308560D01*
X122291800Y-110374600D01*
X122312120Y-110433020D01*
X122327360Y-110481280D01*
X122340060Y-110516840D01*
X122342600Y-110537160D01*
X122342600Y-110539700D01*
X122334980Y-110552400D01*
X122317200Y-110582880D01*
X122291800Y-110623520D01*
X122256240Y-110676860D01*
X122215600Y-110737820D01*
X122169880Y-110806400D01*
X122134320Y-110857200D01*
X122075900Y-110941020D01*
X122027640Y-111012140D01*
X121992080Y-111068020D01*
X121961600Y-111111200D01*
X121941280Y-111144220D01*
X121926040Y-111167080D01*
X121918420Y-111184860D01*
X121913340Y-111197560D01*
X121913340Y-111205180D01*
X121915880Y-111210260D01*
X121918420Y-111217880D01*
X121928580Y-111228040D01*
X121951440Y-111253440D01*
X121984460Y-111289000D01*
X122027640Y-111334720D01*
X122080980Y-111388060D01*
X122139400Y-111446480D01*
X122202900Y-111509980D01*
X122205440Y-111512520D01*
X122279100Y-111586180D01*
X122340060Y-111644600D01*
X122388320Y-111692860D01*
X122426420Y-111728420D01*
X122454360Y-111753820D01*
X122477220Y-111771600D01*
X122492460Y-111781760D01*
X122502620Y-111784300D01*
X122510240Y-111784300D01*
X122522940Y-111779220D01*
X122553420Y-111761440D01*
X122594060Y-111733500D01*
X122647400Y-111700480D01*
X122708360Y-111659840D01*
X122776940Y-111614120D01*
X122827740Y-111578560D01*
X122898860Y-111530300D01*
X122964900Y-111484580D01*
X123023320Y-111443940D01*
X123074120Y-111410920D01*
X123112220Y-111385520D01*
X123137620Y-111370280D01*
X123145240Y-111365200D01*
X123157940Y-111365200D01*
X123173180Y-111365200D01*
X123193500Y-111372820D01*
X123221440Y-111385520D01*
X123262080Y-111405840D01*
X123315420Y-111433780D01*
X123384000Y-111469340D01*
X123414480Y-111487120D01*
X123447500Y-111502360D01*
X123467820Y-111509980D01*
X123480520Y-111509980D01*
X123488140Y-111502360D01*
X123495760Y-111492200D01*
X123508460Y-111464260D01*
X123526240Y-111418540D01*
X123551640Y-111360120D01*
X123582120Y-111291540D01*
X123615140Y-111210260D01*
X123650700Y-111123900D01*
X123691340Y-111029920D01*
X123731980Y-110933400D01*
X123772620Y-110834340D01*
X123815800Y-110735280D01*
X123853900Y-110636220D01*
X123894540Y-110542240D01*
X123930100Y-110455880D01*
X123963120Y-110374600D01*
X123991060Y-110303480D01*
X124016460Y-110245060D01*
X124034240Y-110199340D01*
X124046940Y-110168860D01*
X124049480Y-110156160D01*
X124046940Y-110143460D01*
X124029160Y-110123140D01*
X123993600Y-110095200D01*
X123963120Y-110072340D01*
X123853900Y-109988520D01*
X123762460Y-109902160D01*
X123688800Y-109813260D01*
X123627840Y-109719280D01*
X123579580Y-109615140D01*
X123559260Y-109551640D01*
X123541480Y-109480520D01*
X123531320Y-109394160D01*
X123528780Y-109302720D01*
X123531320Y-109213820D01*
X123544020Y-109130000D01*
X123546560Y-109112220D01*
X123587200Y-108985220D01*
X123645620Y-108865840D01*
X123721820Y-108759160D01*
X123813260Y-108665180D01*
X123917400Y-108583900D01*
X124006300Y-108533100D01*
X124100280Y-108492460D01*
X124186640Y-108464520D01*
X124278080Y-108449280D01*
X124379680Y-108441660D01*
X124394920Y-108441660D01*
X124496520Y-108446740D01*
X124590500Y-108461980D01*
X124676860Y-108487380D01*
X124770840Y-108525480D01*
X124783540Y-108533100D01*
X124900380Y-108601680D01*
X125001980Y-108685500D01*
X125088340Y-108784560D01*
X125159460Y-108898860D01*
X125217880Y-109028400D01*
X125222960Y-109043640D01*
X125235660Y-109079200D01*
X125245820Y-109107140D01*
X125250900Y-109137620D01*
X125253440Y-109170640D01*
X125255980Y-109213820D01*
X125255980Y-109269700D01*
X125255980Y-109302720D01*
X125255980Y-109371300D01*
X125253440Y-109427180D01*
X125250900Y-109467820D01*
X125245820Y-109503380D01*
X125238200Y-109533860D01*
X125195020Y-109648160D01*
X125141680Y-109749760D01*
X125075640Y-109846280D01*
X124994360Y-109935180D01*
X124895300Y-110021540D01*
X124826720Y-110072340D01*
X124781000Y-110105360D01*
X124753060Y-110130760D01*
X124740360Y-110148540D01*
X124737820Y-110156160D01*
X124745440Y-110171400D01*
X124758140Y-110206960D01*
X124775920Y-110255220D01*
X124801320Y-110316180D01*
X124831800Y-110387300D01*
X124864820Y-110468580D01*
X124902920Y-110557480D01*
X124941020Y-110654000D01*
X124981660Y-110750520D01*
X125022300Y-110849580D01*
X125065480Y-110948640D01*
X125106120Y-111047700D01*
X125144220Y-111139140D01*
X125179780Y-111225500D01*
X125212800Y-111304240D01*
X125243280Y-111370280D01*
X125266140Y-111426160D01*
X125283920Y-111469340D01*
X125296620Y-111494740D01*
X125299160Y-111502360D01*
X125309320Y-111509980D01*
X125324560Y-111509980D01*
X125347420Y-111499820D01*
X125375360Y-111487120D01*
X125449020Y-111446480D01*
X125507440Y-111416000D01*
X125553160Y-111393140D01*
X125586180Y-111377900D01*
X125611580Y-111367740D01*
X125626820Y-111365200D01*
X125639520Y-111365200D01*
X125642060Y-111365200D01*
X125657300Y-111375360D01*
X125685240Y-111393140D01*
X125728420Y-111421080D01*
X125781760Y-111454100D01*
X125842720Y-111497280D01*
X125908760Y-111543000D01*
X125962100Y-111578560D01*
X126030680Y-111626820D01*
X126096720Y-111670000D01*
X126157680Y-111710640D01*
X126208480Y-111741120D01*
X126246580Y-111766520D01*
X126271980Y-111781760D01*
X126282140Y-111784300D01*
X126289760Y-111784300D01*
X126302460Y-111779220D01*
X126317700Y-111766520D01*
X126340560Y-111748740D01*
X126371040Y-111720800D01*
X126409140Y-111685240D01*
X126457400Y-111636980D01*
X126518360Y-111576020D01*
X126592020Y-111502360D01*
X126594560Y-111502360D01*
X126658060Y-111436320D01*
X126716480Y-111377900D01*
X126769820Y-111324560D01*
X126813000Y-111278840D01*
X126848560Y-111240740D01*
X126871420Y-111215340D01*
X126881580Y-111202640D01*
X126881580Y-111202640D01*
X126879040Y-111197560D01*
X126873960Y-111184860D01*
X126863800Y-111167080D01*
X126848560Y-111144220D01*
X126825700Y-111108660D01*
X126797760Y-111065480D01*
X126757120Y-111007060D01*
X126708860Y-110935940D01*
X126650440Y-110849580D01*
X126637740Y-110829260D01*
X126592020Y-110763220D01*
X126548840Y-110699720D01*
X126510740Y-110643840D01*
X126480260Y-110598120D01*
X126459940Y-110565100D01*
X126447240Y-110544780D01*
X126444700Y-110539700D01*
X126447240Y-110524460D01*
X126457400Y-110493980D01*
X126472640Y-110448260D01*
X126492960Y-110392380D01*
X126515820Y-110328880D01*
X126541220Y-110260300D01*
X126569160Y-110191720D01*
X126597100Y-110120600D01*
X126622500Y-110057100D01*
X126647900Y-109998680D01*
X126668220Y-109950420D01*
X126686000Y-109914860D01*
X126698700Y-109894540D01*
X126701240Y-109892000D01*
X126716480Y-109884380D01*
X126749500Y-109876760D01*
X126802840Y-109864060D01*
X126873960Y-109848820D01*
X126960320Y-109831040D01*
X127061920Y-109813260D01*
X127097480Y-109805640D01*
X127183840Y-109790400D01*
X127265120Y-109775160D01*
X127336240Y-109759920D01*
X127397200Y-109747220D01*
X127442920Y-109737060D01*
X127475940Y-109729440D01*
X127488640Y-109724360D01*
X127491180Y-109711660D01*
X127496260Y-109681180D01*
X127498800Y-109632920D01*
X127498800Y-109574500D01*
X127501340Y-109503380D01*
X127501340Y-109427180D01*
X127503880Y-109345900D01*
X127501340Y-109264620D01*
X127501340Y-109183340D01*
X127501340Y-109107140D01*
X127498800Y-109038560D01*
X127496260Y-108980140D01*
X127493720Y-108931880D01*
X127491180Y-108901400D01*
X127486100Y-108886160D01*
X127473400Y-108883620D01*
X127442920Y-108876000D01*
X127394660Y-108863300D01*
X127333700Y-108850600D01*
X127262580Y-108837900D01*
X127181300Y-108822660D01*
X127100020Y-108807420D01*
X127013660Y-108789640D01*
X126932380Y-108774400D01*
X126858720Y-108761700D01*
X126797760Y-108749000D01*
X126746960Y-108738840D01*
X126713940Y-108731220D01*
X126701240Y-108726140D01*
X126691080Y-108723600D01*
X126683460Y-108718520D01*
X126675840Y-108710900D01*
X126668220Y-108698200D01*
X126655520Y-108677880D01*
X126642820Y-108649940D01*
X126625040Y-108611840D01*
X126602180Y-108558500D01*
X126571700Y-108492460D01*
X126536140Y-108408640D01*
X126523440Y-108375620D01*
X126490420Y-108296880D01*
X126465020Y-108235920D01*
X126444700Y-108190200D01*
X126434540Y-108154640D01*
X126426920Y-108129240D01*
X126424380Y-108114000D01*
X126424380Y-108101300D01*
X126426920Y-108098760D01*
X126434540Y-108083520D01*
X126452320Y-108053040D01*
X126480260Y-108009860D01*
X126515820Y-107956520D01*
X126559000Y-107895560D01*
X126604720Y-107826980D01*
X126647900Y-107763480D01*
X126706320Y-107677120D01*
X126754580Y-107608540D01*
X126795220Y-107550120D01*
X126823160Y-107506940D01*
X126846020Y-107471380D01*
X126861260Y-107448520D01*
X126871420Y-107430740D01*
X126879040Y-107418040D01*
X126881580Y-107410420D01*
X126881580Y-107407880D01*
X126873960Y-107397720D01*
X126853640Y-107377400D01*
X126820620Y-107341840D01*
X126779980Y-107298660D01*
X126729180Y-107247860D01*
X126670760Y-107189440D01*
X126607260Y-107125940D01*
X126594560Y-107113240D01*
X126510740Y-107026880D01*
X126437080Y-106958300D01*
X126381200Y-106902420D01*
X126338020Y-106864320D01*
X126307540Y-106838920D01*
X126289760Y-106826220D01*
X126287220Y-106826220D01*
X126271980Y-106831300D01*
X126244040Y-106849080D01*
X126203400Y-106874480D01*
X126150060Y-106907500D01*
X126086560Y-106948140D01*
X126017980Y-106993860D01*
X125944320Y-107044660D01*
X125934160Y-107052280D01*
X125860500Y-107103080D01*
X125789380Y-107151340D01*
X125725880Y-107191980D01*
X125672540Y-107227540D01*
X125629360Y-107255480D01*
X125598880Y-107275800D01*
X125581100Y-107283420D01*
X125581100Y-107283420D01*
X125565860Y-107280880D01*
X125535380Y-107273260D01*
X125489660Y-107255480D01*
X125436320Y-107237700D01*
X125375360Y-107212300D01*
X125309320Y-107186900D01*
X125243280Y-107161500D01*
X125177240Y-107133560D01*
X125118820Y-107108160D01*
X125065480Y-107087840D01*
X125027380Y-107067520D01*
X124999440Y-107054820D01*
X124991820Y-107049740D01*
X124979120Y-107026880D01*
X124971500Y-107011640D01*
X124968960Y-106996400D01*
X124963880Y-106963380D01*
X124953720Y-106915120D01*
X124941020Y-106856700D01*
X124928320Y-106788120D01*
X124913080Y-106711920D01*
X124897840Y-106633180D01*
X124882600Y-106554440D01*
X124869900Y-106475700D01*
X124854660Y-106402040D01*
X124841960Y-106336000D01*
X124831800Y-106282660D01*
X124824180Y-106239480D01*
X124819100Y-106214080D01*
X124819100Y-106209000D01*
X124814020Y-106203920D01*
X124798780Y-106201380D01*
X124773380Y-106198840D01*
X124735280Y-106198840D01*
X124681940Y-106196300D01*
X124613360Y-106196300D01*
X124527000Y-106196300D01*
X124422860Y-106196300D01*
X124394920Y-106196300D01*
X124285700Y-106196300D01*
X124194260Y-106196300D01*
X124120600Y-106196300D01*
X124064720Y-106198840D01*
X124024080Y-106198840D01*
X123993600Y-106201380D01*
X123978360Y-106203920D01*
X123970740Y-106206460D01*
X123970740Y-106209000D01*
X123968200Y-106229320D01*
X123960580Y-106267420D01*
X123950420Y-106320760D01*
X123940260Y-106384260D01*
X123925020Y-106455380D01*
X123909780Y-106534120D01*
X123894540Y-106612860D01*
X123879300Y-106694140D01*
X123864060Y-106772880D01*
X123848820Y-106844000D01*
X123836120Y-106907500D01*
X123825960Y-106960840D01*
X123815800Y-107001480D01*
X123810720Y-107024340D01*
X123810720Y-107026880D01*
X123808180Y-107034500D01*
X123803100Y-107042120D01*
X123798020Y-107049740D01*
X123787860Y-107057360D01*
X123770080Y-107064980D01*
X123744680Y-107077680D01*
X123709120Y-107092920D01*
X123660860Y-107113240D01*
X123597360Y-107138640D01*
X123518620Y-107171660D01*
X123465280Y-107194520D01*
X123381460Y-107227540D01*
X123312880Y-107252940D01*
X123259540Y-107273260D01*
X123223980Y-107283420D01*
X123208740Y-107283420D01*
X123193500Y-107278340D01*
X123165560Y-107260560D01*
X123122380Y-107232620D01*
X123071580Y-107197060D01*
X123008080Y-107156420D01*
X122939500Y-107108160D01*
X122863300Y-107057360D01*
X122855680Y-107052280D01*
X122779480Y-107001480D01*
X122710900Y-106955760D01*
X122647400Y-106912580D01*
X122594060Y-106877020D01*
X122550880Y-106851620D01*
X122520400Y-106833840D01*
X122505160Y-106826220D01*
X122502620Y-106826220D01*
X122489920Y-106833840D01*
X122461980Y-106854160D01*
X122423880Y-106889720D01*
X122370540Y-106940520D01*
X122304500Y-107004020D01*
X122223220Y-107085300D01*
X122195280Y-107113240D01*
X122131780Y-107176740D01*
X122073360Y-107235160D01*
X122020020Y-107288500D01*
X121976840Y-107334220D01*
X121941280Y-107369780D01*
X121918420Y-107395180D01*
X121908260Y-107407880D01*
X121908260Y-107407880D01*
X121908260Y-107412960D01*
X121913340Y-107423120D01*
X121920960Y-107435820D01*
X121931120Y-107456140D01*
X121951440Y-107484080D01*
X121974300Y-107519640D01*
X122007320Y-107570440D01*
X122050500Y-107631400D01*
X122101300Y-107707600D01*
X122141940Y-107763480D01*
X122190200Y-107837140D01*
X122238460Y-107903180D01*
X122279100Y-107964140D01*
X122312120Y-108017480D01*
X122340060Y-108058120D01*
X122357840Y-108086060D01*
X122362920Y-108098760D01*
X122365460Y-108108920D01*
X122365460Y-108124160D01*
X122357840Y-108144480D01*
X122347680Y-108177500D01*
X122332440Y-108218140D01*
X122309580Y-108276560D01*
X122279100Y-108347680D01*
X122266400Y-108375620D01*
X122228300Y-108467060D01*
X122195280Y-108538180D01*
X122172420Y-108594060D01*
X122152100Y-108639780D01*
X122136860Y-108670260D01*
X122126700Y-108693120D01*
X122116540Y-108708360D01*
X122108920Y-108715980D01*
X122101300Y-108721060D01*
X122091140Y-108726140D01*
X122088600Y-108726140D01*
X122073360Y-108731220D01*
X122037800Y-108738840D01*
X121987000Y-108749000D01*
X121923500Y-108761700D01*
X121849840Y-108776940D01*
X121768560Y-108792180D01*
X121689820Y-108807420D01*
X121603460Y-108822660D01*
X121522180Y-108837900D01*
X121451060Y-108853140D01*
X121392640Y-108865840D01*
X121344380Y-108876000D01*
X121313900Y-108883620D01*
X121303740Y-108886160D01*
X121298660Y-108901400D01*
X121296120Y-108931880D01*
X121293580Y-108980140D01*
X121291040Y-109038560D01*
X121288500Y-109107140D01*
X121288500Y-109183340D01*
X121285960Y-109264620D01*
X121285960Y-109348440D01*
X121285960Y-109348440D01*
D10*
X118152381Y-131361905D02*
X117152381Y-131361905D01*
X117152381Y-131742858D01*
X117200000Y-131838096D01*
X117247619Y-131885715D01*
X117342857Y-131933334D01*
X117485714Y-131933334D01*
X117580952Y-131885715D01*
X117628571Y-131838096D01*
X117676190Y-131742858D01*
X117676190Y-131361905D01*
X117247619Y-132314286D02*
X117200000Y-132361905D01*
X117152381Y-132457143D01*
X117152381Y-132695239D01*
X117200000Y-132790477D01*
X117247619Y-132838096D01*
X117342857Y-132885715D01*
X117438095Y-132885715D01*
X117580952Y-132838096D01*
X118152381Y-132266667D01*
X118152381Y-132885715D01*
X118577496Y-87321488D02*
X118510152Y-87456175D01*
X118510153Y-87523519D01*
X118543825Y-87624535D01*
X118644840Y-87725550D01*
X118745855Y-87759222D01*
X118813198Y-87759222D01*
X118914214Y-87725550D01*
X119183588Y-87456175D01*
X118476481Y-86749069D01*
X118240778Y-86984771D01*
X118207107Y-87085786D01*
X118207107Y-87153130D01*
X118240778Y-87254145D01*
X118308122Y-87321488D01*
X118409137Y-87355160D01*
X118476481Y-87355160D01*
X118577496Y-87321488D01*
X118813198Y-87085786D01*
X118308123Y-87927580D02*
X117971405Y-88264298D01*
X118577496Y-88062267D02*
X117634688Y-87590862D01*
X118106092Y-88533672D01*
X117264298Y-87961252D02*
X116860237Y-88365313D01*
X117769374Y-88870389D02*
X117062268Y-88163282D01*
X116725550Y-88500000D02*
X116321488Y-88904061D01*
X117230626Y-89409137D02*
X116523519Y-88702030D01*
X116422504Y-90217260D02*
X116826565Y-89813198D01*
X116624535Y-90015229D02*
X115917428Y-89308122D01*
X116085786Y-89341794D01*
X116220473Y-89341794D01*
X116321488Y-89308122D01*
X98466666Y-120052381D02*
X98800000Y-119576190D01*
X99038095Y-120052381D02*
X99038095Y-119052381D01*
X98657142Y-119052381D01*
X98561904Y-119100000D01*
X98514285Y-119147619D01*
X98466666Y-119242857D01*
X98466666Y-119385714D01*
X98514285Y-119480952D01*
X98561904Y-119528571D01*
X98657142Y-119576190D01*
X99038095Y-119576190D01*
X97514285Y-120052381D02*
X98085714Y-120052381D01*
X97800000Y-120052381D02*
X97800000Y-119052381D01*
X97895238Y-119195238D01*
X97990476Y-119290476D01*
X98085714Y-119338095D01*
X127633333Y-120004762D02*
X127490476Y-120052381D01*
X127252380Y-120052381D01*
X127157142Y-120004762D01*
X127109523Y-119957143D01*
X127061904Y-119861905D01*
X127061904Y-119766667D01*
X127109523Y-119671429D01*
X127157142Y-119623810D01*
X127252380Y-119576190D01*
X127442857Y-119528571D01*
X127538095Y-119480952D01*
X127585714Y-119433333D01*
X127633333Y-119338095D01*
X127633333Y-119242857D01*
X127585714Y-119147619D01*
X127538095Y-119100000D01*
X127442857Y-119052381D01*
X127204761Y-119052381D01*
X127061904Y-119100000D01*
X126728571Y-119052381D02*
X126490476Y-120052381D01*
X126299999Y-119338095D01*
X126109523Y-120052381D01*
X125871428Y-119052381D01*
X124966666Y-120052381D02*
X125538095Y-120052381D01*
X125252381Y-120052381D02*
X125252381Y-119052381D01*
X125347619Y-119195238D01*
X125442857Y-119290476D01*
X125538095Y-119338095D01*
X107752381Y-120161905D02*
X106752381Y-120161905D01*
X106752381Y-120542858D01*
X106800000Y-120638096D01*
X106847619Y-120685715D01*
X106942857Y-120733334D01*
X107085714Y-120733334D01*
X107180952Y-120685715D01*
X107228571Y-120638096D01*
X107276190Y-120542858D01*
X107276190Y-120161905D01*
X107752381Y-121685715D02*
X107752381Y-121114286D01*
X107752381Y-121400000D02*
X106752381Y-121400000D01*
X106895238Y-121304762D01*
X106990476Y-121209524D01*
X107038095Y-121114286D01*
M02*
