G04 #@! TF.FileFunction,Copper,L2,Bot,Signal*
%FSLAX46Y46*%
G04 Gerber Fmt 4.6, Leading zero omitted, Abs format (unit mm)*
G04 Created by KiCad (PCBNEW (2014-11-29 BZR 5307)-product) date 2/1/2015 9:55:14 PM*
%MOMM*%
G01*
G04 APERTURE LIST*
%ADD10C,0.150000*%
%ADD11R,1.600000X0.800000*%
%ADD12R,3.000000X2.100000*%
%ADD13R,1.500000X1.300000*%
%ADD14R,0.900000X1.000000*%
%ADD15C,1.000000*%
%ADD16C,0.300000*%
%ADD17C,0.254000*%
G04 APERTURE END LIST*
D10*
D11*
X118100000Y-124000000D03*
X118100000Y-125250000D03*
X118100000Y-126500000D03*
X118100000Y-127750000D03*
X118100000Y-129000000D03*
D12*
X121000000Y-121450000D03*
X121000000Y-131550000D03*
D10*
G36*
X101711596Y-116263278D02*
X99236722Y-113788404D01*
X101499464Y-111525662D01*
X103974338Y-114000536D01*
X101711596Y-116263278D01*
X101711596Y-116263278D01*
G37*
G36*
X122500536Y-95474338D02*
X120025662Y-92999464D01*
X122288404Y-90736722D01*
X124763278Y-93211596D01*
X122500536Y-95474338D01*
X122500536Y-95474338D01*
G37*
D13*
X96950000Y-117500000D03*
X99650000Y-117500000D03*
D14*
X124250000Y-117450000D03*
X128350000Y-117450000D03*
X124250000Y-115850000D03*
X128350000Y-115850000D03*
D11*
X106900000Y-129000000D03*
X106900000Y-127750000D03*
X106900000Y-126500000D03*
X106900000Y-125250000D03*
X106900000Y-124000000D03*
D12*
X104000000Y-131550000D03*
X104000000Y-121450000D03*
D15*
X123150000Y-100250000D03*
X124400000Y-101450000D03*
X115900000Y-100850000D03*
X101050000Y-104500000D03*
X97300000Y-104750000D03*
X112275000Y-108975000D03*
X112325000Y-111175000D03*
X111300000Y-114550000D03*
X106900000Y-134450000D03*
X118100000Y-134450000D03*
X126950000Y-107750000D03*
X106150000Y-96750000D03*
X127700000Y-104600000D03*
X116500000Y-98900000D03*
X112500000Y-88200000D03*
X110900000Y-97400000D03*
X109500000Y-121000000D03*
X116500000Y-113900000D03*
X116500000Y-119100000D03*
X105000000Y-119000000D03*
X105000000Y-127700000D03*
X98550000Y-115625000D03*
X99310000Y-119180000D03*
X103250000Y-106200000D03*
X105040000Y-106270000D03*
X109000000Y-97500000D03*
X121500000Y-110400000D03*
X106975000Y-107575000D03*
X111050000Y-106225000D03*
X117450000Y-109150000D03*
X117500000Y-117000000D03*
X120800000Y-118100000D03*
X120000000Y-108500000D03*
X120000000Y-125100000D03*
X123000000Y-110500000D03*
X117150000Y-102675000D03*
X116500000Y-129100000D03*
X117100000Y-104000000D03*
X118700000Y-119200000D03*
X116500000Y-121000000D03*
X96600000Y-119200000D03*
X103000000Y-129000000D03*
X119100000Y-96200000D03*
X112670611Y-96499666D03*
X111075000Y-104850000D03*
X124430000Y-111960000D03*
D16*
X123150000Y-100250000D02*
X123200000Y-100250000D01*
X123200000Y-100250000D02*
X124400000Y-101450000D01*
X112325000Y-113525000D02*
X112325000Y-111175000D01*
X111300000Y-114550000D02*
X112325000Y-113525000D01*
X116500000Y-119100000D02*
X116500000Y-119200000D01*
X114700000Y-121000000D02*
X109500000Y-121000000D01*
X116500000Y-119200000D02*
X114700000Y-121000000D01*
X116500000Y-119100000D02*
X116500000Y-113900000D01*
X106900000Y-127750000D02*
X105050000Y-127750000D01*
X105050000Y-127750000D02*
X105000000Y-127700000D01*
X99350000Y-117500000D02*
X104000000Y-117500000D01*
X104000000Y-117500000D02*
X105000000Y-118500000D01*
X105000000Y-118500000D02*
X105000000Y-119000000D01*
X105250000Y-127950000D02*
X105000000Y-127700000D01*
X99650000Y-116725000D02*
X98550000Y-115625000D01*
X99650000Y-117500000D02*
X99650000Y-116725000D01*
X99650000Y-118840000D02*
X99310000Y-119180000D01*
X99650000Y-117500000D02*
X99650000Y-118840000D01*
X109000000Y-100200000D02*
X103250000Y-105950000D01*
X103250000Y-105950000D02*
X103250000Y-106200000D01*
X109000000Y-97500000D02*
X109000000Y-100200000D01*
X124250000Y-117450000D02*
X123300000Y-117450000D01*
X121790000Y-113690000D02*
X121500000Y-113400000D01*
X121500000Y-113400000D02*
X121500000Y-110400000D01*
X122700000Y-114600000D02*
X121790000Y-113690000D01*
X122700000Y-116850000D02*
X122700000Y-114600000D01*
X123300000Y-117450000D02*
X122700000Y-116850000D01*
X106900000Y-125250000D02*
X108250000Y-125250000D01*
X106975000Y-108075000D02*
X106975000Y-107575000D01*
X106000000Y-109500000D02*
X106975000Y-108075000D01*
X106000000Y-112500000D02*
X106000000Y-109500000D01*
X107000000Y-113500000D02*
X106000000Y-112500000D01*
X107000000Y-116500000D02*
X107000000Y-113500000D01*
X108500000Y-118000000D02*
X107000000Y-116500000D01*
X108500000Y-125000000D02*
X108500000Y-118000000D01*
X108250000Y-125250000D02*
X108500000Y-125000000D01*
X106900000Y-118000000D02*
X106900000Y-124000000D01*
X105175000Y-116275000D02*
X106900000Y-118000000D01*
X105175000Y-107725000D02*
X105175000Y-116275000D01*
X106725000Y-106175000D02*
X105175000Y-107725000D01*
X111000000Y-106175000D02*
X106725000Y-106175000D01*
X111050000Y-106225000D02*
X111000000Y-106175000D01*
X117500000Y-112000000D02*
X117500000Y-117000000D01*
X117500000Y-109200000D02*
X117500000Y-112000000D01*
X117450000Y-109150000D02*
X117500000Y-109200000D01*
X118100000Y-124000000D02*
X118100000Y-120700000D01*
X117500000Y-118097500D02*
X117500000Y-117000000D01*
X117500000Y-120100000D02*
X117500000Y-118097500D01*
X118100000Y-120700000D02*
X117500000Y-120100000D01*
X120000000Y-110500000D02*
X120000000Y-108500000D01*
X120000000Y-111100000D02*
X120000000Y-110500000D01*
X120700000Y-111800000D02*
X120000000Y-111100000D01*
X120700000Y-118000000D02*
X120700000Y-111800000D01*
X120700000Y-118000000D02*
X120800000Y-118100000D01*
X118100000Y-125250000D02*
X119850000Y-125250000D01*
X119850000Y-125250000D02*
X120000000Y-125100000D01*
X119750000Y-125350000D02*
X120000000Y-125100000D01*
X119200000Y-106500000D02*
X118700000Y-106000000D01*
X118700000Y-106000000D02*
X118700000Y-103800000D01*
X118700000Y-103800000D02*
X117900000Y-103000000D01*
X123000000Y-109000000D02*
X123000000Y-110500000D01*
X120500000Y-106500000D02*
X123000000Y-109000000D01*
X120500000Y-106500000D02*
X119200000Y-106500000D01*
X117600000Y-102700000D02*
X117900000Y-103000000D01*
X117175000Y-102700000D02*
X117600000Y-102700000D01*
X117150000Y-102675000D02*
X117175000Y-102700000D01*
X118100000Y-129000000D02*
X116500000Y-129000000D01*
X116500000Y-129000000D02*
X116500000Y-129100000D01*
X117200000Y-104100000D02*
X117100000Y-104000000D01*
X118600000Y-108800000D02*
X117200000Y-107400000D01*
X118600000Y-119100000D02*
X118600000Y-108800000D01*
X118700000Y-119200000D02*
X118600000Y-119100000D01*
X117200000Y-107400000D02*
X117200000Y-104100000D01*
X118100000Y-127750000D02*
X116750000Y-127750000D01*
X116500000Y-122000000D02*
X116500000Y-121000000D01*
X116500000Y-127500000D02*
X116500000Y-122000000D01*
X116750000Y-127750000D02*
X116500000Y-127500000D01*
X96600000Y-117850000D02*
X96950000Y-117500000D01*
X96600000Y-119200000D02*
X96750000Y-119050000D01*
X106900000Y-129000000D02*
X103000000Y-129000000D01*
X101605530Y-113894470D02*
X99605530Y-113894470D01*
X99605530Y-113894470D02*
X99500000Y-114000000D01*
X99500000Y-114000000D02*
X98000000Y-114000000D01*
X98000000Y-114000000D02*
X97050000Y-115350000D01*
X97050000Y-115350000D02*
X97050000Y-118000000D01*
X96950000Y-118850000D02*
X96600000Y-119200000D01*
X96950000Y-117500000D02*
X96950000Y-118850000D01*
X119100000Y-96200000D02*
X118975000Y-96325000D01*
X118975000Y-96325000D02*
X119000000Y-102800000D01*
X119000000Y-102800000D02*
X124457500Y-108282500D01*
X112600000Y-100300000D02*
X112670611Y-96499666D01*
X111225000Y-101675000D02*
X112600000Y-100300000D01*
X111225000Y-104700000D02*
X111225000Y-101675000D01*
X111075000Y-104850000D02*
X111225000Y-104700000D01*
X124430000Y-111960000D02*
X124457500Y-111932500D01*
X124457500Y-111932500D02*
X124457500Y-108282500D01*
D17*
G36*
X130073000Y-120673000D02*
X129235365Y-120673000D01*
X129235365Y-117950000D01*
X129235365Y-116950000D01*
X129203776Y-116787186D01*
X129109777Y-116644091D01*
X129161993Y-116591876D01*
X129227000Y-116434936D01*
X129227000Y-116265065D01*
X129227000Y-116079750D01*
X129227000Y-115620250D01*
X129227000Y-115434935D01*
X129227000Y-115265064D01*
X129161993Y-115108124D01*
X129041876Y-114988007D01*
X128884935Y-114923000D01*
X128579750Y-114923000D01*
X128473000Y-115029750D01*
X128473000Y-115727000D01*
X129120250Y-115727000D01*
X129227000Y-115620250D01*
X129227000Y-116079750D01*
X129120250Y-115973000D01*
X128473000Y-115973000D01*
X128473000Y-115993000D01*
X128227000Y-115993000D01*
X128227000Y-115973000D01*
X128227000Y-115727000D01*
X128227000Y-115029750D01*
X128120250Y-114923000D01*
X127815065Y-114923000D01*
X127658124Y-114988007D01*
X127538007Y-115108124D01*
X127473000Y-115265064D01*
X127473000Y-115434935D01*
X127473000Y-115620250D01*
X127579750Y-115727000D01*
X128227000Y-115727000D01*
X128227000Y-115973000D01*
X127579750Y-115973000D01*
X127473000Y-116079750D01*
X127473000Y-116265065D01*
X127473000Y-116434936D01*
X127538007Y-116591876D01*
X127590971Y-116644840D01*
X127498300Y-116782132D01*
X127464635Y-116950000D01*
X127464635Y-117950000D01*
X127496224Y-118112814D01*
X127590224Y-118255912D01*
X127732132Y-118351700D01*
X127900000Y-118385365D01*
X128800000Y-118385365D01*
X128962814Y-118353776D01*
X129105912Y-118259776D01*
X129201700Y-118117868D01*
X129235365Y-117950000D01*
X129235365Y-120673000D01*
X123120174Y-120673000D01*
X122433000Y-122101033D01*
X122433000Y-130079043D01*
X123613000Y-131379043D01*
X123613000Y-134302920D01*
X122440790Y-135103000D01*
X117246810Y-135103000D01*
X117238888Y-129823109D01*
X117300000Y-129835365D01*
X118900000Y-129835365D01*
X119062814Y-129803776D01*
X119205912Y-129709776D01*
X119301700Y-129567868D01*
X119335365Y-129400000D01*
X119335365Y-128600000D01*
X119303776Y-128437186D01*
X119263029Y-128375157D01*
X119301700Y-128317868D01*
X119335365Y-128150000D01*
X119335365Y-127350000D01*
X119303776Y-127187186D01*
X119266641Y-127130654D01*
X119327000Y-126984935D01*
X119327000Y-126729750D01*
X119220250Y-126623000D01*
X118223000Y-126623000D01*
X118223000Y-126643000D01*
X117977000Y-126643000D01*
X117977000Y-126623000D01*
X117957000Y-126623000D01*
X117957000Y-126377000D01*
X117977000Y-126377000D01*
X117977000Y-126357000D01*
X118223000Y-126357000D01*
X118223000Y-126377000D01*
X119220250Y-126377000D01*
X119327000Y-126270250D01*
X119327000Y-126015065D01*
X119266759Y-125869631D01*
X119295535Y-125827000D01*
X119415898Y-125827000D01*
X119474211Y-125885414D01*
X119814799Y-126026839D01*
X120183583Y-126027161D01*
X120524417Y-125886331D01*
X120785414Y-125625789D01*
X120926839Y-125285201D01*
X120927161Y-124916417D01*
X120786331Y-124575583D01*
X120525789Y-124314586D01*
X120185201Y-124173161D01*
X119816417Y-124172839D01*
X119475583Y-124313669D01*
X119321914Y-124467069D01*
X119335365Y-124400000D01*
X119335365Y-123600000D01*
X119303776Y-123437186D01*
X119209776Y-123294088D01*
X119067868Y-123198300D01*
X118900000Y-123164635D01*
X118677000Y-123164635D01*
X118677000Y-120712219D01*
X120347073Y-119277000D01*
X124452605Y-119277000D01*
X125577000Y-118152605D01*
X125577000Y-112700124D01*
X125587101Y-107528605D01*
X125190278Y-107119757D01*
X125190278Y-93296532D01*
X125190278Y-93126660D01*
X125125271Y-92969720D01*
X125005154Y-92849603D01*
X123990233Y-91834682D01*
X123839266Y-91834682D01*
X123665318Y-92008630D01*
X123665318Y-91660734D01*
X123665318Y-91509767D01*
X122650397Y-90494846D01*
X122530280Y-90374729D01*
X122373340Y-90309722D01*
X122203468Y-90309722D01*
X122046528Y-90374730D01*
X121017556Y-91403701D01*
X121017556Y-91554668D01*
X122394470Y-92931582D01*
X123665318Y-91660734D01*
X123665318Y-92008630D01*
X122568418Y-93105530D01*
X123945332Y-94482444D01*
X124096299Y-94482444D01*
X125125270Y-93453472D01*
X125190278Y-93296532D01*
X125190278Y-107119757D01*
X124927000Y-106848502D01*
X124927000Y-103247395D01*
X123771384Y-102091779D01*
X123771384Y-94807359D01*
X123771384Y-94656392D01*
X122394470Y-93279478D01*
X122220522Y-93453426D01*
X122220522Y-93105530D01*
X120843608Y-91728616D01*
X120692641Y-91728616D01*
X119663670Y-92757588D01*
X119598662Y-92914528D01*
X119598662Y-93084400D01*
X119663669Y-93241340D01*
X119783786Y-93361457D01*
X120798707Y-94376378D01*
X120949674Y-94376378D01*
X122220522Y-93105530D01*
X122220522Y-93453426D01*
X121123622Y-94550326D01*
X121123622Y-94701293D01*
X122138543Y-95716214D01*
X122258660Y-95836331D01*
X122415600Y-95901338D01*
X122585472Y-95901338D01*
X122742412Y-95836330D01*
X123771384Y-94807359D01*
X123771384Y-102091779D01*
X121452605Y-99773000D01*
X119565317Y-99773000D01*
X119554669Y-97015150D01*
X119624417Y-96986331D01*
X119885414Y-96725789D01*
X120026839Y-96385201D01*
X120027161Y-96016417D01*
X119886331Y-95675583D01*
X119625789Y-95414586D01*
X119285201Y-95273161D01*
X118916417Y-95272839D01*
X118575583Y-95413669D01*
X118314586Y-95674211D01*
X118173161Y-96014799D01*
X118172839Y-96383583D01*
X118313669Y-96724417D01*
X118399870Y-96810769D01*
X118411308Y-99773000D01*
X116864595Y-99773000D01*
X116848562Y-101344287D01*
X115723247Y-102394581D01*
X115698000Y-108024715D01*
X115698000Y-113414154D01*
X115573161Y-113714799D01*
X115572839Y-114083583D01*
X115698000Y-114386495D01*
X115698000Y-118548211D01*
X114646576Y-119623000D01*
X110022553Y-119623000D01*
X109327546Y-119017672D01*
X109352572Y-116365016D01*
X108552638Y-115715070D01*
X108577474Y-113355654D01*
X107202000Y-111655068D01*
X107202000Y-108919549D01*
X107836039Y-108127000D01*
X112152000Y-108127000D01*
X112152000Y-102324164D01*
X113427000Y-100924164D01*
X113427000Y-97054429D01*
X113456025Y-97025455D01*
X113597450Y-96684867D01*
X113597772Y-96316083D01*
X113456942Y-95975249D01*
X113196400Y-95714252D01*
X112855812Y-95572827D01*
X112487028Y-95572505D01*
X112146194Y-95713335D01*
X112086424Y-95773000D01*
X108553020Y-95773000D01*
X107073000Y-97041588D01*
X107073000Y-97640516D01*
X106554020Y-98073000D01*
X104147395Y-98073000D01*
X101873000Y-100347395D01*
X101873000Y-108956981D01*
X95543000Y-115216981D01*
X95543000Y-119617224D01*
X96241848Y-120427000D01*
X105745986Y-120427000D01*
X106323000Y-121026207D01*
X106323000Y-123164635D01*
X106100000Y-123164635D01*
X105937186Y-123196224D01*
X105794088Y-123290224D01*
X105698300Y-123432132D01*
X105664635Y-123600000D01*
X105664635Y-124400000D01*
X105696224Y-124562814D01*
X105736970Y-124624842D01*
X105698300Y-124682132D01*
X105664635Y-124850000D01*
X105664635Y-125650000D01*
X105696224Y-125812814D01*
X105733358Y-125869345D01*
X105673000Y-126015065D01*
X105673000Y-126270250D01*
X105779750Y-126377000D01*
X106777000Y-126377000D01*
X106777000Y-126357000D01*
X107023000Y-126357000D01*
X107023000Y-126377000D01*
X108020250Y-126377000D01*
X108127000Y-126270250D01*
X108127000Y-126027000D01*
X108973000Y-126027000D01*
X108973000Y-135073000D01*
X102589829Y-135073000D01*
X101527000Y-134333641D01*
X101527000Y-131053504D01*
X102577000Y-130028504D01*
X102577000Y-129828095D01*
X102814799Y-129926839D01*
X103183583Y-129927161D01*
X103524417Y-129786331D01*
X103734113Y-129577000D01*
X105705542Y-129577000D01*
X105790224Y-129705912D01*
X105932132Y-129801700D01*
X106100000Y-129835365D01*
X107700000Y-129835365D01*
X107862814Y-129803776D01*
X108005912Y-129709776D01*
X108101700Y-129567868D01*
X108135365Y-129400000D01*
X108135365Y-128600000D01*
X108103776Y-128437186D01*
X108063029Y-128375157D01*
X108101700Y-128317868D01*
X108135365Y-128150000D01*
X108135365Y-127350000D01*
X108103776Y-127187186D01*
X108066641Y-127130654D01*
X108127000Y-126984935D01*
X108127000Y-126729750D01*
X108020250Y-126623000D01*
X107023000Y-126623000D01*
X107023000Y-126643000D01*
X106777000Y-126643000D01*
X106777000Y-126623000D01*
X105779750Y-126623000D01*
X105673000Y-126729750D01*
X105673000Y-126984935D01*
X105727598Y-127116748D01*
X105525789Y-126914586D01*
X105185201Y-126773161D01*
X104816417Y-126772839D01*
X104475583Y-126913669D01*
X104214586Y-127174211D01*
X104073161Y-127514799D01*
X104072839Y-127883583D01*
X104213669Y-128224417D01*
X104411905Y-128423000D01*
X103733839Y-128423000D01*
X103525789Y-128214586D01*
X103185201Y-128073161D01*
X102816417Y-128072839D01*
X102577000Y-128171764D01*
X102577000Y-122500367D01*
X101866587Y-121473000D01*
X94955526Y-121473000D01*
X93917000Y-120350269D01*
X93917000Y-114912156D01*
X98025756Y-110753415D01*
X98094178Y-107899251D01*
X98250829Y-107889142D01*
X95427000Y-104751269D01*
X95427000Y-104049306D01*
X98627000Y-100549306D01*
X98627000Y-94853105D01*
X106052107Y-87527000D01*
X119849817Y-87527000D01*
X126073000Y-93355060D01*
X126073000Y-100456669D01*
X129973000Y-103956669D01*
X129973000Y-105150467D01*
X127673000Y-107650467D01*
X127673000Y-109860857D01*
X127662087Y-109915721D01*
X127662087Y-109915722D01*
X127662087Y-110084278D01*
X127662087Y-110084279D01*
X127673000Y-110139142D01*
X127673000Y-111151093D01*
X130073000Y-113651093D01*
X130073000Y-120673000D01*
X130073000Y-120673000D01*
G37*
X130073000Y-120673000D02*
X129235365Y-120673000D01*
X129235365Y-117950000D01*
X129235365Y-116950000D01*
X129203776Y-116787186D01*
X129109777Y-116644091D01*
X129161993Y-116591876D01*
X129227000Y-116434936D01*
X129227000Y-116265065D01*
X129227000Y-116079750D01*
X129227000Y-115620250D01*
X129227000Y-115434935D01*
X129227000Y-115265064D01*
X129161993Y-115108124D01*
X129041876Y-114988007D01*
X128884935Y-114923000D01*
X128579750Y-114923000D01*
X128473000Y-115029750D01*
X128473000Y-115727000D01*
X129120250Y-115727000D01*
X129227000Y-115620250D01*
X129227000Y-116079750D01*
X129120250Y-115973000D01*
X128473000Y-115973000D01*
X128473000Y-115993000D01*
X128227000Y-115993000D01*
X128227000Y-115973000D01*
X128227000Y-115727000D01*
X128227000Y-115029750D01*
X128120250Y-114923000D01*
X127815065Y-114923000D01*
X127658124Y-114988007D01*
X127538007Y-115108124D01*
X127473000Y-115265064D01*
X127473000Y-115434935D01*
X127473000Y-115620250D01*
X127579750Y-115727000D01*
X128227000Y-115727000D01*
X128227000Y-115973000D01*
X127579750Y-115973000D01*
X127473000Y-116079750D01*
X127473000Y-116265065D01*
X127473000Y-116434936D01*
X127538007Y-116591876D01*
X127590971Y-116644840D01*
X127498300Y-116782132D01*
X127464635Y-116950000D01*
X127464635Y-117950000D01*
X127496224Y-118112814D01*
X127590224Y-118255912D01*
X127732132Y-118351700D01*
X127900000Y-118385365D01*
X128800000Y-118385365D01*
X128962814Y-118353776D01*
X129105912Y-118259776D01*
X129201700Y-118117868D01*
X129235365Y-117950000D01*
X129235365Y-120673000D01*
X123120174Y-120673000D01*
X122433000Y-122101033D01*
X122433000Y-130079043D01*
X123613000Y-131379043D01*
X123613000Y-134302920D01*
X122440790Y-135103000D01*
X117246810Y-135103000D01*
X117238888Y-129823109D01*
X117300000Y-129835365D01*
X118900000Y-129835365D01*
X119062814Y-129803776D01*
X119205912Y-129709776D01*
X119301700Y-129567868D01*
X119335365Y-129400000D01*
X119335365Y-128600000D01*
X119303776Y-128437186D01*
X119263029Y-128375157D01*
X119301700Y-128317868D01*
X119335365Y-128150000D01*
X119335365Y-127350000D01*
X119303776Y-127187186D01*
X119266641Y-127130654D01*
X119327000Y-126984935D01*
X119327000Y-126729750D01*
X119220250Y-126623000D01*
X118223000Y-126623000D01*
X118223000Y-126643000D01*
X117977000Y-126643000D01*
X117977000Y-126623000D01*
X117957000Y-126623000D01*
X117957000Y-126377000D01*
X117977000Y-126377000D01*
X117977000Y-126357000D01*
X118223000Y-126357000D01*
X118223000Y-126377000D01*
X119220250Y-126377000D01*
X119327000Y-126270250D01*
X119327000Y-126015065D01*
X119266759Y-125869631D01*
X119295535Y-125827000D01*
X119415898Y-125827000D01*
X119474211Y-125885414D01*
X119814799Y-126026839D01*
X120183583Y-126027161D01*
X120524417Y-125886331D01*
X120785414Y-125625789D01*
X120926839Y-125285201D01*
X120927161Y-124916417D01*
X120786331Y-124575583D01*
X120525789Y-124314586D01*
X120185201Y-124173161D01*
X119816417Y-124172839D01*
X119475583Y-124313669D01*
X119321914Y-124467069D01*
X119335365Y-124400000D01*
X119335365Y-123600000D01*
X119303776Y-123437186D01*
X119209776Y-123294088D01*
X119067868Y-123198300D01*
X118900000Y-123164635D01*
X118677000Y-123164635D01*
X118677000Y-120712219D01*
X120347073Y-119277000D01*
X124452605Y-119277000D01*
X125577000Y-118152605D01*
X125577000Y-112700124D01*
X125587101Y-107528605D01*
X125190278Y-107119757D01*
X125190278Y-93296532D01*
X125190278Y-93126660D01*
X125125271Y-92969720D01*
X125005154Y-92849603D01*
X123990233Y-91834682D01*
X123839266Y-91834682D01*
X123665318Y-92008630D01*
X123665318Y-91660734D01*
X123665318Y-91509767D01*
X122650397Y-90494846D01*
X122530280Y-90374729D01*
X122373340Y-90309722D01*
X122203468Y-90309722D01*
X122046528Y-90374730D01*
X121017556Y-91403701D01*
X121017556Y-91554668D01*
X122394470Y-92931582D01*
X123665318Y-91660734D01*
X123665318Y-92008630D01*
X122568418Y-93105530D01*
X123945332Y-94482444D01*
X124096299Y-94482444D01*
X125125270Y-93453472D01*
X125190278Y-93296532D01*
X125190278Y-107119757D01*
X124927000Y-106848502D01*
X124927000Y-103247395D01*
X123771384Y-102091779D01*
X123771384Y-94807359D01*
X123771384Y-94656392D01*
X122394470Y-93279478D01*
X122220522Y-93453426D01*
X122220522Y-93105530D01*
X120843608Y-91728616D01*
X120692641Y-91728616D01*
X119663670Y-92757588D01*
X119598662Y-92914528D01*
X119598662Y-93084400D01*
X119663669Y-93241340D01*
X119783786Y-93361457D01*
X120798707Y-94376378D01*
X120949674Y-94376378D01*
X122220522Y-93105530D01*
X122220522Y-93453426D01*
X121123622Y-94550326D01*
X121123622Y-94701293D01*
X122138543Y-95716214D01*
X122258660Y-95836331D01*
X122415600Y-95901338D01*
X122585472Y-95901338D01*
X122742412Y-95836330D01*
X123771384Y-94807359D01*
X123771384Y-102091779D01*
X121452605Y-99773000D01*
X119565317Y-99773000D01*
X119554669Y-97015150D01*
X119624417Y-96986331D01*
X119885414Y-96725789D01*
X120026839Y-96385201D01*
X120027161Y-96016417D01*
X119886331Y-95675583D01*
X119625789Y-95414586D01*
X119285201Y-95273161D01*
X118916417Y-95272839D01*
X118575583Y-95413669D01*
X118314586Y-95674211D01*
X118173161Y-96014799D01*
X118172839Y-96383583D01*
X118313669Y-96724417D01*
X118399870Y-96810769D01*
X118411308Y-99773000D01*
X116864595Y-99773000D01*
X116848562Y-101344287D01*
X115723247Y-102394581D01*
X115698000Y-108024715D01*
X115698000Y-113414154D01*
X115573161Y-113714799D01*
X115572839Y-114083583D01*
X115698000Y-114386495D01*
X115698000Y-118548211D01*
X114646576Y-119623000D01*
X110022553Y-119623000D01*
X109327546Y-119017672D01*
X109352572Y-116365016D01*
X108552638Y-115715070D01*
X108577474Y-113355654D01*
X107202000Y-111655068D01*
X107202000Y-108919549D01*
X107836039Y-108127000D01*
X112152000Y-108127000D01*
X112152000Y-102324164D01*
X113427000Y-100924164D01*
X113427000Y-97054429D01*
X113456025Y-97025455D01*
X113597450Y-96684867D01*
X113597772Y-96316083D01*
X113456942Y-95975249D01*
X113196400Y-95714252D01*
X112855812Y-95572827D01*
X112487028Y-95572505D01*
X112146194Y-95713335D01*
X112086424Y-95773000D01*
X108553020Y-95773000D01*
X107073000Y-97041588D01*
X107073000Y-97640516D01*
X106554020Y-98073000D01*
X104147395Y-98073000D01*
X101873000Y-100347395D01*
X101873000Y-108956981D01*
X95543000Y-115216981D01*
X95543000Y-119617224D01*
X96241848Y-120427000D01*
X105745986Y-120427000D01*
X106323000Y-121026207D01*
X106323000Y-123164635D01*
X106100000Y-123164635D01*
X105937186Y-123196224D01*
X105794088Y-123290224D01*
X105698300Y-123432132D01*
X105664635Y-123600000D01*
X105664635Y-124400000D01*
X105696224Y-124562814D01*
X105736970Y-124624842D01*
X105698300Y-124682132D01*
X105664635Y-124850000D01*
X105664635Y-125650000D01*
X105696224Y-125812814D01*
X105733358Y-125869345D01*
X105673000Y-126015065D01*
X105673000Y-126270250D01*
X105779750Y-126377000D01*
X106777000Y-126377000D01*
X106777000Y-126357000D01*
X107023000Y-126357000D01*
X107023000Y-126377000D01*
X108020250Y-126377000D01*
X108127000Y-126270250D01*
X108127000Y-126027000D01*
X108973000Y-126027000D01*
X108973000Y-135073000D01*
X102589829Y-135073000D01*
X101527000Y-134333641D01*
X101527000Y-131053504D01*
X102577000Y-130028504D01*
X102577000Y-129828095D01*
X102814799Y-129926839D01*
X103183583Y-129927161D01*
X103524417Y-129786331D01*
X103734113Y-129577000D01*
X105705542Y-129577000D01*
X105790224Y-129705912D01*
X105932132Y-129801700D01*
X106100000Y-129835365D01*
X107700000Y-129835365D01*
X107862814Y-129803776D01*
X108005912Y-129709776D01*
X108101700Y-129567868D01*
X108135365Y-129400000D01*
X108135365Y-128600000D01*
X108103776Y-128437186D01*
X108063029Y-128375157D01*
X108101700Y-128317868D01*
X108135365Y-128150000D01*
X108135365Y-127350000D01*
X108103776Y-127187186D01*
X108066641Y-127130654D01*
X108127000Y-126984935D01*
X108127000Y-126729750D01*
X108020250Y-126623000D01*
X107023000Y-126623000D01*
X107023000Y-126643000D01*
X106777000Y-126643000D01*
X106777000Y-126623000D01*
X105779750Y-126623000D01*
X105673000Y-126729750D01*
X105673000Y-126984935D01*
X105727598Y-127116748D01*
X105525789Y-126914586D01*
X105185201Y-126773161D01*
X104816417Y-126772839D01*
X104475583Y-126913669D01*
X104214586Y-127174211D01*
X104073161Y-127514799D01*
X104072839Y-127883583D01*
X104213669Y-128224417D01*
X104411905Y-128423000D01*
X103733839Y-128423000D01*
X103525789Y-128214586D01*
X103185201Y-128073161D01*
X102816417Y-128072839D01*
X102577000Y-128171764D01*
X102577000Y-122500367D01*
X101866587Y-121473000D01*
X94955526Y-121473000D01*
X93917000Y-120350269D01*
X93917000Y-114912156D01*
X98025756Y-110753415D01*
X98094178Y-107899251D01*
X98250829Y-107889142D01*
X95427000Y-104751269D01*
X95427000Y-104049306D01*
X98627000Y-100549306D01*
X98627000Y-94853105D01*
X106052107Y-87527000D01*
X119849817Y-87527000D01*
X126073000Y-93355060D01*
X126073000Y-100456669D01*
X129973000Y-103956669D01*
X129973000Y-105150467D01*
X127673000Y-107650467D01*
X127673000Y-109860857D01*
X127662087Y-109915721D01*
X127662087Y-109915722D01*
X127662087Y-110084278D01*
X127662087Y-110084279D01*
X127673000Y-110139142D01*
X127673000Y-111151093D01*
X130073000Y-113651093D01*
X130073000Y-120673000D01*
G36*
X111872772Y-97934075D02*
X111853473Y-100018291D01*
X106292944Y-105791053D01*
X104766999Y-107316999D01*
X104641922Y-107504192D01*
X104641696Y-107505326D01*
X104121227Y-108045661D01*
X102737000Y-106569763D01*
X102737000Y-106059872D01*
X103612903Y-105116591D01*
X107856625Y-100580547D01*
X107876681Y-97903039D01*
X108713181Y-96797000D01*
X111414274Y-96797000D01*
X111872772Y-97934075D01*
X111872772Y-97934075D01*
G37*
X111872772Y-97934075D02*
X111853473Y-100018291D01*
X106292944Y-105791053D01*
X104766999Y-107316999D01*
X104641922Y-107504192D01*
X104641696Y-107505326D01*
X104121227Y-108045661D01*
X102737000Y-106569763D01*
X102737000Y-106059872D01*
X103612903Y-105116591D01*
X107856625Y-100580547D01*
X107876681Y-97903039D01*
X108713181Y-96797000D01*
X111414274Y-96797000D01*
X111872772Y-97934075D01*
G36*
X105993000Y-119305571D02*
X105649278Y-119632925D01*
X100827000Y-119625833D01*
X100827000Y-118234936D01*
X100827000Y-118065065D01*
X100827000Y-117729750D01*
X100720250Y-117623000D01*
X99773000Y-117623000D01*
X99773000Y-118470250D01*
X99879750Y-118577000D01*
X100484935Y-118577000D01*
X100641876Y-118511993D01*
X100761993Y-118391876D01*
X100827000Y-118234936D01*
X100827000Y-119625833D01*
X98942951Y-119623063D01*
X98606782Y-119366934D01*
X98603624Y-118457493D01*
X98658124Y-118511993D01*
X98815065Y-118577000D01*
X99420250Y-118577000D01*
X99527000Y-118470250D01*
X99527000Y-117623000D01*
X99507000Y-117623000D01*
X99507000Y-117377000D01*
X99527000Y-117377000D01*
X99527000Y-117357000D01*
X99773000Y-117357000D01*
X99773000Y-117377000D01*
X100720250Y-117377000D01*
X100827000Y-117270250D01*
X100827000Y-116934935D01*
X100827000Y-116863985D01*
X101189430Y-117207000D01*
X104277603Y-117207000D01*
X105993000Y-118912814D01*
X105993000Y-119305571D01*
X105993000Y-119305571D01*
G37*
X105993000Y-119305571D02*
X105649278Y-119632925D01*
X100827000Y-119625833D01*
X100827000Y-118234936D01*
X100827000Y-118065065D01*
X100827000Y-117729750D01*
X100720250Y-117623000D01*
X99773000Y-117623000D01*
X99773000Y-118470250D01*
X99879750Y-118577000D01*
X100484935Y-118577000D01*
X100641876Y-118511993D01*
X100761993Y-118391876D01*
X100827000Y-118234936D01*
X100827000Y-119625833D01*
X98942951Y-119623063D01*
X98606782Y-119366934D01*
X98603624Y-118457493D01*
X98658124Y-118511993D01*
X98815065Y-118577000D01*
X99420250Y-118577000D01*
X99527000Y-118470250D01*
X99527000Y-117623000D01*
X99507000Y-117623000D01*
X99507000Y-117377000D01*
X99527000Y-117377000D01*
X99527000Y-117357000D01*
X99773000Y-117357000D01*
X99773000Y-117377000D01*
X100720250Y-117377000D01*
X100827000Y-117270250D01*
X100827000Y-116934935D01*
X100827000Y-116863985D01*
X101189430Y-117207000D01*
X104277603Y-117207000D01*
X105993000Y-118912814D01*
X105993000Y-119305571D01*
M02*
