G04 #@! TF.FileFunction,Profile,NP*
%FSLAX46Y46*%
G04 Gerber Fmt 4.6, Leading zero omitted, Abs format (unit mm)*
G04 Created by KiCad (PCBNEW (2014-11-29 BZR 5307)-product) date 2/1/2015 9:55:14 PM*
%MOMM*%
G01*
G04 APERTURE LIST*
%ADD10C,0.150000*%
%ADD11C,0.010000*%
G04 APERTURE END LIST*
D10*
D11*
X128430124Y-99931364D02*
G75*
G02X128000000Y-98880000I1069876J1051364D01*
G01*
X97000000Y-96900000D02*
X97000000Y-97000000D01*
X97000000Y-96400000D02*
X97000000Y-96900000D01*
X128000000Y-96400000D02*
X128000000Y-97000000D01*
X114300000Y-87000000D02*
X110700000Y-87000000D01*
X114300000Y-84000000D02*
X110700000Y-84000000D01*
X109200000Y-85500000D02*
G75*
G03X110700000Y-87000000I1500000J0D01*
G01*
X110700000Y-84000000D02*
G75*
G03X109200000Y-85500000I0J-1500000D01*
G01*
X114300000Y-87000000D02*
G75*
G03X115800000Y-85500000I0J1500000D01*
G01*
X115800000Y-85500000D02*
G75*
G03X114300000Y-84000000I-1500000J0D01*
G01*
X128500000Y-109000000D02*
X133000000Y-104500000D01*
X128500000Y-111000000D02*
X132000000Y-114500000D01*
X128500000Y-109000000D02*
G75*
G03X128500000Y-111000000I1000000J-1000000D01*
G01*
X96500000Y-111000000D02*
X93000000Y-114500000D01*
X96500000Y-109000000D02*
X92000000Y-104500000D01*
X96500000Y-111000000D02*
G75*
G03X96500000Y-109000000I-1000000J1000000D01*
G01*
X132000000Y-122000000D02*
X124500000Y-122000000D01*
X124500000Y-122000000D02*
G75*
G03X123000000Y-123500000I0J-1500000D01*
G01*
X123000000Y-128500000D02*
X123000000Y-123500000D01*
X123000000Y-128500000D02*
G75*
G03X124500000Y-130000000I1500000J0D01*
G01*
X125000000Y-130000000D02*
X124500000Y-130000000D01*
X127000000Y-132000000D02*
G75*
G03X125000000Y-130000000I-2000000J0D01*
G01*
X127000000Y-135000000D02*
X127000000Y-132000000D01*
X125000000Y-137000000D02*
G75*
G03X127000000Y-135000000I0J2000000D01*
G01*
X115500000Y-137000000D02*
X125000000Y-137000000D01*
X115500000Y-123500000D02*
X115500000Y-137000000D01*
X115500000Y-123500000D02*
G75*
G03X114000000Y-122000000I-1500000J0D01*
G01*
X98000000Y-132000000D02*
X98000000Y-135000000D01*
X100500000Y-130000000D02*
X100000000Y-130000000D01*
X100000000Y-130000000D02*
G75*
G03X98000000Y-132000000I0J-2000000D01*
G01*
X98000000Y-135000000D02*
G75*
G03X100000000Y-137000000I2000000J0D01*
G01*
X111000000Y-122000000D02*
G75*
G03X109500000Y-123500000I0J-1500000D01*
G01*
X111000000Y-122000000D02*
X114000000Y-122000000D01*
X132000000Y-114500000D02*
X132000000Y-122000000D01*
X93000000Y-114500000D02*
X93000000Y-115500000D01*
X128430000Y-99930000D02*
X133000000Y-104500000D01*
X128000000Y-97000000D02*
X128000000Y-98880000D01*
X97000000Y-97000000D02*
X97000000Y-99500000D01*
X112500000Y-80900000D02*
G75*
G03X97000000Y-96400000I0J-15500000D01*
G01*
X128000000Y-96400000D02*
G75*
G03X112500000Y-80900000I-15500000J0D01*
G01*
X92000000Y-104500000D02*
X97000000Y-99500000D01*
X93000000Y-122000000D02*
X93000000Y-115500000D01*
X100500000Y-122000000D02*
X93000000Y-122000000D01*
X100500000Y-130000000D02*
G75*
G03X102000000Y-128500000I0J1500000D01*
G01*
X102000000Y-123500000D02*
G75*
G03X100500000Y-122000000I-1500000J0D01*
G01*
X102500000Y-137000000D02*
X100000000Y-137000000D01*
X102000000Y-128500000D02*
X102000000Y-123500000D01*
X109500000Y-137000000D02*
X102500000Y-137000000D01*
X109500000Y-123500000D02*
X109500000Y-137000000D01*
M02*
